<svg width="18" height="18" viewBox="0 0 18 18" fill="none" xmlns="http://www.w3.org/2000/svg">
<path d="M12.0914 9.59169C12.9084 8.94891 13.5047 8.06746 13.7975 7.06997C14.0902 6.07249 14.0647 5.00858 13.7246 4.02625C13.3845 3.04391 12.7466 2.19202 11.8998 1.58907C11.053 0.986122 10.0393 0.662109 8.99975 0.662109C7.96021 0.662109 6.94652 0.986122 6.09969 1.58907C5.25287 2.19202 4.61504 3.04391 4.27493 4.02625C3.93482 5.00858 3.90935 6.07249 4.20205 7.06997C4.49476 8.06746 5.09109 8.94891 5.90809 9.59169C4.50815 10.1526 3.28666 11.0828 2.37383 12.2833C1.461 13.4838 0.891056 14.9094 0.724753 16.4084C0.712715 16.5178 0.72235 16.6285 0.753108 16.7342C0.783865 16.8399 0.835143 16.9386 0.904013 17.0245C1.0431 17.1979 1.24541 17.309 1.46642 17.3334C1.68743 17.3577 1.90905 17.2932 2.08252 17.1541C2.256 17.015 2.36711 16.8127 2.39142 16.5917C2.57441 14.9627 3.35116 13.4582 4.57327 12.3657C5.79538 11.2732 7.37717 10.6692 9.01642 10.6692C10.6557 10.6692 12.2375 11.2732 13.4596 12.3657C14.6817 13.4582 15.4584 14.9627 15.6414 16.5917C15.6641 16.7965 15.7618 16.9856 15.9157 17.1225C16.0696 17.2595 16.2687 17.3346 16.4748 17.3334H16.5664C16.7849 17.3082 16.9845 17.1978 17.1219 17.0261C17.2593 16.8544 17.3232 16.6353 17.2998 16.4167C17.1327 14.9135 16.5596 13.4842 15.6421 12.2819C14.7246 11.0795 13.4972 10.1496 12.0914 9.59169ZM8.99975 9.00002C8.34048 9.00002 7.69602 8.80453 7.14785 8.43825C6.59969 8.07198 6.17245 7.55139 5.92015 6.9423C5.66786 6.33321 5.60185 5.66299 5.73047 5.01639C5.85909 4.36979 6.17656 3.77584 6.64273 3.30967C7.10891 2.84349 7.70285 2.52602 8.34945 2.39741C8.99606 2.26879 9.66628 2.3348 10.2754 2.58709C10.8845 2.83938 11.405 3.26662 11.7713 3.81479C12.1376 4.36295 12.3331 5.00742 12.3331 5.66669C12.3331 6.55074 11.9819 7.39859 11.3568 8.02371C10.7317 8.64883 9.88381 9.00002 8.99975 9.00002Z" fill="#537DA5"/>
</svg>
