<svg width="14" height="18" viewBox="0 0 14 18" fill="none" xmlns="http://www.w3.org/2000/svg">
<path d="M12.0007 9.98341V7.33341C11.9995 6.15268 11.5804 5.01047 10.8178 4.10906C10.0552 3.20765 8.9982 2.6052 7.83398 2.40841V1.50008C7.83398 1.27907 7.74619 1.06711 7.58991 0.910826C7.43363 0.754545 7.22166 0.666748 7.00065 0.666748C6.77964 0.666748 6.56768 0.754545 6.4114 0.910826C6.25512 1.06711 6.16732 1.27907 6.16732 1.50008V2.40841C5.0031 2.6052 3.94609 3.20765 3.18347 4.10906C2.42086 5.01047 2.00185 6.15268 2.00065 7.33341V9.98341C1.51436 10.1553 1.09315 10.4735 0.794766 10.8942C0.496383 11.3149 0.335434 11.8176 0.333984 12.3334V14.0001C0.333984 14.2211 0.421782 14.4331 0.578062 14.5893C0.734343 14.7456 0.946304 14.8334 1.16732 14.8334H3.78398C3.97589 15.5396 4.39482 16.1629 4.97615 16.6074C5.55748 17.0518 6.2689 17.2926 7.00065 17.2926C7.7324 17.2926 8.44382 17.0518 9.02515 16.6074C9.60648 16.1629 10.0254 15.5396 10.2173 14.8334H12.834C13.055 14.8334 13.267 14.7456 13.4232 14.5893C13.5795 14.4331 13.6673 14.2211 13.6673 14.0001V12.3334C13.6659 11.8176 13.5049 11.3149 13.2065 10.8942C12.9082 10.4735 12.4869 10.1553 12.0007 9.98341ZM3.66732 7.33341C3.66732 6.44936 4.01851 5.60151 4.64363 4.97639C5.26875 4.35127 6.1166 4.00008 7.00065 4.00008C7.88471 4.00008 8.73255 4.35127 9.35767 4.97639C9.98279 5.60151 10.334 6.44936 10.334 7.33341V9.83341H3.66732V7.33341ZM7.00065 15.6667C6.70979 15.665 6.42446 15.5872 6.17301 15.441C5.92156 15.2948 5.71274 15.0853 5.56732 14.8334H8.43398C8.28856 15.0853 8.07974 15.2948 7.82829 15.441C7.57684 15.5872 7.29151 15.665 7.00065 15.6667ZM12.0007 13.1667H2.00065V12.3334C2.00065 12.1124 2.08845 11.9004 2.24473 11.7442C2.40101 11.5879 2.61297 11.5001 2.83398 11.5001H11.1673C11.3883 11.5001 11.6003 11.5879 11.7566 11.7442C11.9129 11.9004 12.0007 12.1124 12.0007 12.3334V13.1667Z" fill="#667085"/>
</svg>
