<svg width="14" height="18" viewBox="0 0 14 18" fill="none" xmlns="http://www.w3.org/2000/svg">
<path d="M11.9987 9.98341V7.33341C11.9975 6.15268 11.5785 5.01047 10.8159 4.10906C10.0533 3.20765 8.99625 2.6052 7.83203 2.40841V1.50008C7.83203 1.27907 7.74423 1.06711 7.58795 0.910826C7.43167 0.754545 7.21971 0.666748 6.9987 0.666748C6.77768 0.666748 6.56572 0.754545 6.40944 0.910826C6.25316 1.06711 6.16536 1.27907 6.16536 1.50008V2.40841C5.00115 2.6052 3.94413 3.20765 3.18152 4.10906C2.4189 5.01047 1.99989 6.15268 1.9987 7.33341V9.98341C1.51241 10.1553 1.0912 10.4735 0.792813 10.8942C0.49443 11.3149 0.333481 11.8176 0.332031 12.3334V14.0001C0.332031 14.2211 0.419829 14.4331 0.576109 14.5893C0.732389 14.7456 0.944351 14.8334 1.16536 14.8334H3.78203C3.97393 15.5396 4.39287 16.1629 4.9742 16.6074C5.55552 17.0518 6.26694 17.2926 6.9987 17.2926C7.73045 17.2926 8.44187 17.0518 9.0232 16.6074C9.60453 16.1629 10.0235 15.5396 10.2154 14.8334H12.832C13.053 14.8334 13.265 14.7456 13.4213 14.5893C13.5776 14.4331 13.6654 14.2211 13.6654 14.0001V12.3334C13.6639 11.8176 13.503 11.3149 13.2046 10.8942C12.9062 10.4735 12.485 10.1553 11.9987 9.98341V9.98341ZM3.66536 7.33341C3.66536 6.44936 4.01655 5.60151 4.64168 4.97639C5.2668 4.35127 6.11464 4.00008 6.9987 4.00008C7.88275 4.00008 8.7306 4.35127 9.35572 4.97639C9.98084 5.60151 10.332 6.44936 10.332 7.33341V9.83341H3.66536V7.33341ZM6.9987 15.6667C6.70784 15.665 6.42251 15.5872 6.17106 15.441C5.91961 15.2948 5.71079 15.0853 5.56536 14.8334H8.43203C8.28661 15.0853 8.07779 15.2948 7.82634 15.441C7.57489 15.5872 7.28955 15.665 6.9987 15.6667ZM11.9987 13.1667H1.9987V12.3334C1.9987 12.1124 2.0865 11.9004 2.24278 11.7442C2.39906 11.5879 2.61102 11.5001 2.83203 11.5001H11.1654C11.3864 11.5001 11.5983 11.5879 11.7546 11.7442C11.9109 11.9004 11.9987 12.1124 11.9987 12.3334V13.1667Z" fill="#537DA5"/>
</svg>
