<svg width="24" height="24" viewBox="0 0 24 24" fill="none" xmlns="http://www.w3.org/2000/svg">
<path d="M1.125 8.625H22.875V19.875H1.125V8.625Z" fill="#D0D8DA"/>
<path d="M22.875 16.5V19.875H1.125V8.625H6.75V10.5C6.75 12.0913 7.38214 13.6174 8.50736 14.7426C9.63258 15.8679 11.1587 16.5 12.75 16.5H22.875Z" fill="#D0D8DA"/>
<path d="M5.625 10.125H18.375V18.375H5.625V10.125Z" fill="#93999A"/>
<path d="M9.75 3.375H14.25V4.875C14.25 5.47174 14.0129 6.04403 13.591 6.46599C13.169 6.88795 12.5967 7.125 12 7.125C11.4033 7.125 10.831 6.88795 10.409 6.46599C9.98705 6.04403 9.75 5.47174 9.75 4.875V3.375Z" fill="#F9DBAF"/>
<path d="M9.75 1.125H12.75C13.1478 1.125 13.5294 1.28304 13.8107 1.56434C14.092 1.84564 14.25 2.22718 14.25 2.625V3.375H9.75V1.125Z" fill="#93999A"/>
<path d="M9 19.875H15V22.875H9V19.875Z" fill="#48CAE4"/>
<path d="M19.875 10.125H21.375V11.625H19.875V10.125Z" fill="#48CAE4"/>
<path d="M19.875 13.5H21.375V15H19.875V13.5Z" fill="#48CAE4"/>
<path d="M19.875 16.875H21.375V18.375H19.875V16.875Z" fill="#00B4D8"/>
<path d="M3.375 11.625C3.78921 11.625 4.125 11.2892 4.125 10.875C4.125 10.4608 3.78921 10.125 3.375 10.125C2.96079 10.125 2.625 10.4608 2.625 10.875C2.625 11.2892 2.96079 11.625 3.375 11.625Z" fill="#EF5350"/>
<path d="M4.0574 11.1824C4.00796 11.2936 3.93219 11.3911 3.83664 11.4665C3.74108 11.5419 3.62862 11.5929 3.50895 11.6151C3.38928 11.6373 3.26601 11.6301 3.14976 11.594C3.03352 11.5579 2.9278 11.4941 2.84174 11.408C2.75568 11.322 2.69185 11.2163 2.65577 11.1C2.6197 10.9838 2.61245 10.8605 2.63467 10.7408C2.65688 10.6212 2.70788 10.5087 2.78328 10.4131C2.85867 10.3176 2.95618 10.2418 3.0674 10.1924C3.02214 10.2885 2.99907 10.3936 2.9999 10.4999C3.00049 10.6986 3.0797 10.889 3.22022 11.0296C3.36075 11.1701 3.55117 11.2493 3.7499 11.2499C3.85616 11.2507 3.96125 11.2276 4.0574 11.1824Z" fill="#E53935"/>
<path d="M5.625 10.125V18.375H18.375V10.125H5.625ZM17.625 16.5H12.75C11.2245 16.4994 9.75659 15.9172 8.6453 14.8721C7.53401 13.827 6.86293 12.3976 6.76875 10.875H15C15.6962 10.875 16.3639 11.1516 16.8562 11.6438C17.3484 12.1361 17.625 12.8038 17.625 13.5V16.5Z" fill="#656B76"/>
<path d="M15 19.875V21H14.25C13.9516 21 13.6655 21.1185 13.4545 21.3295C13.2435 21.5405 13.125 21.8266 13.125 22.125V22.875H12V21H11.25C10.9516 21 10.6655 21.1185 10.4545 21.3295C10.2435 21.5405 10.125 21.8266 10.125 22.125V22.875H9V19.875H15Z" fill="#00B4D8"/>
<path d="M10.875 4.125V4.5C10.875 5.09674 11.1121 5.66903 11.534 6.09099C11.956 6.51295 12.5283 6.75 13.125 6.75C13.1676 6.75135 13.2103 6.74884 13.2525 6.7425C12.8831 6.99326 12.4465 7.12658 12 7.125C11.4033 7.125 10.831 6.88795 10.409 6.46599C9.98705 6.04403 9.75 5.47174 9.75 4.875V3.375H14.25V4.125H10.875Z" fill="#EDB88E"/>
<path d="M14.25 2.625V3.375H9.75V1.125H10.5C10.5 1.52282 10.658 1.90436 10.9393 2.18566C11.2206 2.46696 11.6022 2.625 12 2.625H14.25Z" fill="#656B76"/>
<path d="M21.375 18V18.375H19.875V16.875H20.25V17.25C20.2506 17.4487 20.3298 17.6392 20.4703 17.7797C20.6108 17.9202 20.8013 17.9994 21 18H21.375Z" fill="#0096C7"/>
<path d="M21.375 14.625V15H19.875V13.5H20.25V13.875C20.2506 14.0737 20.3298 14.2642 20.4703 14.4047C20.6108 14.5452 20.8013 14.6244 21 14.625H21.375Z" fill="#00B4D8"/>
<path d="M21.375 11.25V11.625H19.875V10.125H20.25V10.5C20.2506 10.6987 20.3298 10.8892 20.4703 11.0297C20.6108 11.1702 20.8013 11.2494 21 11.25H21.375Z" fill="#00B4D8"/>
<path d="M16.5 8.62503H7.5C7.5001 8.27871 7.62004 7.94309 7.83946 7.67514C8.05888 7.4072 8.36425 7.22343 8.70375 7.15503C8.78359 7.36763 8.92669 7.55064 9.11377 7.67938C9.30085 7.80813 9.52291 7.87641 9.75 7.87503H16.2975C16.4299 8.10283 16.4997 8.36156 16.5 8.62503Z" fill="#00B4D8"/>
<path d="M14.7375 16.743L13.4809 16.272C13.2663 16.1917 13.0813 16.0479 12.9507 15.8596C12.8201 15.6714 12.7501 15.4477 12.75 15.2186V12.8336C12.75 12.7197 12.776 12.6072 12.826 12.5048C12.876 12.4024 12.9486 12.3127 13.0385 12.2426C13.1283 12.1724 13.2329 12.1237 13.3444 12.1001C13.4559 12.0764 13.5713 12.0785 13.6819 12.1061C14.2726 12.2538 14.7969 12.5947 15.1717 13.0746C15.5464 13.5545 15.75 14.1459 15.75 14.7548V16.041C15.7499 16.1621 15.7205 16.2813 15.6643 16.3885C15.6081 16.4958 15.5268 16.5878 15.4273 16.6568C15.3278 16.7258 15.2131 16.7696 15.093 16.7847C14.9729 16.7997 14.8509 16.7854 14.7375 16.743Z" fill="#FF7373"/>
<path d="M9.2625 16.743L10.5191 16.272C10.7337 16.1917 10.9187 16.0479 11.0493 15.8596C11.1799 15.6714 11.2499 15.4477 11.25 15.2186V12.8336C11.25 12.7197 11.224 12.6072 11.174 12.5048C11.124 12.4024 11.0514 12.3127 10.9615 12.2426C10.8717 12.1724 10.7671 12.1237 10.6556 12.1001C10.5441 12.0764 10.4287 12.0785 10.3181 12.1061C9.72744 12.2538 9.20306 12.5947 8.82833 13.0746C8.45361 13.5545 8.25005 14.1459 8.25 14.7548V16.041C8.25009 16.1621 8.27949 16.2813 8.33568 16.3885C8.39186 16.4958 8.47318 16.5878 8.57266 16.6568C8.67215 16.7258 8.78686 16.7696 8.90699 16.7847C9.02712 16.7997 9.1491 16.7854 9.2625 16.743Z" fill="#FF7373"/>
<path d="M15.75 15.6563V16.0425C15.7498 16.1635 15.7203 16.2827 15.6641 16.3898C15.6078 16.4969 15.5265 16.5889 15.427 16.6578C15.3276 16.7267 15.2129 16.7705 15.0928 16.7854C14.9728 16.8004 14.8508 16.7861 14.7375 16.7438L13.4813 16.2713C13.2667 16.1907 13.0818 16.0467 12.9512 15.8585C12.8206 15.6702 12.7504 15.4467 12.75 15.2175V12.8325C12.7506 12.6338 12.8298 12.4434 12.9703 12.3028C13.1108 12.1623 13.3013 12.0831 13.5 12.0825V12.75C13.5001 13.4153 13.7211 14.0617 14.1283 14.5877C14.5355 15.1137 15.106 15.4896 15.75 15.6563Z" fill="#EF5350"/>
<path d="M11.1675 15.6338C11.1105 15.7798 11.0232 15.9121 10.9114 16.022C10.7996 16.1319 10.6658 16.2168 10.5187 16.2713L9.2625 16.7438C9.14915 16.7861 9.02724 16.8004 8.90718 16.7854C8.78711 16.7705 8.67244 16.7267 8.57297 16.6578C8.4735 16.5889 8.39218 16.4969 8.33594 16.3898C8.2797 16.2827 8.25021 16.1635 8.25 16.0425V14.7563C8.25039 14.1477 8.4536 13.5565 8.8275 13.0763C8.88221 13.0054 8.94106 12.9377 9.00375 12.8738C9.02931 13.5027 9.252 14.1076 9.64032 14.6029C10.0286 15.0982 10.5629 15.4589 11.1675 15.6338Z" fill="#EF5350"/>
<path d="M15.5926 16.5C15.4955 16.6275 15.3598 16.7201 15.2057 16.7641C15.0515 16.808 14.8873 16.8009 14.7376 16.7438L14.0889 16.5H15.5926Z" fill="#E53935"/>
<path d="M10.7476 16.1549C10.6757 16.2018 10.599 16.2408 10.5188 16.2712L9.26257 16.7437C9.14922 16.786 9.02731 16.8003 8.90724 16.7853C8.78717 16.7704 8.67251 16.7266 8.57304 16.6577C8.47357 16.5888 8.39224 16.4968 8.336 16.3897C8.27976 16.2826 8.25028 16.1634 8.25007 16.0424V14.7562C8.24935 14.6647 8.25436 14.5733 8.26507 14.4824C8.93839 15.2402 9.79234 15.8155 10.7476 16.1549Z" fill="#E53935"/>
<path d="M11.625 10.125V12.5625L10.3751 13.5H9.75C9.65054 13.5 9.55516 13.5395 9.48483 13.6098C9.41451 13.6802 9.375 13.7755 9.375 13.875C9.375 13.9745 9.41451 14.0698 9.48483 14.1402C9.55516 14.2105 9.65054 14.25 9.75 14.25H9.89325L9.78937 14.4574C9.74492 14.5464 9.73764 14.6494 9.76915 14.7438C9.80065 14.8382 9.86836 14.9162 9.95737 14.9606C10.0464 15.0051 10.1494 15.0124 10.2438 14.9809C10.3382 14.9493 10.4162 14.8816 10.4606 14.7926L10.7959 14.1218L12 13.2187L13.2041 14.1218L13.5394 14.7926C13.5838 14.8816 13.6618 14.9493 13.7562 14.9809C13.8506 15.0124 13.9536 15.0051 14.0426 14.9606C14.1316 14.9162 14.1993 14.8382 14.2309 14.7438C14.2624 14.6494 14.2551 14.5464 14.2106 14.4574L14.1068 14.25H14.25C14.3495 14.25 14.4448 14.2105 14.5152 14.1402C14.5855 14.0698 14.625 13.9745 14.625 13.875C14.625 13.7755 14.5855 13.6802 14.5152 13.6098C14.4448 13.5395 14.3495 13.5 14.25 13.5H13.6249L12.375 12.5625V10.125H11.625Z" fill="#E53935"/>
<path d="M3.375 13.5C3.58211 13.5 3.75 13.3321 3.75 13.125C3.75 12.9179 3.58211 12.75 3.375 12.75C3.16789 12.75 3 12.9179 3 13.125C3 13.3321 3.16789 13.5 3.375 13.5Z" fill="#48CAE4"/>
<path d="M3.375 15C3.58211 15 3.75 14.8321 3.75 14.625C3.75 14.4179 3.58211 14.25 3.375 14.25C3.16789 14.25 3 14.4179 3 14.625C3 14.8321 3.16789 15 3.375 15Z" fill="#48CAE4"/>
<path d="M3.375 16.5C3.58211 16.5 3.75 16.3321 3.75 16.125C3.75 15.9179 3.58211 15.75 3.375 15.75C3.16789 15.75 3 15.9179 3 16.125C3 16.3321 3.16789 16.5 3.375 16.5Z" fill="#48CAE4"/>
<path d="M3.375 18C3.58211 18 3.75 17.8321 3.75 17.625C3.75 17.4179 3.58211 17.25 3.375 17.25C3.16789 17.25 3 17.4179 3 17.625C3 17.8321 3.16789 18 3.375 18Z" fill="#48CAE4"/>
<path d="M11.625 10.125H12.375V10.875H11.625V10.125Z" fill="#C62828"/>
</svg>
