<svg width="18" height="18" viewBox="0 0 18 18" fill="none" xmlns="http://www.w3.org/2000/svg">
<path d="M9.00033 0.666748C7.35215 0.666748 5.74099 1.15549 4.37058 2.07117C3.00017 2.98685 1.93206 4.28834 1.30133 5.81105C0.670603 7.33377 0.505575 9.00933 0.827119 10.6258C1.14866 12.2423 1.94234 13.7272 3.10777 14.8926C4.27321 16.0581 5.75807 16.8517 7.37458 17.1733C8.99109 17.4948 10.6666 17.3298 12.1894 16.6991C13.7121 16.0683 15.0136 15.0002 15.9292 13.6298C16.8449 12.2594 17.3337 10.6483 17.3337 9.00008C17.3337 7.90573 17.1181 6.8221 16.6993 5.81105C16.2805 4.80001 15.6667 3.88135 14.8929 3.10752C14.1191 2.3337 13.2004 1.71987 12.1894 1.30109C11.1783 0.882296 10.0947 0.666748 9.00033 0.666748ZM9.00033 15.6667C7.68179 15.6667 6.39286 15.2758 5.29653 14.5432C4.2002 13.8107 3.34572 12.7695 2.84113 11.5513C2.33655 10.3331 2.20453 8.99269 2.46176 7.69948C2.719 6.40627 3.35393 5.21839 4.28628 4.28604C5.21863 3.35369 6.40652 2.71875 7.69973 2.46151C8.99293 2.20428 10.3334 2.3363 11.5516 2.84088C12.7697 3.34547 13.8109 4.19995 14.5435 5.29628C15.276 6.39261 15.667 7.68154 15.667 9.00008C15.667 10.7682 14.9646 12.4639 13.7144 13.7141C12.4641 14.9644 10.7684 15.6667 9.00033 15.6667ZM9.00033 4.00008C8.77932 4.00008 8.56735 4.08788 8.41107 4.24416C8.25479 4.40044 8.167 4.6124 8.167 4.83342V8.16675H6.50033C6.27931 8.16675 6.06735 8.25455 5.91107 8.41083C5.75479 8.56711 5.667 8.77907 5.667 9.00008C5.667 9.2211 5.75479 9.43306 5.91107 9.58934C6.06735 9.74562 6.27931 9.83342 6.50033 9.83342H9.00033C9.22134 9.83342 9.4333 9.74562 9.58958 9.58934C9.74586 9.43306 9.83366 9.2211 9.83366 9.00008V4.83342C9.83366 4.6124 9.74586 4.40044 9.58958 4.24416C9.4333 4.08788 9.22134 4.00008 9.00033 4.00008Z" fill="#537DA5"/>
</svg>
