<svg width="18" height="12" viewBox="0 0 18 12" fill="none" xmlns="http://www.w3.org/2000/svg">
<path d="M13.9998 4.33341C13.9998 4.11239 13.912 3.90043 13.7557 3.74415C13.5994 3.58787 13.3875 3.50007 13.1665 3.50007H3.50812L5.42479 1.59174C5.58171 1.43482 5.66987 1.22199 5.66987 1.00007C5.66987 0.778155 5.58171 0.565326 5.42479 0.408407C5.26787 0.251487 5.05504 0.16333 4.83312 0.16333C4.61121 0.16333 4.39838 0.251487 4.24146 0.408407L0.908124 3.74174C0.792493 3.85893 0.714162 4.00774 0.683017 4.1694C0.651872 4.33105 0.669308 4.49831 0.733124 4.65007C0.795641 4.80226 0.901806 4.93253 1.03824 5.02447C1.17467 5.11642 1.33527 5.16592 1.49979 5.16674H13.1665C13.3875 5.16674 13.5994 5.07894 13.7557 4.92266C13.912 4.76638 13.9998 4.55442 13.9998 4.33341ZM17.2665 7.35007C17.2039 7.19789 17.0978 7.06762 16.9613 6.97567C16.8249 6.88373 16.6643 6.83423 16.4998 6.83341H4.83312C4.61211 6.83341 4.40015 6.9212 4.24387 7.07749C4.08759 7.23377 3.99979 7.44573 3.99979 7.66674C3.99979 7.88775 4.08759 8.09972 4.24387 8.256C4.40015 8.41228 4.61211 8.50007 4.83312 8.50007H14.4915L12.5748 10.4084C12.4967 10.4859 12.4347 10.578 12.3924 10.6796C12.3501 10.7811 12.3283 10.8901 12.3283 11.0001C12.3283 11.1101 12.3501 11.219 12.3924 11.3206C12.4347 11.4221 12.4967 11.5143 12.5748 11.5917C12.6523 11.6698 12.7444 11.7318 12.846 11.7741C12.9475 11.8165 13.0564 11.8382 13.1665 11.8382C13.2765 11.8382 13.3854 11.8165 13.4869 11.7741C13.5885 11.7318 13.6807 11.6698 13.7581 11.5917L17.0915 8.25841C17.2071 8.14122 17.2854 7.99241 17.3166 7.83075C17.3477 7.66909 17.3303 7.50183 17.2665 7.35007Z" fill="#537DA5"/>
</svg>
