<svg width="24" height="24" viewBox="0 0 24 24" fill="none" xmlns="http://www.w3.org/2000/svg">
<path d="M20.9488 21.9718C17.1216 22.4263 9.15533 23.1122 5.47129 21.5115C5.084 21.3432 4.78729 21.0178 4.65775 20.6159C3.93795 18.3834 1.64817 10.1855 4.62538 4.17376C4.71572 3.99134 4.74146 3.78405 4.69666 3.58552C4.61256 3.21299 4.51545 2.5647 4.70977 2.08915C5.14433 1.02565 8.3629 -1.4464 10.7982 1.14299C11.4732 1.86071 11.469 3.06279 11.3316 3.99018C11.2324 4.6601 10.507 5.03641 9.90325 4.72963L9.39645 4.47212C9.06311 4.30276 8.65995 4.35734 8.38395 4.60958C8.0794 4.88791 7.63061 5.20436 7.12283 5.25923C6.31748 6.71137 8.50303 12.5733 8.54585 15.5369C8.5504 15.8502 8.91809 16.0137 9.15214 15.8055C9.9139 15.1277 11.2533 14.2969 13.0878 14.5307C14.2082 14.6735 14.9743 15.3496 15.4535 15.9706C15.8106 16.4335 16.5059 16.4413 16.8792 15.9914C17.8308 14.8451 19.6126 13.2504 21.9964 13.5514C22.3959 13.6019 22.7012 13.9332 22.7212 14.3354L22.981 19.5683C23.0412 20.7789 22.1532 21.8288 20.9488 21.9718Z" fill="#F9DBD4"/>
<path d="M22.9422 18.7894C22.7564 19.7537 21.912 20.9563 20.8955 21.0771C20.4401 21.1312 19.583 20.7918 19.0245 20.8482C14.6079 21.2942 7.80908 21.6406 4.8551 19.8669C4.8551 19.8669 3.28358 15.6257 3.14694 10.7283C3.02099 15.0611 4.18223 19.1414 4.65778 20.6165C4.78731 21.0184 5.08392 21.3433 5.47117 21.5116C9.15521 23.1123 17.1214 22.4264 20.9486 21.9719C22.1531 21.8289 23.0411 20.7789 22.981 19.5683L22.9422 18.7894Z" fill="#FFAEA7"/>
<path d="M5.59085 4.91636C5.68119 4.73394 5.70693 4.5267 5.66212 4.32812C5.57803 3.95559 5.48091 3.3073 5.67524 2.83175C6.05246 1.90857 8.52741 -0.075202 10.7669 1.11086C8.33536 -1.42472 5.14244 1.0301 4.70972 2.0891C4.5154 2.56465 4.61251 3.21294 4.69661 3.58548C4.74141 3.78406 4.71567 3.9913 4.62533 4.17372C1.64827 10.1852 3.93785 18.383 4.6577 20.6159C4.78554 21.0124 5.0747 21.3378 5.45643 21.5047C5.53728 21.54 5.62017 21.5742 5.70499 21.6074C5.1049 19.8178 2.4887 11.1804 5.59085 4.91636Z" fill="#FFAEA7"/>
<path d="M15.2949 24H2.6711C1.75706 24 1.01611 23.2595 1.01611 22.3461V10.62C1.01611 9.70653 1.75706 8.96606 2.6711 8.96606H15.2949C16.2089 8.96606 16.9499 9.70653 16.9499 10.62V22.3461C16.9499 23.2595 16.2089 24 15.2949 24Z" fill="#4AC9FF"/>
<path d="M16.95 15.9075C16.9261 15.9356 16.9022 15.9638 16.8793 15.9914C16.5063 16.4408 15.8124 16.4365 15.4561 15.9739C14.9771 15.352 14.2102 14.6738 13.0879 14.5307C11.253 14.2968 9.91354 15.128 9.15183 15.8058C8.91841 16.0136 8.55033 15.8514 8.54593 15.539C8.52198 13.8418 7.79433 11.1927 7.32836 8.96606H3.27333C2.69535 13.9127 4.11832 18.9426 4.65793 20.6164C4.78688 21.0164 5.08103 21.3415 5.46633 21.5093C8.11736 22.6639 12.9924 22.6313 16.9437 22.3528C16.9535 22.3423 16.95 22.6481 16.95 15.9075Z" fill="#E6795F"/>
<path d="M6.18943 20.6022C5.80417 20.4344 5.51003 20.1093 5.38108 19.7094C4.87441 18.1378 3.58916 13.6079 3.91233 8.96606H3.27333C2.69535 13.9127 4.11832 18.9426 4.65793 20.6164C4.78688 21.0164 5.08103 21.3415 5.46633 21.5093C8.11737 22.6639 12.9924 22.6313 16.9438 22.3528C16.9531 22.3426 16.95 22.4115 16.95 21.4927C13.1414 21.7238 8.68224 21.6878 6.18943 20.6022Z" fill="#CB5D5F"/>
<path d="M16.95 18.5323H9.99725C9.98593 17.9818 9.53665 17.5388 8.98306 17.5388C8.05417 17.5388 7.61467 18.6878 8.30593 19.3078C7.61506 19.9276 8.05344 21.0769 8.98306 21.0769C9.53665 21.0769 9.98593 20.6339 9.99725 20.0833H16.95V18.5323Z" fill="#D4DEFF"/>
<path d="M5.58662 18.4894C5.78259 18.8112 6.44805 19.117 6.78889 18.2965C7.01694 17.7474 7.33939 17.1902 6.79809 16.483C5.48447 14.767 6.10194 8.96606 6.10194 8.96606H4.41783C4.41783 8.96606 4.29662 16.3703 5.58662 18.4894Z" fill="#D4DEFF"/>
<path d="M6.56059 3.14955C6.63272 2.89538 6.56242 2.65279 6.40357 2.60771C6.24472 2.56263 6.05747 2.73213 5.98534 2.98631C5.91321 3.24048 5.98351 3.48308 6.14236 3.52816C6.30121 3.57323 6.48846 3.40373 6.56059 3.14955Z" fill="#FFAEA7"/>
<path d="M20.9284 20.5805C21.2381 20.5805 21.4892 20.3984 21.4892 20.1737C21.4892 19.949 21.2381 19.7668 20.9284 19.7668C20.6187 19.7668 20.3677 19.949 20.3677 20.1737C20.3677 20.3984 20.6187 20.5805 20.9284 20.5805Z" fill="#FFAEA7"/>
</svg>
