<svg width="24" height="24" viewBox="0 0 24 24" fill="none" xmlns="http://www.w3.org/2000/svg">
<path d="M11.9856 0.000129544C9.37945 0.0191725 7.2948 2.17926 7.2948 4.7854V6.70288C7.61267 6.44415 8.06146 6.20007 8.59137 6.27386H9.48932C9.60632 6.27386 10.2637 6.2204 10.2153 6.22406C11.0395 6.16089 11.7644 5.59106 11.9649 4.76343C11.9713 4.73743 11.9942 4.71875 12.0211 4.71875C12.0478 4.71875 12.0707 4.73743 12.0771 4.76343C12.2773 5.58758 12.9945 6.15173 13.8077 6.22058C14.4029 6.27112 14.411 6.27386 14.5185 6.27386H15.4505C15.9905 6.19696 16.4506 6.43316 16.7472 6.70288C16.7472 5.95911 16.7472 4.99158 16.7472 4.72626C16.7472 2.10419 14.6122 -0.0190965 11.9856 0.000129544Z" fill="#1D2939"/>
<path d="M8.74316 4.78541C8.74316 2.41274 10.4713 0.409932 12.7477 0.0558063C12.4994 0.0175373 12.2449 -0.00187187 11.9856 0.000142291C9.37945 0.0191852 7.2948 2.17928 7.2948 4.78541V6.70289C7.61267 6.44416 8.06146 6.20008 8.59137 6.27388H8.74316V4.78541Z" fill="#554E56"/>
<path d="M13.7825 12.6999C13.7828 12.8436 13.8713 12.9722 14.0051 13.0242C14.2545 13.1207 16.2579 13.8404 16.9978 14.127C18.721 13.4354 18.5813 10.9686 17.737 10.5334C17.4665 10.3939 17.2265 10.2347 17.0492 10.0275C16.7081 9.62866 16.5252 8.87683 16.5085 8.34399C16.217 8.54266 15.6976 8.63898 15.3011 8.57654C15.2632 9.70666 14.6661 10.8551 13.7795 11.45L13.7825 12.6999Z" fill="#685E68"/>
<path d="M6.9677 14.1393C8.58525 13.5123 8.36113 13.6553 9.87577 13.0681C9.97209 13.0308 10.2153 12.9672 10.2153 12.6979V11.4282C9.30943 10.8172 8.76542 9.65777 8.73924 8.5769C8.34318 8.63879 7.82408 8.54248 7.53294 8.34399C7.51646 8.87683 7.33336 9.62866 6.99242 10.0275C6.81499 10.2347 6.57512 10.3939 6.30449 10.5334C5.45507 10.9714 5.22161 13.4643 6.9677 14.1393Z" fill="#685E68"/>
<path d="M7.75285 10.5334C8.02348 10.3939 8.26335 10.2347 8.44078 10.0275C8.60594 9.83447 8.73356 9.55853 8.82365 9.26501C8.77348 9.03613 8.74473 8.80469 8.73924 8.5769C8.34318 8.63898 7.82408 8.54248 7.53294 8.34399C7.51646 8.87683 7.33336 9.62866 6.99242 10.0275C6.81499 10.2347 6.57512 10.3939 6.30449 10.5334C5.45507 10.9714 5.22161 13.4643 6.9677 14.1395C7.34764 13.9921 7.62523 13.8877 7.84843 13.8058C6.73863 12.8694 7.01036 10.9163 7.75285 10.5334Z" fill="#554E56"/>
<path d="M9.35889 13.1157C9.45483 13.4177 9.74762 14.3405 10.1061 15.4699C10.6547 15.5908 11.3027 15.6607 11.9974 15.6607C12.7136 15.6607 13.3801 15.5862 13.9391 15.4582L14.6777 13.1318L14.15 12.9275C14.0165 12.8759 13.9277 12.7473 13.9274 12.6032L13.9246 11.3054C13.3878 11.6657 12.7452 11.8765 12.056 11.8741C11.2863 11.8715 10.6133 11.6501 10.0703 11.2839L10.0704 12.6012C10.0704 12.868 9.8324 12.9322 9.73096 12.9716L9.35889 13.1157Z" fill="#FFBD86"/>
<path d="M10.8997 14.0754C10.8318 13.8615 10.942 13.6321 11.1511 13.551C11.2526 13.5118 11.4904 13.4475 11.4904 13.1807V11.8312C10.9539 11.7499 10.476 11.5573 10.0704 11.2839V12.6012C10.0704 12.868 9.8324 12.9322 9.73096 12.9716L9.35889 13.1157C9.45483 13.4177 9.7478 14.3405 10.1061 15.4699C10.493 15.555 10.9299 15.6144 11.397 15.6422C11.192 14.9964 11.0165 14.4436 10.8997 14.0754Z" fill="#F6A96C"/>
<path d="M11.998 15.632C11.2778 15.632 10.6089 15.5545 10.0547 15.4219C10.855 17.9433 11.9379 21.3547 12.0207 21.6153L13.9907 15.4097C13.4268 15.5496 12.7399 15.632 11.998 15.632Z" fill="#60B8FF"/>
<path d="M11.5263 16.0494C11.4789 15.8998 11.4326 15.7539 11.3877 15.6125C10.9008 15.582 10.4485 15.5164 10.0547 15.4221C10.855 17.9437 11.9379 21.3549 12.0207 21.6155L12.65 19.6328C12.306 18.5426 11.9321 17.3508 11.5263 16.0494Z" fill="#22A7FF"/>
<path d="M12.0209 21.3011L9.41546 13.0938L4.979 14.8138C4.17297 15.1454 3.09375 16.1891 3.09375 17.7378V23.3718C3.09375 23.7188 3.375 24 3.72198 24H12.1657L12.0209 21.3011Z" fill="#D9EDFF"/>
<path d="M4.54248 23.4202V16.9168C4.54248 15.9128 4.99621 15.1213 5.53509 14.5981L4.979 14.8138C4.17297 15.1454 3.09375 16.1891 3.09375 17.7378V23.3718C3.09375 23.7188 3.375 24 3.72198 24H4.9292C4.70215 23.9054 4.54248 23.6814 4.54248 23.4202Z" fill="#B4DBFF"/>
<path d="M6.41369 24.0001V18.3207C6.41369 18.1207 6.25146 17.9585 6.05151 17.9585C5.85138 17.9585 5.68933 18.1207 5.68933 18.3207V24.0001H6.41369Z" fill="#B4DBFF"/>
<path d="M8.98157 20.903C8.78162 20.903 8.61938 20.7408 8.61938 20.5408V17.2052C8.61938 17.0052 8.78162 16.843 8.98157 16.843C9.1817 16.843 9.34393 17.0052 9.34393 17.2052V20.5408C9.34375 20.7408 9.1817 20.903 8.98157 20.903Z" fill="#685E68"/>
<path d="M10.1732 21.4128C10.1732 22.0721 9.63855 22.6066 8.97919 22.6066C8.31982 22.6066 7.78516 22.0721 7.78516 21.4128C7.78516 20.7532 8.31982 20.2188 8.97919 20.2188C9.63855 20.2188 10.1732 20.7532 10.1732 21.4128Z" fill="#60B8FF"/>
<path d="M8.97937 21.7746C8.77722 21.7746 8.61719 21.6102 8.61719 21.4125C8.61719 21.1838 8.82776 21.0113 9.04987 21.0576C9.2196 21.0895 9.34155 21.2435 9.34155 21.4125C9.34155 21.6056 9.18481 21.7746 8.97937 21.7746Z" fill="#8BCAFF"/>
<path d="M7.77356 13.7304V14.7739C7.77356 14.8988 7.83234 15.0165 7.93249 15.0914L8.72278 15.683C8.87164 15.7946 8.92309 15.9945 8.84637 16.1641L8.49646 16.9377C8.4201 17.1063 8.47064 17.3055 8.61822 17.4172L12.0209 21.3011C11.9029 20.9297 9.59289 13.6528 9.41546 13.0938L7.77356 13.7304Z" fill="#B4DBFF"/>
<path d="M11.3073 19.0535L9.87378 17.4172C9.72619 17.3055 9.67566 17.1063 9.75201 16.9377L10.1019 16.1641C10.1786 15.9945 10.1272 15.7946 9.97833 15.683L9.18805 15.0914C9.08807 15.0165 9.02911 14.8988 9.02911 14.7739V14.2922C9.02911 13.9536 9.2373 13.6497 9.55298 13.5273C9.48376 13.3093 9.43561 13.1575 9.41546 13.0938L7.77356 13.7304V14.7739C7.77356 14.8988 7.83234 15.0165 7.93249 15.0914L8.72278 15.683C8.87164 15.7946 8.92309 15.9945 8.84637 16.1641L8.49646 16.9377C8.4201 17.1063 8.47064 17.3055 8.61822 17.4172L12.0209 21.3011C11.9806 21.1745 11.6856 20.2453 11.3073 19.0535Z" fill="#8BCAFF"/>
<path d="M8.68963 8.64003L8.59314 6.1291H8.59131C8.06177 6.05531 7.61316 6.29903 7.29547 6.55739C7.08142 6.78883 6.95105 7.09059 6.95105 7.4211C6.95105 8.22493 7.81695 8.85902 8.69165 8.72169C8.69092 8.69441 8.68963 8.66731 8.68963 8.64003Z" fill="#FFBD86"/>
<path d="M8.68634 8.5547C8.2478 8.32472 7.93561 7.90358 7.93561 7.4211C7.93561 7.09059 8.06598 6.78883 8.28003 6.55739C8.37561 6.47975 8.48309 6.4034 8.60101 6.33675L8.59314 6.1291H8.59131C8.06177 6.05531 7.61334 6.29903 7.29547 6.55739C7.08142 6.78883 6.95105 7.09059 6.95105 7.4211C6.95105 8.22493 7.81695 8.85902 8.69165 8.72151C8.69092 8.69441 8.68963 8.66731 8.68963 8.64003L8.68634 8.5547Z" fill="#F6A96C"/>
<path d="M16.7453 6.5564C16.4487 6.28742 15.9893 6.05213 15.4504 6.12903H15.4485L15.3521 8.60681C15.3521 8.64508 15.3504 8.68317 15.3491 8.72125C16.224 8.85932 17.0906 8.22522 17.0906 7.42102C17.0905 7.08997 16.9599 6.78785 16.7453 6.5564Z" fill="#FFBD86"/>
<path d="M16.4349 6.33021C16.1643 6.17421 15.8268 6.07533 15.4504 6.12898H15.4485L15.3521 8.60676C15.3521 8.64503 15.3504 8.68311 15.3491 8.7212C15.7379 8.78254 16.1248 8.69117 16.4349 8.50037V6.33021Z" fill="#F6A96C"/>
<path d="M14.5184 6.12909C14.4109 6.12909 14.4029 6.12634 13.8076 6.0758C13.0074 6.00787 12.3148 5.46368 12.0959 4.69098C12.0892 4.66699 12.0829 4.64282 12.0769 4.61865C12.0707 4.59265 12.0478 4.57397 12.0209 4.57397C11.9941 4.57397 11.9712 4.59265 11.9648 4.61865C11.959 4.64319 11.9526 4.66754 11.9456 4.69171C11.7246 5.47082 11.0228 6.01739 10.2153 6.0791C10.2636 6.07544 9.60608 6.1289 9.48926 6.1289H8.59314V8.64001C8.59314 10.4015 9.97009 12.0119 12.056 12.0188C13.9219 12.0251 15.4486 10.4727 15.4486 8.60668V6.1289H14.5184V6.12909Z" fill="#FED2A4"/>
<path d="M10.0419 8.64001V6.09302C9.85071 6.10785 9.56286 6.12909 9.48926 6.12909H8.59314V8.64001C8.59314 10.4017 9.97009 12.0119 12.056 12.0189C12.2981 12.0198 12.5341 11.9938 12.7623 11.9449C11.0984 11.6098 10.0419 10.183 10.0419 8.64001Z" fill="#FFBD86"/>
<path d="M20.9061 23.3718V17.7378C20.9061 16.4041 20.052 15.2383 19.0208 14.8138L14.6212 13.1099L12.0209 21.3011V24H20.2778C20.6248 24 20.9061 23.7188 20.9061 23.3718Z" fill="#D9EDFF"/>
<path d="M18.3525 24.0001V18.3207C18.3525 18.1207 18.1902 17.9585 17.9903 17.9585C17.7902 17.9585 17.6279 18.1207 17.6279 18.3207V24.0001H18.3525Z" fill="#B4DBFF"/>
<path d="M15.0181 20.4708C14.8181 20.4708 14.6559 20.3085 14.6559 20.1086V17.3697C14.6559 17.1696 14.8181 17.0073 15.0181 17.0073C15.2182 17.0073 15.3802 17.1696 15.3802 17.3697V20.1086C15.3802 20.3085 15.2182 20.4708 15.0181 20.4708Z" fill="#685E68"/>
<path d="M16.8843 23.9999V21.6124C16.8843 20.5835 16.0472 19.7463 15.0181 19.7463C13.9893 19.7463 13.1521 20.5835 13.1521 21.6124V23.9999H13.8765V21.6124C13.8765 20.9828 14.3886 20.4707 15.0181 20.4707C15.6478 20.4707 16.16 20.9828 16.16 21.6124V23.9999H16.8843Z" fill="#685E68"/>
<path d="M15.319 15.683L16.1092 15.0914C16.2092 15.0165 16.2682 14.8988 16.2682 14.7739V13.7478L14.6212 13.1099L12.0209 21.3011L15.4233 17.4172C15.5709 17.3055 15.6216 17.1063 15.5453 16.9377L15.1954 16.1641C15.1186 15.9945 15.1701 15.7946 15.319 15.683Z" fill="#B4DBFF"/>
</svg>
