<svg width="14" height="18" viewBox="0 0 14 18" fill="none" xmlns="http://www.w3.org/2000/svg">
<path d="M4.49967 7.33341H5.33301C5.55402 7.33341 5.76598 7.24562 5.92226 7.08934C6.07854 6.93306 6.16634 6.7211 6.16634 6.50008C6.16634 6.27907 6.07854 6.06711 5.92226 5.91083C5.76598 5.75455 5.55402 5.66675 5.33301 5.66675H4.49967C4.27866 5.66675 4.0667 5.75455 3.91042 5.91083C3.75414 6.06711 3.66634 6.27907 3.66634 6.50008C3.66634 6.7211 3.75414 6.93306 3.91042 7.08934C4.0667 7.24562 4.27866 7.33341 4.49967 7.33341ZM9.49967 9.00008H4.49967C4.27866 9.00008 4.0667 9.08788 3.91042 9.24416C3.75414 9.40044 3.66634 9.6124 3.66634 9.83341C3.66634 10.0544 3.75414 10.2664 3.91042 10.4227C4.0667 10.5789 4.27866 10.6667 4.49967 10.6667H9.49967C9.72069 10.6667 9.93265 10.5789 10.0889 10.4227C10.2452 10.2664 10.333 10.0544 10.333 9.83341C10.333 9.6124 10.2452 9.40044 10.0889 9.24416C9.93265 9.08788 9.72069 9.00008 9.49967 9.00008ZM9.49967 12.3334H4.49967C4.27866 12.3334 4.0667 12.4212 3.91042 12.5775C3.75414 12.7338 3.66634 12.9457 3.66634 13.1667C3.66634 13.3878 3.75414 13.5997 3.91042 13.756C4.0667 13.9123 4.27866 14.0001 4.49967 14.0001H9.49967C9.72069 14.0001 9.93265 13.9123 10.0889 13.756C10.2452 13.5997 10.333 13.3878 10.333 13.1667C10.333 12.9457 10.2452 12.7338 10.0889 12.5775C9.93265 12.4212 9.72069 12.3334 9.49967 12.3334ZM13.4247 15.9084C13.3851 15.8726 13.3433 15.8392 13.2997 15.8084C13.2532 15.7769 13.2028 15.7517 13.1497 15.7334L12.9997 15.6667C12.8372 15.635 12.6689 15.6524 12.5163 15.7167C12.4129 15.7542 12.319 15.8139 12.2412 15.8917C12.1635 15.9694 12.1038 16.0633 12.0663 16.1667C12.0171 16.2707 11.9942 16.3852 11.9997 16.5001C11.9982 16.6241 12.0244 16.7468 12.0764 16.8593C12.1284 16.9719 12.2049 17.0714 12.3002 17.1507C12.3955 17.2299 12.5074 17.2869 12.6275 17.3175C12.7477 17.3481 12.8731 17.3514 12.9947 17.3274C13.1164 17.3033 13.2311 17.2524 13.3305 17.1784C13.43 17.1043 13.5117 17.009 13.5696 16.8994C13.6276 16.7898 13.6604 16.6687 13.6656 16.5448C13.6707 16.421 13.6482 16.2975 13.5997 16.1834C13.5575 16.0824 13.4983 15.9894 13.4247 15.9084ZM13.6663 6.45008C13.6577 6.37353 13.6409 6.29811 13.6163 6.22508V6.15008C13.5763 6.0644 13.5228 5.98564 13.458 5.91675L8.45801 0.916748C8.38912 0.851928 8.31036 0.798482 8.22467 0.758415C8.1998 0.754881 8.17455 0.754881 8.14967 0.758415C8.06502 0.709866 7.97153 0.678702 7.87467 0.666748H2.83301C2.16997 0.666748 1.53408 0.93014 1.06524 1.39898C0.5964 1.86782 0.333008 2.50371 0.333008 3.16675V14.8334C0.333008 15.4965 0.5964 16.1323 1.06524 16.6012C1.53408 17.07 2.16997 17.3334 2.83301 17.3334H9.49967C9.72069 17.3334 9.93265 17.2456 10.0889 17.0893C10.2452 16.9331 10.333 16.7211 10.333 16.5001C10.333 16.2791 10.2452 16.0671 10.0889 15.9108C9.93265 15.7545 9.72069 15.6667 9.49967 15.6667H2.83301C2.61199 15.6667 2.40003 15.579 2.24375 15.4227C2.08747 15.2664 1.99967 15.0544 1.99967 14.8334V3.16675C1.99967 2.94573 2.08747 2.73377 2.24375 2.57749C2.40003 2.42121 2.61199 2.33341 2.83301 2.33341H6.99967V4.83341C6.99967 5.49646 7.26307 6.13234 7.73191 6.60118C8.20075 7.07002 8.83663 7.33341 9.49967 7.33341H11.9997V9.00008C11.9997 9.2211 12.0875 9.43306 12.2438 9.58934C12.4 9.74562 12.612 9.83341 12.833 9.83341C13.054 9.83341 13.266 9.74562 13.4223 9.58934C13.5785 9.43306 13.6663 9.2211 13.6663 9.00008V6.50008C13.6663 6.50008 13.6663 6.50008 13.6663 6.45008ZM9.49967 5.66675C9.27866 5.66675 9.0667 5.57895 8.91042 5.42267C8.75414 5.26639 8.66634 5.05443 8.66634 4.83341V3.50841L10.8247 5.66675H9.49967ZM12.833 11.5001C12.612 11.5001 12.4 11.5879 12.2438 11.7442C12.0875 11.9004 11.9997 12.1124 11.9997 12.3334V14.0001C11.9997 14.2211 12.0875 14.4331 12.2438 14.5893C12.4 14.7456 12.612 14.8334 12.833 14.8334C13.054 14.8334 13.266 14.7456 13.4223 14.5893C13.5785 14.4331 13.6663 14.2211 13.6663 14.0001V12.3334C13.6663 12.1124 13.5785 11.9004 13.4223 11.7442C13.266 11.5879 13.054 11.5001 12.833 11.5001Z" fill="#537DA5"/>
</svg>
