<svg width="24" height="24" viewBox="0 0 24 24" fill="none" xmlns="http://www.w3.org/2000/svg">
<g clip-path="url(#clip0_1935_61983)">
<path d="M23.3836 1.99582C23.0743 1.16982 22.2157 0.626222 21.0582 1.34878C20.1236 2.09099 19.0633 2.67803 17.9181 3.07629C17.9204 3.07759 17.9225 3.07904 17.9247 3.08033C17.1905 2.64612 16.3202 2.47901 15.465 2.61235C10.6559 3.36335 5.62589 2.40753 2.66273 4.79191C-1.71088 8.31315 -0.203699 18.7057 3.6408 21.93C7.42789 25.1047 7.75942 20.3152 10.5917 18.312C11.9572 17.3464 14.8841 16.4087 17.7113 14.8431C18.8441 14.2159 19.7477 13.2828 20.3316 12.181C20.3318 12.1812 20.3316 12.182 20.332 12.182C22.8436 10.397 25.1375 6.67822 23.3836 1.99582Z" fill="#FF6D7A"/>
<path d="M23.3834 1.99582C25.1373 6.67822 22.8435 10.397 20.3318 12.182C20.293 12.182 21.0425 11.096 21.0715 9.31863C21.0751 9.10191 21.0678 8.89864 21.0472 8.71606C20.7999 6.56029 19.7675 4.93415 18.8371 3.84643C18.5712 3.5361 18.2599 3.27749 17.918 3.07629C19.0631 2.67803 20.1234 2.09099 21.058 1.34878C22.2156 0.626222 23.0741 1.16982 23.3834 1.99582Z" fill="#FE4F60"/>
<path d="M17.7794 3.00785C18.2823 3.29196 18.1551 4.06738 17.5337 4.164C12.7246 4.915 7.69464 3.95918 4.73149 6.34356C2.48727 8.15032 1.79145 11.7663 2.16535 15.2946C2.28535 16.4272 0.625588 16.6895 0.387149 15.5758C-0.483332 11.5092 0.0472843 6.8975 2.66261 4.7919C5.62576 2.40752 10.6557 3.36334 15.4648 2.61233C16.3028 2.48163 17.0742 2.60959 17.7794 3.00785Z" fill="#FF8C95"/>
<path d="M6.84931 6.78542C6.45425 6.78542 6.28362 6.28155 6.59866 6.04213C6.62613 6.02128 6.65369 6.00049 6.68137 5.9799C6.86467 5.84336 7.1239 5.88137 7.26034 6.06462C7.39684 6.24788 7.35892 6.50711 7.17562 6.6436C7.0775 6.71684 7.00209 6.78542 6.84931 6.78542Z" fill="white"/>
<path d="M2.95826 12.8916C2.69334 12.8916 2.49695 12.6466 2.55379 12.3888C2.97631 10.4704 3.89748 8.70723 5.21753 7.28994C5.37321 7.12278 5.63503 7.11342 5.80235 7.2692C5.96957 7.42494 5.97888 7.68675 5.82309 7.85402C4.60374 9.16316 3.75271 10.7928 3.36195 12.5668C3.31938 12.76 3.14823 12.8916 2.95826 12.8916Z" fill="white"/>
<path d="M14.1329 21.864L12.6147 22.323C12.3714 22.3965 12.1197 22.2358 12.0853 21.9839C11.6904 19.085 10.054 16.6025 7.56171 15.0013C7.39253 14.8925 7.3256 14.6786 7.40323 14.4931L8.11203 12.8002C8.20658 12.5743 8.47585 12.4786 8.69075 12.596C9.2224 12.8864 9.74252 13.2062 10.2546 13.5608C10.4658 13.7071 10.757 13.6299 10.866 13.3973C11.2244 12.6328 11.6893 11.9191 12.2427 11.284C12.3758 11.1311 12.5998 11.0971 12.7723 11.2037L14.0213 11.975C14.2235 12.1 14.2786 12.3685 14.1431 12.5639C13.8522 12.9828 13.5367 13.5472 13.3292 14.2518C12.9118 15.6685 13.1591 16.8772 13.4989 18.4444C13.6611 19.1914 13.9292 20.1802 14.3951 21.3095C14.4885 21.5357 14.3671 21.7932 14.1329 21.864Z" fill="#FE4F60"/>
<path d="M21.9936 2.31724C21.8914 2.36333 21.7863 2.41955 21.6787 2.48674C21.0634 2.97515 20.394 3.39632 19.6816 3.74074C19.3101 3.92037 18.8652 3.84822 18.5666 3.56344C18.3838 3.38913 18.178 3.22936 17.918 3.07632C19.0631 2.67806 20.1234 2.09101 21.058 1.3488C21.21 1.25389 21.3609 1.17683 21.5094 1.11967C22.2857 0.820927 22.7521 1.97552 21.9936 2.31724Z" fill="#FF6D7A"/>
</g>
<defs>
<clipPath id="clip0_1935_61983">
<rect width="24" height="24" fill="white"/>
</clipPath>
</defs>
</svg>
