<svg width="18" height="18" viewBox="0 0 18 18" fill="none" xmlns="http://www.w3.org/2000/svg">
<path d="M8.40866 11.7417C8.37282 11.7813 8.33943 11.8231 8.30866 11.8667C8.27712 11.9132 8.2519 11.9636 8.23366 12.0167C8.20964 12.064 8.19278 12.1145 8.18366 12.1667C8.17957 12.2222 8.17957 12.2779 8.18366 12.3334C8.18085 12.4427 8.20368 12.5512 8.25033 12.6501C8.28776 12.7535 8.34747 12.8474 8.42523 12.9252C8.503 13.0029 8.59692 13.0627 8.70033 13.1001C8.80008 13.1442 8.90794 13.1669 9.017 13.1669C9.12606 13.1669 9.23391 13.1442 9.33366 13.1001C9.43708 13.0627 9.53099 13.0029 9.60876 12.9252C9.68652 12.8474 9.74624 12.7535 9.78366 12.6501C9.82067 12.5488 9.83765 12.4412 9.83366 12.3334C9.8343 12.2237 9.81328 12.115 9.7718 12.0135C9.73033 11.912 9.66923 11.8196 9.592 11.7417C9.51453 11.6636 9.42236 11.6016 9.32081 11.5593C9.21926 11.517 9.11034 11.4952 9.00033 11.4952C8.89032 11.4952 8.7814 11.517 8.67985 11.5593C8.5783 11.6016 8.48613 11.6636 8.40866 11.7417ZM9.00033 0.666748C7.35215 0.666748 5.74099 1.15549 4.37058 2.07117C3.00017 2.98685 1.93206 4.28834 1.30133 5.81105C0.670603 7.33377 0.505575 9.00933 0.827119 10.6258C1.14866 12.2423 1.94234 13.7272 3.10777 14.8926C4.27321 16.0581 5.75807 16.8517 7.37458 17.1733C8.99109 17.4948 10.6666 17.3298 12.1894 16.6991C13.7121 16.0683 15.0136 15.0002 15.9292 13.6298C16.8449 12.2594 17.3337 10.6483 17.3337 9.00008C17.3337 7.90573 17.1181 6.8221 16.6993 5.81105C16.2805 4.80001 15.6667 3.88135 14.8929 3.10752C14.1191 2.3337 13.2004 1.71987 12.1894 1.30109C11.1783 0.882296 10.0947 0.666748 9.00033 0.666748ZM9.00033 15.6667C7.68179 15.6667 6.39286 15.2758 5.29653 14.5432C4.2002 13.8107 3.34572 12.7695 2.84113 11.5513C2.33655 10.3331 2.20453 8.99269 2.46176 7.69948C2.719 6.40627 3.35393 5.21839 4.28628 4.28604C5.21863 3.35369 6.40652 2.71875 7.69973 2.46151C8.99293 2.20428 10.3334 2.3363 11.5516 2.84088C12.7697 3.34547 13.8109 4.19995 14.5435 5.29628C15.276 6.39261 15.667 7.68154 15.667 9.00008C15.667 10.7682 14.9646 12.4639 13.7144 13.7141C12.4641 14.9644 10.7684 15.6667 9.00033 15.6667ZM9.00033 4.83342C8.56122 4.83313 8.12977 4.94852 7.74942 5.16795C7.36907 5.38739 7.05322 5.70313 6.83366 6.08342C6.77337 6.17826 6.73288 6.28433 6.71464 6.39523C6.6964 6.50613 6.70078 6.61957 6.72752 6.72874C6.75426 6.8379 6.8028 6.94053 6.87023 7.03044C6.93766 7.12036 7.02258 7.19571 7.11989 7.25195C7.21719 7.3082 7.32487 7.34418 7.43644 7.35773C7.54801 7.37128 7.66117 7.36213 7.76911 7.33081C7.87705 7.2995 7.97754 7.24667 8.06454 7.17551C8.15153 7.10436 8.22323 7.01634 8.27533 6.91675C8.34875 6.78958 8.45447 6.68407 8.58178 6.6109C8.7091 6.53773 8.85349 6.4995 9.00033 6.50008C9.22134 6.50008 9.4333 6.58788 9.58958 6.74416C9.74586 6.90044 9.83366 7.1124 9.83366 7.33342C9.83366 7.55443 9.74586 7.76639 9.58958 7.92267C9.4333 8.07895 9.22134 8.16675 9.00033 8.16675C8.77932 8.16675 8.56735 8.25455 8.41107 8.41083C8.25479 8.56711 8.167 8.77907 8.167 9.00008V9.83342C8.167 10.0544 8.25479 10.2664 8.41107 10.4227C8.56735 10.579 8.77932 10.6667 9.00033 10.6667C9.22134 10.6667 9.4333 10.579 9.58958 10.4227C9.74586 10.2664 9.83366 10.0544 9.83366 9.83342V9.68341C10.3848 9.48343 10.8481 9.0961 11.1426 8.58914C11.4372 8.08217 11.5441 7.48782 11.4448 6.90999C11.3455 6.33216 11.0463 5.8076 10.5995 5.42801C10.1527 5.04843 9.58661 4.83796 9.00033 4.83342Z" fill="#537DA5"/>
</svg>
