<svg width="24" height="24" viewBox="0 0 24 24" fill="none" xmlns="http://www.w3.org/2000/svg">
<g clip-path="url(#clip0_431_37899)">
<path fill-rule="evenodd" clip-rule="evenodd" d="M7.91337 22.4172V7.12402L0.898387 7.60721C0.895621 7.60721 0.892902 7.60721 0.890137 7.60721V22.2723C0.890137 22.3524 0.955012 22.4172 1.03503 22.4172H7.91337Z" fill="#BEB9DD"/>
<path fill-rule="evenodd" clip-rule="evenodd" d="M23.1016 7.60721L16.0867 7.12402V22.4172H22.965C23.045 22.4172 23.1099 22.3524 23.1099 22.2723V7.60721C23.1071 7.60721 23.1044 7.60857 23.1016 7.60721Z" fill="#BEB9DD"/>
<path fill-rule="evenodd" clip-rule="evenodd" d="M16.5724 5.8145V7.60723H23.1017H23.1099C23.5997 7.60311 24.0001 7.20228 24.0001 6.71084C24.0001 6.21805 23.5956 5.81445 23.1017 5.81445H16.5724V5.8145Z" fill="#EB5468"/>
<path fill-rule="evenodd" clip-rule="evenodd" d="M0.890137 8.7273H5.87862C6.59675 8.7273 6.47431 9.10066 6.47431 9.82544V22.4171H7.4277V7.60718H0.898387C0.895621 7.60718 0.892902 7.60718 0.890137 7.60718V8.7273Z" fill="#A7A2D3"/>
<path fill-rule="evenodd" clip-rule="evenodd" d="M22.8018 6.71084C22.8018 7.20228 22.4014 7.60311 21.9117 7.60723H23.1017H23.11C23.5997 7.60311 24.0001 7.20228 24.0001 6.71084C24.0001 6.21805 23.5956 5.81445 23.1017 5.81445H21.9034C22.3973 5.8145 22.8018 6.21805 22.8018 6.71084Z" fill="#E5384F"/>
<path fill-rule="evenodd" clip-rule="evenodd" d="M23.1017 7.60718H21.9117H16.5724V8.7273H21.3242C21.737 8.7273 21.9117 8.71905 21.9117 9.17069V22.4172H22.9651C23.0451 22.4172 23.11 22.3523 23.11 22.2723V7.60718C23.1072 7.60718 23.1045 7.60718 23.1017 7.60718Z" fill="#A7A2D3"/>
<path fill-rule="evenodd" clip-rule="evenodd" d="M16.5721 3.37546V22.4175H14.656V16.9004H9.34409V22.4175H7.42798V3.37546L11.8634 2.82642L16.5721 3.37546Z" fill="#F9F7F8"/>
<path fill-rule="evenodd" clip-rule="evenodd" d="M2.53687 14.0012H5.7809V16.0644H2.53687V14.0012Z" fill="#B1E4F9"/>
<path fill-rule="evenodd" clip-rule="evenodd" d="M2.53687 9.66504H5.7809V11.7282H2.53687V9.66504Z" fill="#B1E4F9"/>
<path fill-rule="evenodd" clip-rule="evenodd" d="M18.2178 9.66504H21.4632V11.7282H18.2178V9.66504Z" fill="#B1E4F9"/>
<path fill-rule="evenodd" clip-rule="evenodd" d="M18.2178 14.0012H21.4632V16.0644H18.2178V14.0012Z" fill="#B1E4F9"/>
<path fill-rule="evenodd" clip-rule="evenodd" d="M18.2178 18.3389H21.4632V20.4007H18.2178V18.3389Z" fill="#B1E4F9"/>
<path fill-rule="evenodd" clip-rule="evenodd" d="M2.53687 18.3389H5.7809V20.4007H2.53687V18.3389Z" fill="#B1E4F9"/>
<path fill-rule="evenodd" clip-rule="evenodd" d="M2.53687 9.66504H5.7809V10.4283H2.53687V9.66504Z" fill="#75CEF8"/>
<path fill-rule="evenodd" clip-rule="evenodd" d="M2.53687 14.0012H5.7809V14.7644H2.53687V14.0012Z" fill="#75CEF8"/>
<path fill-rule="evenodd" clip-rule="evenodd" d="M2.53687 18.3389H5.7809V19.1007H2.53687V18.3389Z" fill="#75CEF8"/>
<path fill-rule="evenodd" clip-rule="evenodd" d="M18.2178 18.3389H21.4632V19.1007H18.2178V18.3389Z" fill="#75CEF8"/>
<path fill-rule="evenodd" clip-rule="evenodd" d="M18.2178 14.0012H21.4632V14.7644H18.2178V14.0012Z" fill="#75CEF8"/>
<path fill-rule="evenodd" clip-rule="evenodd" d="M18.2178 9.66504H21.4632V10.4283H18.2178V9.66504Z" fill="#75CEF8"/>
<path d="M21.4631 16.4266H18.2177C18.0177 16.4266 17.8556 16.2645 17.8556 16.0645V14.0013C17.8556 13.8013 18.0177 13.6392 18.2177 13.6392H21.4631C21.6632 13.6392 21.8252 13.8013 21.8252 14.0013V16.0645C21.8253 16.2645 21.6632 16.4266 21.4631 16.4266ZM18.5799 15.7023H21.1009V14.3635H18.5799V15.7023Z" fill="#F9F7F8"/>
<path d="M21.4631 20.7629H18.2177C18.0177 20.7629 17.8556 20.6007 17.8556 20.4007V18.339C17.8556 18.1389 18.0177 17.9768 18.2177 17.9768H21.4631C21.6632 17.9768 21.8252 18.1389 21.8252 18.339V20.4007C21.8253 20.6007 21.6632 20.7629 21.4631 20.7629ZM18.5799 20.0386H21.1009V18.7011H18.5799V20.0386Z" fill="#F9F7F8"/>
<path fill-rule="evenodd" clip-rule="evenodd" d="M7.42773 4.48163H14.3725C15.0467 4.48163 15.2668 4.41437 15.2668 5.12818V6.91956V8.71365V22.4173H16.0867H16.5723V8.72738V7.60726V7.15703V5.81453V3.37524H7.42773V4.48163Z" fill="#DDDAEC"/>
<path fill-rule="evenodd" clip-rule="evenodd" d="M16.9066 1.58252H6.9572C6.46332 1.58252 6.05884 1.98611 6.05884 2.47891C6.05884 2.97171 6.46332 3.3753 6.9572 3.3753H7.42768H16.5723H16.9066C17.4005 3.3753 17.805 2.97171 17.805 2.47891C17.805 1.98607 17.4005 1.58252 16.9066 1.58252Z" fill="#EB5468"/>
<path fill-rule="evenodd" clip-rule="evenodd" d="M15.6011 1.58252C16.0949 1.58252 16.4994 1.98611 16.4994 2.47891C16.4994 2.97171 16.0949 3.3753 15.6011 3.3753H16.5724H16.9067C17.4006 3.3753 17.805 2.97171 17.805 2.47891C17.805 1.98611 17.4006 1.58252 16.9067 1.58252H15.6011Z" fill="#E5384F"/>
<path fill-rule="evenodd" clip-rule="evenodd" d="M9.34412 16.9004H11.9996V22.4175H9.34412V16.9004Z" fill="#B1E4F9"/>
<path fill-rule="evenodd" clip-rule="evenodd" d="M11.9995 16.9004H14.6559V22.4175H11.9995V16.9004Z" fill="#B1E4F9"/>
<path fill-rule="evenodd" clip-rule="evenodd" d="M9.34412 17.643H11.2372H11.9993V16.9004H9.34412V17.643Z" fill="#75CEF8"/>
<path fill-rule="evenodd" clip-rule="evenodd" d="M11.9993 16.9004V17.643H13.5539C13.9818 17.643 13.8923 17.7693 13.8923 18.2195V22.4172H14.6559V16.9004H11.9993Z" fill="#75CEF8"/>
<path d="M5.78095 12.0902H2.53696C2.3369 12.0902 2.1748 11.9281 2.1748 11.728V9.66489C2.1748 9.46487 2.33695 9.30273 2.53696 9.30273H5.78095C5.98101 9.30273 6.1431 9.46487 6.1431 9.66489V11.728C6.1431 11.9281 5.98101 12.0902 5.78095 12.0902ZM2.89912 11.3659H5.41879V10.0271H2.89912V11.3659Z" fill="#F9F7F8"/>
<path d="M5.78095 16.4266H2.53696C2.3369 16.4266 2.1748 16.2645 2.1748 16.0645V14.0013C2.1748 13.8013 2.33695 13.6392 2.53696 13.6392H5.78095C5.98101 13.6392 6.1431 13.8013 6.1431 14.0013V16.0645C6.1431 16.2645 5.98101 16.4266 5.78095 16.4266ZM2.89912 15.7023H5.41879V14.3635H2.89912V15.7023Z" fill="#F9F7F8"/>
<path d="M5.78095 20.7629H2.53696C2.3369 20.7629 2.1748 20.6007 2.1748 20.4007V18.339C2.1748 18.1389 2.33695 17.9768 2.53696 17.9768H5.78095C5.98101 17.9768 6.1431 18.1389 6.1431 18.339V20.4007C6.1431 20.6007 5.98101 20.7629 5.78095 20.7629ZM2.89912 20.0386H5.41879V18.7011H2.89912V20.0386Z" fill="#F9F7F8"/>
<path d="M21.4631 12.0902H18.2177C18.0177 12.0902 17.8556 11.9281 17.8556 11.728V9.66489C17.8556 9.46487 18.0177 9.30273 18.2177 9.30273H21.4631C21.6632 9.30273 21.8252 9.46487 21.8252 9.66489V11.728C21.8253 11.9281 21.6632 12.0902 21.4631 12.0902ZM18.5799 11.3659H21.1009V10.0271H18.5799V11.3659Z" fill="#F9F7F8"/>
<path d="M15.0181 16.9002V22.4173H14.2937V17.2624H12.3616V22.4173H11.6373V17.2624H9.70617V22.4173H8.98181V16.9002C8.98181 16.7003 9.14405 16.5381 9.34397 16.5381H14.6558C14.8559 16.5381 15.0181 16.7003 15.0181 16.9002Z" fill="#375E7D"/>
<path fill-rule="evenodd" clip-rule="evenodd" d="M12.7492 5.86523H11.2496C11.178 5.86523 11.1202 5.92425 11.1202 5.99564V7.37522H9.73762C9.66468 7.37522 9.60693 7.43423 9.60693 7.50562V9.00188C9.60693 9.07327 9.66473 9.13092 9.73762 9.13092H11.1202V10.5119C11.1202 10.5833 11.178 10.6409 11.2496 10.6409H12.7492C12.8207 10.6409 12.8798 10.5833 12.8798 10.5119V9.13092H14.2625C14.334 9.13092 14.3932 9.07327 14.3932 9.00188V7.50562C14.3932 7.43423 14.334 7.37522 14.2625 7.37522H12.8798V5.99564C12.8798 5.9243 12.8207 5.86523 12.7492 5.86523Z" fill="#EB5468"/>
<path fill-rule="evenodd" clip-rule="evenodd" d="M12.7492 5.86523H11.6582C11.9086 6.43355 12.0599 7.17206 12.0599 7.9778C12.0599 9.08006 11.7779 10.0533 11.3459 10.6408H12.7492C12.8207 10.6408 12.8799 10.5832 12.8799 10.5118V9.13083H14.2625C14.334 9.13083 14.3932 9.07317 14.3932 9.00178V7.50553C14.3932 7.43414 14.334 7.37512 14.2625 7.37512H12.8799V5.99555C12.8799 5.9243 12.8207 5.86523 12.7492 5.86523Z" fill="#E5384F"/>
<path d="M13.5305 12.8728H10.4695C10.2694 12.8728 10.1073 12.7106 10.1073 12.5106C10.1073 12.3106 10.2694 12.1484 10.4695 12.1484H13.5305C13.7305 12.1484 13.8926 12.3106 13.8926 12.5106C13.8926 12.7106 13.7305 12.8728 13.5305 12.8728Z" fill="#60B7FF"/>
<path d="M13.5305 14.583H10.4695C10.2694 14.583 10.1073 14.4208 10.1073 14.2208C10.1073 14.0208 10.2694 13.8586 10.4695 13.8586H13.5305C13.7305 13.8586 13.8926 14.0208 13.8926 14.2208C13.8926 14.4208 13.7305 14.583 13.5305 14.583Z" fill="#60B7FF"/>
<path fill-rule="evenodd" clip-rule="evenodd" d="M0 6.7108C0 7.20223 0.400359 7.60306 0.890109 7.60719H0.898359H7.42767V5.81445H0.898359C0.404484 5.81445 0 6.218 0 6.7108H0Z" fill="#EB5468"/>
<path fill-rule="evenodd" clip-rule="evenodd" d="M6.47424 5.81445V7.22281V7.60719H7.42763V7.15695V5.81445H6.47424Z" fill="#E5384F"/>
</g>
<defs>
<clipPath id="clip0_431_37899">
<rect width="24" height="24" fill="white"/>
</clipPath>
</defs>
</svg>
