<svg width="24" height="24" viewBox="0 0 24 24" fill="none" xmlns="http://www.w3.org/2000/svg">
<g clip-path="url(#clip0_1935_62055)">
<path d="M2.99561 18.4363V23.6341C2.99561 23.8154 3.14246 23.9622 3.32355 23.9622H4.00708C4.18817 23.9622 4.33502 23.8154 4.33502 23.6341V18.4363H2.99561Z" fill="#537DA5"/>
<path d="M19.665 18.4363V23.6341C19.665 23.8154 19.8119 23.9622 19.993 23.9622H20.6765C20.8576 23.9622 21.0045 23.8154 21.0045 23.6341V18.4363H19.665Z" fill="#AA493F"/>
<path d="M3.90417 23.6341V18.4363H2.99561V23.6341C2.99561 23.8154 3.14246 23.9622 3.32355 23.9622H4.00708C4.04663 23.9622 4.08453 23.9547 4.11969 23.9419C3.99408 23.8959 3.90417 23.7756 3.90417 23.6341Z" fill="#993B36"/>
<path d="M20.5736 23.6341V18.4363H19.665V23.6341C19.665 23.8154 19.8119 23.9622 19.993 23.9622H20.6765C20.7161 23.9622 20.754 23.9547 20.7891 23.9419C20.6635 23.8959 20.5736 23.7756 20.5736 23.6341Z" fill="#993B36"/>
<path d="M23.5785 0H20.0189C19.8796 0 19.7675 0.0386353 19.6864 0.154541L18.0621 2.47412C17.9474 2.638 17.9872 2.86395 18.151 2.97858C18.2142 3.02289 18.2867 3.04413 18.3585 3.04413C18.4726 3.04413 18.585 2.9903 18.6555 2.88959L20.1716 0.724365H23.5785C23.7784 0.724365 23.9407 0.562134 23.9407 0.362183C23.9407 0.162048 23.7786 0 23.5785 0Z" fill="#DDE4F7"/>
<path d="M12.9466 2.14319C12.6856 2.73975 12.8486 3.43829 13.3727 3.80505C13.8967 4.172 14.6088 4.0863 15.0801 3.63715L12.9466 2.14319Z" fill="#FEC13B"/>
<path d="M15.7171 4.08301C15.4562 4.67957 15.6191 5.37811 16.1432 5.74506C16.667 6.11182 17.3793 6.02612 17.8506 5.57697L15.7171 4.08301Z" fill="#FEC13B"/>
<path d="M18.4876 6.02283C18.2267 6.61938 18.3896 7.31793 18.9137 7.68488C19.4375 8.05164 20.1498 7.96594 20.6211 7.51678L18.4876 6.02283Z" fill="#FEC13B"/>
<path d="M14.4015 3.80505C14.0584 3.56482 13.8713 3.18231 13.8553 2.77948L12.9466 2.14319C12.6856 2.73975 12.8486 3.43829 13.3727 3.80505C13.7469 4.06708 14.2168 4.09711 14.6268 3.92993C14.5489 3.89642 14.4733 3.85541 14.4015 3.80505Z" fill="#F9A332"/>
<path d="M17.172 5.74506C16.8289 5.50482 16.6418 5.12213 16.6258 4.7193L15.7171 4.08301C15.4562 4.67957 15.6191 5.37811 16.1432 5.74506C16.5174 6.00708 16.9873 6.03711 17.3973 5.86975C17.3194 5.83624 17.2438 5.79523 17.172 5.74506Z" fill="#F9A332"/>
<path d="M19.9425 7.68488C19.5993 7.44464 19.4122 7.06195 19.3963 6.65912L18.4875 6.02283C18.2268 6.61938 18.3895 7.31793 18.9136 7.68488C19.2879 7.9469 19.7577 7.97693 20.1677 7.80957C20.0899 7.77606 20.0142 7.73505 19.9425 7.68488Z" fill="#F9A332"/>
<path d="M23.3394 15.3567H0.660645C0.29718 15.3567 0 15.6539 0 16.0172V16.6778C0 17.0411 0.29718 17.3384 0.660645 17.3384H23.3394C23.7026 17.3384 24 17.0411 24 16.6778V16.0172C24 15.6539 23.7028 15.3567 23.3394 15.3567Z" fill="#B9E1FB"/>
<path d="M1.69025 16.6778V16.0172C1.69025 15.6539 1.98743 15.3567 2.35089 15.3567H0.660645C0.29718 15.3567 0 15.6539 0 16.0172V16.6778C0 17.0411 0.29718 17.3384 0.660645 17.3384H2.35071C1.98743 17.3384 1.69025 17.0411 1.69025 16.6778Z" fill="#9AD3F6"/>
<path d="M6.71558 14.6962V14.0356C6.71558 13.6723 6.4184 13.3751 6.05511 13.3751H0.660645C0.29718 13.3751 0 13.6723 0 14.0356V14.6962C0 15.0595 0.29718 15.3567 0.660645 15.3567H6.05511C6.4184 15.3567 6.71558 15.0595 6.71558 14.6962Z" fill="#9AD3F6"/>
<path d="M1.69025 14.6962V14.0356C1.69025 13.6723 1.98743 13.3751 2.35089 13.3751H0.660645C0.29718 13.3751 0 13.6723 0 14.0356V14.6962C0 15.0595 0.29718 15.3567 0.660645 15.3567H2.35071C1.98743 15.3567 1.69025 15.0595 1.69025 14.6962Z" fill="#78CBF4"/>
<path d="M0.972656 17.3384V18.0172C0.972656 18.3804 1.26984 18.6778 1.6333 18.6778H22.3671C22.7303 18.6778 23.0277 18.3804 23.0277 18.0172V17.3384H0.972656Z" fill="#B7594A"/>
<path d="M2.6629 18.0172V17.3384H0.972656V18.0172C0.972656 18.3804 1.26984 18.6778 1.6333 18.6778H3.32355C2.96008 18.6778 2.6629 18.3804 2.6629 18.0172Z" fill="#AA493F"/>
<path d="M21.5926 6.17747C21.5574 5.18669 21.1068 4.25194 20.2803 3.67314L16.6429 1.12633C15.8162 0.547532 14.7838 0.443711 13.8408 0.749497L21.5926 6.17747Z" fill="#CCD7F2"/>
<path d="M15.8612 1.17501C15.696 1.05947 15.6896 0.847983 15.7938 0.71395C15.1632 0.523154 14.4815 0.541648 13.8408 0.749472L21.5928 6.17727C21.5783 5.77334 21.4937 5.37911 21.3439 5.014L15.8612 1.17501Z" fill="#BCCCED"/>
<path d="M14.2742 8.41429C14.1103 8.29948 14.0704 8.07372 14.1852 7.90984L14.9557 6.80937C15.0705 6.64549 15.2963 6.60576 15.4601 6.72038C15.624 6.83519 15.6638 7.06114 15.549 7.22484L14.7784 8.3253C14.6638 8.48918 14.4381 8.5291 14.2742 8.41429Z" fill="#FCDFAE"/>
<path d="M16.1604 9.27551C15.9641 9.23651 15.8367 9.0459 15.8757 8.84961L16.1371 7.53198C16.1761 7.33569 16.3666 7.20825 16.5629 7.24725C16.7592 7.28626 16.8866 7.47687 16.8476 7.67297L16.5861 8.9906C16.5473 9.18671 16.3569 9.31433 16.1604 9.27551Z" fill="#FCDFAE"/>
<path d="M12.8197 6.93627C12.7158 6.76525 12.7706 6.5426 12.9416 6.43877L14.0904 5.74242C14.2614 5.63879 14.4841 5.69335 14.5879 5.86456C14.6915 6.03558 14.637 6.25823 14.4658 6.36205L13.3172 7.0584C13.1461 7.16186 12.9233 7.10748 12.8197 6.93627Z" fill="#FCDFAE"/>
<path d="M9.6275 9.815H1.06677C0.478638 9.815 0 9.33637 0 8.74823V3.08496C0 2.49664 0.478638 2.01819 1.06677 2.01819H9.6275C10.2158 2.01819 10.6943 2.49664 10.6943 3.08496V8.74823C10.6943 9.33637 10.2158 9.815 9.6275 9.815Z" fill="#DDE4F7"/>
<path d="M1.69025 8.74823V3.08496C1.69025 2.49664 2.16888 2.01819 2.75702 2.01819H1.06677C0.478638 2.01801 0 2.49664 0 3.08496V8.74823C0 9.33637 0.478638 9.815 1.06677 9.815H2.75702C2.16888 9.815 1.69025 9.33637 1.69025 8.74823Z" fill="#CCD7F2"/>
<path d="M9.23749 3.33508H1.4566C1.37952 3.33508 1.31689 3.39771 1.31689 3.47479V8.35822C1.31689 8.4353 1.37952 8.49792 1.4566 8.49792H9.23749C9.31458 8.49792 9.3772 8.4353 9.3772 8.35822V3.47479C9.3772 3.39771 9.31458 3.33508 9.23749 3.33508Z" fill="#63A1FC"/>
<path d="M3.00714 8.35822V3.47479C3.00714 3.39771 3.06958 3.33508 3.14685 3.33508H1.4566C1.37952 3.33508 1.31689 3.39771 1.31689 3.47479V8.35822C1.31689 8.4353 1.37952 8.49792 1.4566 8.49792H3.14685C3.06958 8.49792 3.00714 8.4353 3.00714 8.35822Z" fill="#4188FF"/>
<path d="M3.97644 5.12589C3.92242 5.18668 3.85321 5.17752 3.81 5.12369C3.48334 4.54819 2.59912 4.78 2.59912 5.44266C2.59912 6.34464 3.54724 6.88077 3.83783 7.02359C3.87335 7.04117 3.91492 7.04117 3.95026 7.02359C4.24103 6.88022 5.18933 6.34244 5.18933 5.44266C5.18915 4.78293 4.30768 4.54526 3.97644 5.12589Z" fill="#FF5155"/>
<path d="M3.93323 5.19528C3.93323 5.18265 3.93414 5.17056 3.93469 5.15811C3.8902 5.17935 3.84277 5.16434 3.81 5.12369C3.48334 4.54819 2.59912 4.78 2.59912 5.44266C2.59912 6.34464 3.54724 6.88077 3.83783 7.02359C3.87335 7.04117 3.91492 7.04117 3.95026 7.02359C4.1004 6.94962 4.42523 6.77036 4.70483 6.49075C4.34174 6.22177 3.93323 5.78726 3.93323 5.19528Z" fill="#F24049"/>
<path d="M7.88483 5.0033H6.45367C6.25354 5.0033 6.09131 4.84125 6.09131 4.64111C6.09131 4.44098 6.25354 4.27893 6.45367 4.27893H7.88483C8.08478 4.27893 8.24701 4.44098 8.24701 4.64111C8.24701 4.84125 8.08478 5.0033 7.88483 5.0033Z" fill="#4188FF"/>
<path d="M7.88483 6.27869H6.45367C6.25354 6.27869 6.09131 6.11646 6.09131 5.9165C6.09131 5.71637 6.25354 5.55432 6.45367 5.55432H7.88483C8.08478 5.55432 8.24701 5.71637 8.24701 5.9165C8.24701 6.11646 8.08478 6.27869 7.88483 6.27869Z" fill="#4188FF"/>
<path d="M7.88483 7.55396H6.45367C6.25354 7.55396 6.09131 7.39172 6.09131 7.19177C6.09131 6.99164 6.25354 6.82959 6.45367 6.82959H7.88483C8.08478 6.82959 8.24701 6.99164 8.24701 7.19177C8.24701 7.39172 8.08478 7.55396 7.88483 7.55396Z" fill="#4188FF"/>
<path d="M21.8197 7.62908L22.1081 7.21746C22.3165 6.91973 22.2434 6.50591 21.9459 6.29754L13.6391 0.481008C13.3414 0.272634 12.9274 0.34551 12.719 0.64324L12.4308 1.05486C12.2224 1.35241 12.2955 1.76641 12.593 1.97478L20.8998 7.79131C21.1975 7.99968 21.6115 7.92663 21.8197 7.62908Z" fill="#DDE4F7"/>
<path d="M14.2335 1.97478C13.936 1.76641 13.8629 1.35241 14.0713 1.05486L14.1989 0.872671L13.6395 0.481008C13.3418 0.272634 12.928 0.34551 12.7196 0.64324L12.4312 1.05486C12.223 1.35241 12.2959 1.76641 12.5934 1.97478L20.9002 7.79131C21.1979 7.99968 21.6119 7.92663 21.8203 7.62908L21.9809 7.39965L14.2335 1.97478Z" fill="#CCD7F2"/>
<path d="M5.19214 11.4149C5.19214 12.58 4.2475 13.5247 3.0824 13.5247C1.9173 13.5247 0.972656 12.58 0.972656 11.4149C0.972656 10.2496 1.9173 9.30518 3.0824 9.30518C4.2475 9.30518 5.19214 10.2496 5.19214 11.4149Z" fill="#FFCDBE"/>
<path d="M2.59497 11.415C2.59497 10.5372 3.1311 9.78497 3.89355 9.46692C3.6438 9.36292 3.36987 9.30505 3.0824 9.30505C1.9173 9.30505 0.972656 10.2497 0.972656 11.4148C0.972656 12.5801 1.9173 13.5245 3.0824 13.5245C3.36987 13.5245 3.6438 13.4669 3.89355 13.3627C3.1311 13.045 2.59497 12.2926 2.59497 11.415Z" fill="#F7C1B3"/>
<path d="M7.73675 13.2019C7.73675 13.1873 7.73803 13.173 7.73931 13.1589L6.30578 12.8445C5.87109 12.7386 5.43218 13.0051 5.32598 13.4401C5.21996 13.875 5.48657 14.3137 5.92162 14.4197L7.73675 14.8271C7.73675 13.9014 7.73675 13.2517 7.73675 13.2019Z" fill="#FFCDBE"/>
<path d="M6.79522 13.6165C6.854 13.3755 6.99261 13.1748 7.17571 13.0353L6.30578 12.8445C5.8709 12.7386 5.432 13.0051 5.32598 13.4401C5.21996 13.875 5.48657 14.3137 5.92162 14.4197L7.19366 14.7054C6.86297 14.464 6.69232 14.0389 6.79522 13.6165Z" fill="#F7C1B3"/>
<path d="M20.6953 13.7351H18.1509V15.3565H20.6953C21.143 15.3565 21.5061 14.9936 21.5061 14.5457C21.5061 14.098 21.143 13.7351 20.6953 13.7351Z" fill="#FFCDBE"/>
<path d="M19.6135 13.7351H18.1509V15.3565H19.6135C19.6135 14.6494 19.6135 14.0757 19.6135 13.7351Z" fill="#F7C1B3"/>
<path d="M17.8278 13.1707H9.96356C9.92621 13.1707 9.88886 13.1662 9.8526 13.1574L8.17059 12.7472C7.87598 12.6753 7.5918 12.8985 7.5918 13.2019V22.0001C7.5918 22.2584 7.80127 22.4679 8.05981 22.4679H17.8278C18.0863 22.4679 18.2958 22.2584 18.2958 22.0001C18.2958 21.9023 18.2958 13.8618 18.2958 13.6388C18.2958 13.3802 18.0863 13.1707 17.8278 13.1707Z" fill="#63A1FC"/>
<path d="M9.28827 22.0001C9.28827 21.8567 9.28827 13.3872 9.28827 13.2019C9.28827 13.1398 9.30072 13.0814 9.32214 13.0279L8.17059 12.7472C7.87598 12.6753 7.5918 12.8985 7.5918 13.2019V22.0001C7.5918 22.2584 7.80127 22.4679 8.05981 22.4679H9.75647C9.49792 22.4679 9.28827 22.2584 9.28827 22.0001Z" fill="#4188FF"/>
</g>
<defs>
<clipPath id="clip0_1935_62055">
<rect width="24" height="24" fill="white"/>
</clipPath>
</defs>
</svg>
