<svg width="14" height="18" viewBox="0 0 14 18" fill="none" xmlns="http://www.w3.org/2000/svg">
<path d="M0.333008 9.00008C0.333008 9.2211 0.420805 9.43306 0.577086 9.58934C0.733366 9.74562 0.945327 9.83342 1.16634 9.83342H7.49134L5.57467 11.7417C5.49657 11.8192 5.43457 11.9114 5.39226 12.0129C5.34996 12.1145 5.32818 12.2234 5.32818 12.3334C5.32818 12.4434 5.34996 12.5523 5.39226 12.6539C5.43457 12.7554 5.49657 12.8476 5.57467 12.9251C5.65214 13.0032 5.74431 13.0652 5.84586 13.1075C5.94741 13.1498 6.05633 13.1716 6.16634 13.1716C6.27635 13.1716 6.38527 13.1498 6.48682 13.1075C6.58837 13.0652 6.68054 13.0032 6.75801 12.9251L10.0913 9.59175C10.1672 9.5125 10.2267 9.41904 10.2663 9.31675C10.3497 9.11386 10.3497 8.8863 10.2663 8.68342C10.2267 8.58112 10.1672 8.48767 10.0913 8.40841L6.75801 5.07508C6.68031 4.99738 6.58807 4.93575 6.48655 4.8937C6.38503 4.85165 6.27622 4.83001 6.16634 4.83001C6.05646 4.83001 5.94765 4.85165 5.84613 4.8937C5.74461 4.93575 5.65237 4.99738 5.57467 5.07508C5.49698 5.15278 5.43534 5.24502 5.39329 5.34654C5.35124 5.44806 5.3296 5.55687 5.3296 5.66675C5.3296 5.77663 5.35124 5.88544 5.39329 5.98696C5.43534 6.08847 5.49698 6.18072 5.57467 6.25842L7.49134 8.16675H1.16634C0.945327 8.16675 0.733366 8.25455 0.577086 8.41083C0.420805 8.56711 0.333008 8.77907 0.333008 9.00008ZM11.1663 0.666748H2.83301C2.16997 0.666748 1.53408 0.93014 1.06524 1.39898C0.5964 1.86782 0.333008 2.50371 0.333008 3.16675V5.66675C0.333008 5.88776 0.420805 6.09972 0.577086 6.256C0.733366 6.41228 0.945327 6.50008 1.16634 6.50008C1.38735 6.50008 1.59932 6.41228 1.7556 6.256C1.91188 6.09972 1.99967 5.88776 1.99967 5.66675V3.16675C1.99967 2.94573 2.08747 2.73377 2.24375 2.57749C2.40003 2.42121 2.61199 2.33341 2.83301 2.33341H11.1663C11.3874 2.33341 11.5993 2.42121 11.7556 2.57749C11.9119 2.73377 11.9997 2.94573 11.9997 3.16675V14.8334C11.9997 15.0544 11.9119 15.2664 11.7556 15.4227C11.5993 15.579 11.3874 15.6667 11.1663 15.6667H2.83301C2.61199 15.6667 2.40003 15.579 2.24375 15.4227C2.08747 15.2664 1.99967 15.0544 1.99967 14.8334V12.3334C1.99967 12.1124 1.91188 11.9004 1.7556 11.7442C1.59932 11.5879 1.38735 11.5001 1.16634 11.5001C0.945327 11.5001 0.733366 11.5879 0.577086 11.7442C0.420805 11.9004 0.333008 12.1124 0.333008 12.3334V14.8334C0.333008 15.4965 0.5964 16.1323 1.06524 16.6012C1.53408 17.07 2.16997 17.3334 2.83301 17.3334H11.1663C11.8294 17.3334 12.4653 17.07 12.9341 16.6012C13.4029 16.1323 13.6663 15.4965 13.6663 14.8334V3.16675C13.6663 2.50371 13.4029 1.86782 12.9341 1.39898C12.4653 0.93014 11.8294 0.666748 11.1663 0.666748Z" fill="#F04438"/>
</svg>
