<svg width="24" height="24" viewBox="0 0 24 24" fill="none" xmlns="http://www.w3.org/2000/svg">
<path d="M21.2258 21.5961H11.6829C10.9237 21.5961 10.2879 21.0212 10.2118 20.2659L8.91629 7.41039C8.82854 6.53964 9.51216 5.78369 10.3873 5.78369H22.5212C23.3964 5.78369 24.08 6.53964 23.9923 7.41039L22.6968 20.2659C22.6207 21.0212 21.9849 21.5961 21.2258 21.5961Z" fill="#FF6E80"/>
<path d="M17.4412 20.1176V7.26218C17.4412 6.44561 18.1031 5.78369 18.9196 5.78369H10.3873C9.51216 5.78369 8.82854 6.53969 8.91629 7.41039L10.2118 20.2659C10.2879 21.0212 10.9237 21.5961 11.6829 21.5961H18.9197C18.1031 21.5961 17.4412 20.9342 17.4412 20.1176Z" fill="#F8475E"/>
<path d="M21.5823 13.8329H11.3267V13.2814C11.3267 10.4494 13.6225 8.15356 16.4545 8.15356C19.2865 8.15356 21.5823 10.4494 21.5823 13.2814V13.8329H21.5823Z" fill="#EEECFF"/>
<path d="M17.4414 8.24881C17.122 8.18656 16.7921 8.15356 16.4545 8.15356C13.6224 8.15356 11.3267 10.4494 11.3267 13.2814V13.833H16.0122L16.4844 13.7565L16.9029 13.833H17.4414V8.24881Z" fill="#D3D3FF"/>
<path d="M16.903 13.833L18.816 11.3726C18.9352 11.2192 18.9075 10.9984 18.7543 10.8792C18.6009 10.76 18.3802 10.7877 18.261 10.941L16.0125 13.8331H16.903V13.833Z" fill="#3B4456"/>
<path d="M3.86439 18.6689L4.45904 13.3206H11.9285L12.5231 18.6689C12.8052 21.2062 10.8195 23.4257 8.26656 23.4261C8.21804 23.4261 8.16953 23.4261 8.12101 23.4261C5.56801 23.4257 3.58229 21.2062 3.86439 18.6689Z" fill="#49BDFC"/>
<path d="M9.84223 18.3135L4.25961 15.0903L3.86281 18.6593C3.67817 20.3199 4.46023 21.8497 5.7417 22.705L9.84228 20.3349C10.6203 19.8857 10.6203 18.7627 9.84223 18.3135Z" fill="#7ACEFA"/>
<path d="M8.1611 4.31262C7.9669 4.31262 7.80954 4.15526 7.80954 3.96105C7.80954 2.76082 7.24418 1.57333 6.83609 1.17766C6.69668 1.04248 6.69326 0.819913 6.8284 0.680553C6.96359 0.541147 7.18615 0.537772 7.32551 0.672866C7.89645 1.22646 8.51262 2.64101 8.51262 3.96105C8.51267 4.15521 8.35531 4.31262 8.1611 4.31262Z" fill="#D2996F"/>
<path d="M9.07935 4.43987C8.88514 4.43987 8.72778 4.28251 8.72778 4.08831C8.72778 3.07379 9.34831 2.10479 10.2033 1.78417C10.3853 1.71606 10.5877 1.80812 10.6559 1.9899C10.724 2.17173 10.6319 2.37437 10.4502 2.44253C9.87861 2.65684 9.43091 3.37975 9.43091 4.08831C9.43091 4.28247 9.27355 4.43987 9.07935 4.43987Z" fill="#D2996F"/>
<path d="M7.24437 4.49929C7.10445 4.49929 6.97212 4.41514 6.91742 4.27714C6.59698 3.46841 6.12063 2.98546 5.5016 2.84179C5.31251 2.79786 5.19476 2.60896 5.23868 2.41982C5.28256 2.23072 5.47123 2.11297 5.66065 2.15689C6.50576 2.35311 7.16642 2.99671 7.57113 4.01816C7.64262 4.19868 7.55431 4.403 7.37379 4.47449C7.33128 4.49132 7.28745 4.49929 7.24437 4.49929Z" fill="#D2996F"/>
<path d="M14.7845 12.1469C15.668 12.1469 16.3842 11.4307 16.3842 10.5472C16.3842 9.66372 15.668 8.94751 14.7845 8.94751C13.901 8.94751 13.1848 9.66372 13.1848 10.5472C13.1848 11.4307 13.901 12.1469 14.7845 12.1469Z" fill="#FFDDCF"/>
<path d="M1.5997 12.1469C2.48319 12.1469 3.19941 11.4307 3.19941 10.5472C3.19941 9.66372 2.48319 8.94751 1.5997 8.94751C0.716211 8.94751 0 9.66372 0 10.5472C0 11.4307 0.716211 12.1469 1.5997 12.1469Z" fill="#FFCBBE"/>
<path d="M8.1921 17.1723C11.8487 17.1723 14.8129 14.208 14.8129 10.5515C14.8129 6.8949 11.8487 3.93066 8.1921 3.93066C4.53553 3.93066 1.57129 6.8949 1.57129 10.5515C1.57129 14.208 4.53553 17.1723 8.1921 17.1723Z" fill="#FFDDCF"/>
<path d="M4.19469 10.5515C4.19469 7.34401 6.4761 4.66937 9.50432 4.0607C9.08029 3.97548 8.64121 3.93066 8.1921 3.93066C4.53552 3.93066 1.57129 6.8949 1.57129 10.5515C1.57129 14.2081 4.53552 17.1723 8.1921 17.1723C8.64121 17.1723 9.08034 17.1275 9.50432 17.0423C6.47615 16.4336 4.19469 13.7589 4.19469 10.5515Z" fill="#FFCBBE"/>
</svg>
