<svg width="24" height="24" viewBox="0 0 24 24" fill="none" xmlns="http://www.w3.org/2000/svg">
<g clip-path="url(#clip0_1935_61966)">
<path d="M10.5 0V0.01125C10.5 0.49552 10.625 0.971587 10.863 1.39336L12.8311 5.54606C12.4696 6.26942 12.2685 7.06228 12.2415 7.87049C12.2145 8.67871 12.3622 9.48323 12.6746 10.2291L13.3918 11.9394C14.3182 14.1489 12.7109 16.4963 10.3334 16.4963L4.74206 16.5C3.98167 16.5 3.25242 16.8021 2.71474 17.3397C2.17706 17.8774 1.875 18.6067 1.875 19.3671V24H5.25V20.5437C5.24999 20.4456 5.27938 20.3497 5.33437 20.2684C5.38935 20.1871 5.46742 20.1242 5.55852 20.0877C5.64961 20.0512 5.74955 20.0428 5.84545 20.0636C5.94136 20.0844 6.02883 20.1334 6.09661 20.2044L7.53769 21.7133C8.48738 22.7077 10.4948 23.3564 11.8574 23.5408C13.6277 23.7803 15.4296 23.5061 17.0487 22.751C19.7706 21.4826 21.6764 19.0802 22.5002 16.1712L23.0565 14.1767C23.0917 14.0745 23.124 13.9714 23.1518 13.8669C23.7982 11.4358 23.8902 8.84695 22.7425 6.60802L22.125 5.3625C21.0968 3.35625 19.6512 2.39789 17.8139 2.67127C17.5311 2.71168 17.2428 2.68938 16.9695 2.60594C16.6963 2.52251 16.4447 2.37997 16.2327 2.18845L15.0938 1.16925C14.9463 1.03736 14.8283 0.87583 14.7475 0.695228C14.6668 0.514627 14.625 0.319014 14.625 0.121172V0L10.5 0Z" fill="#FFD4CF"/>
<path d="M18.6469 14.1333L18.1031 13.6165L18.5319 13.1655C19.0514 12.4637 19.2786 11.5878 19.1659 10.722C19.0532 9.85612 18.6093 9.06765 17.9275 8.5222L16.4163 7.31325C14.314 5.63142 12.8909 3.24612 12.4093 0.597324L12.3812 0.44198C12.378 0.42451 12.3761 0.406842 12.3754 0.389105L12.3613 0.0141055L13.1105 -0.0141602L13.1237 0.334215L13.1472 0.463355C13.5964 2.93407 14.9239 5.15899 16.8849 6.72768L18.396 7.93664C19.2329 8.60612 19.7764 9.57503 19.9113 10.6382C20.0463 11.7014 19.7622 12.7754 19.1192 13.6327C19.1105 13.6444 19.1011 13.6555 19.0911 13.6661L18.6469 14.1333Z" fill="#FF6672"/>
<path d="M12 17.25H13.5V18H12V17.25Z" fill="#FFEFED"/>
<path d="M16.1436 19.5801L16.871 19.3978L17.2467 20.8976L16.5193 21.0799L16.1436 19.5801Z" fill="#FFEFED"/>
<path d="M13.2598 20.2605L14.3307 18.8945L14.921 19.3572L13.85 20.7232L13.2598 20.2605Z" fill="#FFEFED"/>
<path d="M11.2502 14.6248L10.409 11.5404C10.9105 10.4313 11.0107 9.18227 10.6923 8.00741C10.3739 6.83254 9.65686 5.80497 8.66397 5.10081C7.67108 4.39665 6.46419 4.05972 5.25014 4.14778C4.03609 4.23584 2.89045 4.7434 2.00957 5.58347C1.12869 6.42355 0.5674 7.54383 0.421896 8.75235C0.276393 9.96086 0.555732 11.1824 1.21204 12.2075C1.86836 13.2327 2.86078 13.9976 4.01923 14.3713C5.17769 14.7451 6.43006 14.7042 7.56171 14.2558L11.2502 14.6248Z" fill="#80DAFF"/>
<path d="M9 8.25H6.75V6H4.5V8.25H2.25V10.5H4.5V12.75H6.75V10.5H9V8.25Z" fill="#F2FAFF"/>
<path d="M17.1743 13.5762L14.8306 16.5049C14.4422 16.9902 14.5208 17.6983 15.0061 18.0867C15.4913 18.475 16.1995 18.3964 16.5878 17.9112L18.9316 14.9824C19.3199 14.4972 19.2413 13.789 18.7561 13.4007C18.2708 13.0123 17.5626 13.0909 17.1743 13.5762Z" fill="#FDBF44"/>
<path d="M14.8249 16.5105C14.7326 16.6259 14.6639 16.7582 14.6227 16.9001C14.5815 17.042 14.5687 17.1906 14.585 17.3375C14.6012 17.4843 14.6462 17.6265 14.7174 17.7559C14.7887 17.8854 14.8847 17.9995 15 18.0919C15.1153 18.1842 15.2477 18.2529 15.3896 18.2941C15.5315 18.3353 15.6801 18.3481 15.8269 18.3318C15.9738 18.3156 16.116 18.2705 16.2454 18.1993C16.3748 18.1281 16.489 18.0321 16.5813 17.9168L17.2845 17.0386L15.528 15.6323L14.8249 16.5105Z" fill="#FF6672"/>
</g>
<defs>
<clipPath id="clip0_1935_61966">
<rect width="24" height="24" fill="white"/>
</clipPath>
</defs>
</svg>
