<svg width="24" height="24" viewBox="0 0 24 24" fill="none" xmlns="http://www.w3.org/2000/svg">
<g clip-path="url(#clip0_1935_61930)">
<path d="M13.125 8.93625L14.5575 10.1325C14.6961 10.2471 14.8076 10.3909 14.8841 10.5536C14.9606 10.7163 15.0002 10.8939 15 11.0738C15 11.1785 14.9701 11.281 14.914 11.3694C14.8578 11.4578 14.7776 11.5283 14.6828 11.5728C14.588 11.6173 14.4824 11.6338 14.3786 11.6204C14.2747 11.6071 14.1768 11.5645 14.0963 11.4975L13.125 10.6875L12 9.75L10.875 10.6875L9.90375 11.4975C9.82324 11.5645 9.72531 11.6071 9.62144 11.6204C9.51757 11.6338 9.41205 11.6173 9.31723 11.5728C9.22241 11.5283 9.14222 11.4578 9.08604 11.3694C9.02986 11.281 9.00001 11.1785 9 11.0738C8.99983 10.8939 9.03941 10.7163 9.11591 10.5536C9.19241 10.3909 9.30393 10.2471 9.4425 10.1325L10.875 8.93625L11.25 8.625V0.375H12.75V8.625L13.125 8.93625Z" fill="#537DA5"/>
<path d="M9.00004 11.0738C9.00005 11.1785 9.02989 11.281 9.08607 11.3694C9.14226 11.4578 9.22245 11.5283 9.31727 11.5728C9.41209 11.6173 9.51761 11.6338 9.62148 11.6204C9.72535 11.6071 9.82327 11.5645 9.90379 11.4975L10.875 10.6875V17.4825C10.8932 18.0979 10.6666 18.6955 10.2447 19.144C9.82293 19.5925 9.24044 19.8554 8.62504 19.875H6.37504C5.75964 19.8554 5.17715 19.5925 4.75534 19.144C4.33353 18.6955 4.10685 18.0979 4.12504 17.4825V15.8888C4.12504 12.81 6.47629 7.125 9.37504 7.125C9.57419 7.1267 9.77092 7.16879 9.95333 7.24871C10.1357 7.32864 10.3 7.44474 10.4363 7.59C10.72 7.89726 10.8767 8.30057 10.875 8.71875V8.93625L9.44254 10.1325C9.30397 10.2471 9.19245 10.3909 9.11595 10.5536C9.03945 10.7163 8.99987 10.8939 9.00004 11.0738Z" fill="#F48A83"/>
<path d="M14.4488 11.625C14.5949 11.6248 14.735 11.5667 14.8384 11.4633C14.9417 11.36 14.9998 11.2199 15 11.0738C15.0002 10.8939 14.9606 10.7163 14.8841 10.5536C14.8076 10.3909 14.6961 10.2471 14.5575 10.1325L13.125 8.93625V8.71875C13.1233 8.30057 13.2801 7.89726 13.5638 7.59C13.7 7.44474 13.8643 7.32864 14.0467 7.24871C14.2292 7.16879 14.4259 7.1267 14.625 7.125C17.5238 7.125 19.875 12.81 19.875 15.8888V17.4825C19.8932 18.0979 19.6666 18.6955 19.2447 19.144C18.8229 19.5925 18.2404 19.8554 17.625 19.875H15.375C14.7596 19.8554 14.1771 19.5925 13.7553 19.144C13.3335 18.6955 13.1069 18.0979 13.125 17.4825V10.6875L14.0963 11.4975C14.1956 11.5794 14.3201 11.6244 14.4488 11.625Z" fill="#F48A83"/>
<path d="M13.5637 7.59C13.2801 7.89726 13.1233 8.30057 13.125 8.71875V8.93625L12.75 8.625V0.375H15V3.08625C14.9993 3.39174 15.0924 3.69007 15.2668 3.94091C15.4412 4.19174 15.6884 4.38298 15.975 4.48875L17.235 4.965C17.7415 5.153 18.2773 5.2495 18.8175 5.25H19.125C20.3185 5.25 21.4631 5.72411 22.307 6.56802C23.1509 7.41193 23.625 8.55653 23.625 9.75V23.625H0.375V9.75C0.375 8.55653 0.849106 7.41193 1.69302 6.56802C2.53693 5.72411 3.68153 5.25 4.875 5.25H5.1825C5.72272 5.2495 6.25855 5.153 6.765 4.965L8.025 4.48875C8.3116 4.38298 8.5588 4.19174 8.73317 3.94091C8.90755 3.69007 9.00069 3.39174 9 3.08625V0.375H11.25V8.625L10.875 8.93625V8.71875C10.8767 8.30057 10.7199 7.89726 10.4362 7.59C10.3 7.44474 10.1357 7.32864 9.95329 7.24871C9.77088 7.16879 9.57415 7.1267 9.375 7.125C6.47625 7.125 4.125 12.81 4.125 15.8888V17.4825C4.10681 18.0979 4.33349 18.6955 4.7553 19.144C5.17711 19.5925 5.7596 19.8554 6.375 19.875H8.625C9.2404 19.8554 9.82289 19.5925 10.2447 19.144C10.6665 18.6955 10.8932 18.0979 10.875 17.4825V10.6875L12 9.75L13.125 10.6875V17.4825C13.1068 18.0979 13.3335 18.6955 13.7553 19.144C14.1771 19.5925 14.7596 19.8554 15.375 19.875H17.625C18.2404 19.8554 18.8229 19.5925 19.2447 19.144C19.6665 18.6955 19.8932 18.0979 19.875 17.4825V15.8888C19.875 12.81 17.5238 7.125 14.625 7.125C14.4259 7.1267 14.2291 7.16879 14.0467 7.24871C13.8643 7.32864 13.7 7.44474 13.5637 7.59Z" fill="#FCD9C2"/>
<path d="M2.31 10.9912L1.875 10.125V20.625C1.875 20.8239 1.79598 21.0147 1.65533 21.1553C1.51468 21.296 1.32391 21.375 1.125 21.375C0.926088 21.375 0.735322 21.296 0.59467 21.1553C0.454018 21.0147 0.375 20.8239 0.375 20.625V23.625H2.625V12.3337C2.62456 11.868 2.51677 11.4086 2.31 10.9912Z" fill="#F5C4A4"/>
<path d="M22.875 21.375C22.6761 21.375 22.4853 21.296 22.3447 21.1553C22.204 21.0147 22.125 20.8239 22.125 20.625V10.125L21.69 10.9912C21.4832 11.4086 21.3754 11.868 21.375 12.3337V23.625H23.625V20.625C23.625 20.8239 23.546 21.0147 23.4053 21.1553C23.2647 21.296 23.0739 21.375 22.875 21.375Z" fill="#F5C4A4"/>
<path d="M11.25 4.08262V0.375H9V3.375C9.68941 3.77217 10.4574 4.01369 11.25 4.08262Z" fill="#F5C8AB"/>
<path d="M12.75 4.08262C13.5426 4.01369 14.3106 3.77217 15 3.375V0.375H12.75V4.08262Z" fill="#F5C8AB"/>
<path d="M11.25 4.08262C11.499 4.11054 11.7494 4.12468 12 4.125C12.2506 4.12468 12.501 4.11054 12.75 4.08262V0.375H11.25V4.08262Z" fill="#A8AAAB"/>
<path d="M7.50004 18.375H6.00004C5.50276 18.375 5.02584 18.1775 4.67421 17.8258C4.32258 17.4742 4.12504 16.9973 4.12504 16.5V17.4825C4.10685 18.0979 4.33353 18.6955 4.75534 19.144C5.17715 19.5925 5.75964 19.8554 6.37504 19.875H8.62504C9.24044 19.8554 9.82293 19.5925 10.2447 19.144C10.6666 18.6955 10.8932 18.0979 10.875 17.4825V10.6875L9.90379 11.4975C9.80452 11.5794 9.67998 11.6244 9.55129 11.625C9.49121 11.6242 9.43167 11.6136 9.37504 11.5935V16.5C9.37504 16.9973 9.1775 17.4742 8.82586 17.8258C8.47423 18.1775 7.99732 18.375 7.50004 18.375Z" fill="#E0756E"/>
<path d="M18 18.375H16.5C16.0028 18.375 15.5258 18.1775 15.1742 17.8258C14.8226 17.4742 14.625 16.9973 14.625 16.5V11.5935C14.5684 11.6136 14.5089 11.6242 14.4488 11.625C14.3201 11.6244 14.1956 11.5794 14.0963 11.4975L13.125 10.6875V17.4825C13.1069 18.0979 13.3335 18.6955 13.7553 19.144C14.1771 19.5925 14.7596 19.8554 15.375 19.875H17.625C18.2404 19.8554 18.8229 19.5925 19.2447 19.144C19.6666 18.6955 19.8932 18.0979 19.875 17.4825V16.5C19.875 16.9973 19.6775 17.4742 19.3259 17.8258C18.9742 18.1775 18.4973 18.375 18 18.375Z" fill="#E0756E"/>
<path d="M8.9999 11.0647C8.96064 11.0643 8.92227 11.0763 8.89018 11.0989C8.85808 11.1215 8.8339 11.1536 8.82102 11.1907L8.4734 12.2332L6.79415 12.9048L6.13152 12.2422C6.11409 12.2248 6.09339 12.2109 6.07062 12.2015C6.04784 12.1921 6.02343 12.1872 5.99877 12.1872C5.97412 12.1872 5.94971 12.1921 5.92693 12.2015C5.90415 12.2109 5.88345 12.2248 5.86602 12.2422C5.84859 12.2596 5.83476 12.2803 5.82533 12.3031C5.81589 12.3259 5.81104 12.3503 5.81104 12.375C5.81104 12.3996 5.81589 12.424 5.82533 12.4468C5.83476 12.4696 5.84859 12.4903 5.86602 12.5077L6.50765 13.149L5.84277 14.1461C5.81524 14.1875 5.80527 14.2381 5.81505 14.2868C5.82482 14.3355 5.85354 14.3784 5.8949 14.406C5.93628 14.4335 5.98689 14.4435 6.03562 14.4337C6.08435 14.4239 6.12721 14.3952 6.15477 14.3538L6.87252 13.2772L8.31815 12.699L7.7054 14.5365L6.5999 16.0125C6.58512 16.0322 6.57437 16.0546 6.56826 16.0784C6.56215 16.1023 6.5608 16.1271 6.56428 16.1515C6.56776 16.1758 6.57601 16.1993 6.58856 16.2205C6.6011 16.2417 6.6177 16.2602 6.6374 16.275C6.67718 16.3048 6.72719 16.3176 6.77641 16.3106C6.82564 16.3035 6.87006 16.2772 6.8999 16.2375L7.81002 15.0236L8.0624 15.7803V16.875C8.0624 16.9247 8.08215 16.9724 8.11731 17.0075C8.15248 17.0427 8.20017 17.0625 8.2499 17.0625C8.29963 17.0625 8.34732 17.0427 8.38248 17.0075C8.41764 16.9724 8.4374 16.9247 8.4374 16.875V16.0102L9.31565 16.3031C9.33479 16.3093 9.35478 16.3124 9.3749 16.3125C9.41955 16.3126 9.46279 16.2969 9.49685 16.268C9.53091 16.2391 9.55355 16.199 9.56069 16.155C9.56783 16.1109 9.55901 16.0657 9.53581 16.0275C9.51262 15.9894 9.47657 15.9608 9.43415 15.9468L8.3999 15.6L8.07252 14.625L8.64102 12.9198L9.2009 14.3197C9.21483 14.3545 9.23884 14.3843 9.26986 14.4052C9.30087 14.4262 9.33745 14.4374 9.3749 14.4375C9.39879 14.4374 9.42245 14.4328 9.44465 14.424C9.49079 14.4054 9.52769 14.3694 9.54724 14.3237C9.56679 14.278 9.56738 14.2264 9.5489 14.1802L8.8244 12.369L9.1364 11.4315C9.04923 11.3326 9.00075 11.2055 8.9999 11.0737C8.9999 11.0707 8.9999 11.0677 8.9999 11.0647Z" fill="#FCF9DD"/>
<path d="M18.4788 16.719L17.3808 15.987L16.2933 14.5368L15.6805 12.6993L17.1262 13.2776L17.8439 14.3542C17.8572 14.3755 17.8746 14.3939 17.8951 14.4083C17.9157 14.4227 17.9389 14.4329 17.9634 14.4382C17.9879 14.4435 18.0133 14.4438 18.0379 14.4391C18.0626 14.4345 18.086 14.4249 18.1069 14.411C18.1278 14.3971 18.1456 14.3791 18.1595 14.3582C18.1733 14.3372 18.1828 14.3137 18.1873 14.2891C18.1919 14.2644 18.1915 14.2391 18.1861 14.2146C18.1807 14.1901 18.1704 14.1669 18.1559 14.1465L17.491 13.1493L18.1327 12.5081C18.1679 12.4729 18.1877 12.4251 18.1877 12.3753C18.1877 12.3255 18.1679 12.2778 18.1327 12.2426C18.0975 12.2074 18.0497 12.1876 17.9999 12.1876C17.9501 12.1876 17.9024 12.2074 17.8672 12.2426L17.2045 12.9052L15.5249 12.2332L15.1773 11.1907C15.1648 11.1537 15.1409 11.1216 15.1091 11.0989C15.0772 11.0763 15.039 11.0643 14.9999 11.0647V11.0737C14.9994 11.206 14.9509 11.3337 14.8634 11.433L15.1754 12.3705L14.4509 14.1817C14.4324 14.2279 14.433 14.2795 14.4526 14.3252C14.4721 14.3709 14.509 14.4069 14.5552 14.4255C14.5775 14.4338 14.6011 14.4378 14.6249 14.4375C14.6624 14.4374 14.699 14.4262 14.73 14.4052C14.761 14.3843 14.785 14.3545 14.7989 14.3197L15.3588 12.9198L15.9273 14.625L15.6018 15.6L14.5657 15.9453C14.522 15.9583 14.4846 15.9868 14.4604 16.0253C14.4361 16.0639 14.4268 16.11 14.434 16.1549C14.4413 16.1999 14.4647 16.2407 14.4998 16.2697C14.5349 16.2986 14.5794 16.3139 14.6249 16.3125C14.645 16.3124 14.665 16.3093 14.6842 16.3031L15.5624 16.0102V16.875C15.5624 16.9247 15.5822 16.9724 15.6173 17.0075C15.6525 17.0427 15.7002 17.0625 15.7499 17.0625C15.7996 17.0625 15.8473 17.0427 15.8825 17.0075C15.9177 16.9724 15.9374 16.9247 15.9374 16.875V15.7803L16.1898 15.0236L17.0624 16.1861V18C17.0624 18.0497 17.0822 18.0974 17.1173 18.1325C17.1525 18.1677 17.2002 18.1875 17.2499 18.1875C17.2996 18.1875 17.3473 18.1677 17.3825 18.1325C17.4177 18.0974 17.4374 18.0497 17.4374 18V16.4752L18.271 17.031C18.3124 17.0585 18.363 17.0685 18.4118 17.0587C18.4605 17.0489 18.5034 17.0202 18.5309 16.9788C18.5584 16.9375 18.5684 16.8868 18.5586 16.8381C18.5489 16.7894 18.5202 16.7465 18.4788 16.719Z" fill="#FCF9DD"/>
<path d="M15.9375 8.625C16.0411 8.625 16.125 8.54105 16.125 8.4375C16.125 8.33395 16.0411 8.25 15.9375 8.25C15.8339 8.25 15.75 8.33395 15.75 8.4375C15.75 8.54105 15.8339 8.625 15.9375 8.625Z" fill="#E0756E"/>
<path d="M16.6875 9.375C16.7911 9.375 16.875 9.29105 16.875 9.1875C16.875 9.08395 16.7911 9 16.6875 9C16.5839 9 16.5 9.08395 16.5 9.1875C16.5 9.29105 16.5839 9.375 16.6875 9.375Z" fill="#E0756E"/>
<path d="M18.1875 15.375C18.2911 15.375 18.375 15.2911 18.375 15.1875C18.375 15.0839 18.2911 15 18.1875 15C18.0839 15 18 15.0839 18 15.1875C18 15.2911 18.0839 15.375 18.1875 15.375Z" fill="#E0756E"/>
<path d="M15.1875 15C15.2911 15 15.375 14.9161 15.375 14.8125C15.375 14.7089 15.2911 14.625 15.1875 14.625C15.0839 14.625 15 14.7089 15 14.8125C15 14.9161 15.0839 15 15.1875 15Z" fill="#E0756E"/>
<path d="M16.3125 17.625C16.4161 17.625 16.5 17.5411 16.5 17.4375C16.5 17.3339 16.4161 17.25 16.3125 17.25C16.2089 17.25 16.125 17.3339 16.125 17.4375C16.125 17.5411 16.2089 17.625 16.3125 17.625Z" fill="#E0756E"/>
<path d="M15.75 9.75C15.9571 9.75 16.125 9.58211 16.125 9.375C16.125 9.16789 15.9571 9 15.75 9C15.5429 9 15.375 9.16789 15.375 9.375C15.375 9.58211 15.5429 9.75 15.75 9.75Z" fill="#E0756E"/>
<path d="M18.75 15C18.9571 15 19.125 14.8321 19.125 14.625C19.125 14.4179 18.9571 14.25 18.75 14.25C18.5429 14.25 18.375 14.4179 18.375 14.625C18.375 14.8321 18.5429 15 18.75 15Z" fill="#E0756E"/>
<path d="M8.0625 8.625C8.16605 8.625 8.25 8.54105 8.25 8.4375C8.25 8.33395 8.16605 8.25 8.0625 8.25C7.95895 8.25 7.875 8.33395 7.875 8.4375C7.875 8.54105 7.95895 8.625 8.0625 8.625Z" fill="#E0756E"/>
<path d="M7.3125 9.375C7.41605 9.375 7.5 9.29105 7.5 9.1875C7.5 9.08395 7.41605 9 7.3125 9C7.20895 9 7.125 9.08395 7.125 9.1875C7.125 9.29105 7.20895 9.375 7.3125 9.375Z" fill="#E0756E"/>
<path d="M5.8125 15.375C5.91605 15.375 6 15.2911 6 15.1875C6 15.0839 5.91605 15 5.8125 15C5.70895 15 5.625 15.0839 5.625 15.1875C5.625 15.2911 5.70895 15.375 5.8125 15.375Z" fill="#E0756E"/>
<path d="M8.8125 15C8.91605 15 9 14.9161 9 14.8125C9 14.7089 8.91605 14.625 8.8125 14.625C8.70895 14.625 8.625 14.7089 8.625 14.8125C8.625 14.9161 8.70895 15 8.8125 15Z" fill="#E0756E"/>
<path d="M7.6875 17.625C7.79105 17.625 7.875 17.5411 7.875 17.4375C7.875 17.3339 7.79105 17.25 7.6875 17.25C7.58395 17.25 7.5 17.3339 7.5 17.4375C7.5 17.5411 7.58395 17.625 7.6875 17.625Z" fill="#E0756E"/>
<path d="M8.25 9.75C8.45711 9.75 8.625 9.58211 8.625 9.375C8.625 9.16789 8.45711 9 8.25 9C8.04289 9 7.875 9.16789 7.875 9.375C7.875 9.58211 8.04289 9.75 8.25 9.75Z" fill="#E0756E"/>
<path d="M5.25 15C5.45711 15 5.625 14.8321 5.625 14.625C5.625 14.4179 5.45711 14.25 5.25 14.25C5.04289 14.25 4.875 14.4179 4.875 14.625C4.875 14.8321 5.04289 15 5.25 15Z" fill="#E0756E"/>
<path d="M22.125 3.375H21.375V2.625H20.625V3.375H19.875V4.125H20.625V4.875H21.375V4.125H22.125V3.375Z" fill="#7AE2FF"/>
<path d="M4.125 1.125H3.375V0.375H2.625V1.125H1.875V1.875H2.625V2.625H3.375V1.875H4.125V1.125Z" fill="#7AE2FF"/>
</g>
<defs>
<clipPath id="clip0_1935_61930">
<rect width="24" height="24" fill="white"/>
</clipPath>
</defs>
</svg>
