<svg width="24" height="24" viewBox="0 0 24 24" fill="none" xmlns="http://www.w3.org/2000/svg">
<path d="M22.4835 4.51501C15.6391 2.50411 8.36076 2.50411 1.51638 4.51501C1.42598 4.54104 1.34868 4.60012 1.29984 4.68052C1.25099 4.76091 1.23417 4.85674 1.25272 4.94896L4.26629 19.949C4.27624 19.9987 4.29619 20.046 4.32495 20.0878C4.35371 20.1296 4.39066 20.1652 4.43357 20.1923C4.47649 20.2194 4.52446 20.2375 4.57458 20.2455C4.6247 20.2535 4.67593 20.2512 4.72514 20.2388C9.49939 19.0277 14.5004 19.0277 19.2747 20.2388C19.3045 20.2463 19.3351 20.2501 19.3659 20.25C19.4525 20.2501 19.5365 20.2201 19.6035 20.1652C19.6705 20.1103 19.7164 20.0338 19.7334 19.9488L22.747 4.94885C22.7655 4.85666 22.7487 4.76088 22.6999 4.68051C22.651 4.60015 22.5738 4.54107 22.4835 4.51501Z" fill="#002237"/>
<path d="M18.1611 9.70059C18.116 9.66546 18.0634 9.64115 18.0074 9.62953C17.9514 9.61791 17.8935 9.6193 17.8382 9.63358L14.1954 10.5711L12.8544 10.8118L12.2051 8.86396C12.1337 8.64997 11.9829 8.47154 11.7838 8.36551C11.5847 8.25948 11.3524 8.23393 11.135 8.29415C10.9176 8.35436 10.7317 8.49574 10.6155 8.6891C10.4993 8.88246 10.4617 9.11305 10.5106 9.33328L11.0193 11.6236C11.0327 11.6837 11.0608 11.7396 11.1009 11.7863L11.6543 12.432L10.6835 13.079C10.3341 11.9918 9.70474 10.2825 9.12233 9.99118C8.73049 9.79524 7.64761 9.37063 6.80787 9.04891C6.51344 8.93606 6.1864 8.94377 5.89761 9.07036C5.60883 9.19696 5.38155 9.43224 5.26503 9.72524C5.1485 10.0182 5.15212 10.3453 5.27509 10.6357C5.39807 10.926 5.63049 11.1562 5.92201 11.2764C6.42487 11.4601 6.90831 11.6931 7.36523 11.972C7.37768 12.6876 7.51283 15.0176 8.70556 16.0771C9.36953 16.6663 10.6088 16.9906 11.9308 16.9906C13.3586 16.9904 14.8828 16.6121 15.8804 15.7806C17.9691 14.0397 18.3066 12.6497 18.3066 9.99688C18.3067 9.93965 18.2936 9.88317 18.2684 9.8318C18.2431 9.78043 18.2065 9.73554 18.1611 9.70059Z" fill="url(#paint0_linear_1935_61877)"/>
<path d="M15.6401 5.39331C15.025 5.39329 14.4237 5.57567 13.9123 5.91739C13.4008 6.25911 13.0022 6.74482 12.7668 7.31311C12.5314 7.88139 12.4698 8.50671 12.5898 9.11C12.7098 9.71329 13.006 10.2674 13.4409 10.7024C13.8759 11.1373 14.43 11.4335 15.0333 11.5535C15.6366 11.6735 16.2619 11.6119 16.8302 11.3765C17.3985 11.1411 17.8842 10.7425 18.2259 10.231C18.5676 9.71959 18.75 9.11829 18.75 8.50319C18.749 7.6787 18.4211 6.88826 17.8381 6.30526C17.2551 5.72226 16.4646 5.39429 15.6401 5.39331Z" fill="url(#paint1_linear_1935_61877)"/>
<defs>
<linearGradient id="paint0_linear_1935_61877" x1="11.9279" y1="9.76876" x2="10.7995" y2="15.7121" gradientUnits="userSpaceOnUse">
<stop stop-color="#F5A997"/>
<stop offset="1" stop-color="#E57E70"/>
</linearGradient>
<linearGradient id="paint1_linear_1935_61877" x1="14.4349" y1="6.24857" x2="16.7674" y2="10.6124" gradientUnits="userSpaceOnUse">
<stop stop-color="#F4B7A4"/>
<stop offset="1" stop-color="#F7907F"/>
</linearGradient>
</defs>
</svg>
