<svg width="24" height="24" viewBox="0 0 24 24" fill="none" xmlns="http://www.w3.org/2000/svg">
<path d="M5.62574 12.7502C2.93147 12.7502 0.750735 14.9303 0.750735 17.6245V22.8731C0.750355 22.9725 0.789493 23.068 0.859543 23.1386C0.929593 23.2092 1.02482 23.2491 1.12427 23.2495H16.8757C16.9752 23.2491 17.0704 23.2092 17.1405 23.1386C17.2105 23.068 17.2497 22.9725 17.2493 22.8731V17.6245C17.2493 14.9303 15.0685 12.7502 12.3743 12.7502H5.62574Z" fill="#FF6B6B"/>
<path d="M14.625 20.9968V23.2498H16.8757C17.0828 23.249 17.2501 23.0804 17.2493 22.8733V20.9968H14.625Z" fill="#FDD5A6"/>
<path d="M3.37501 20.9968V23.2498H1.12428C0.917186 23.2489 0.749942 23.0804 0.750735 22.8733V20.9968H3.37501Z" fill="#FDD5A6"/>
<path d="M18.7502 10.5007V16.1257C18.7502 16.7554 18.256 17.2496 17.6263 17.2496H12.375V17.9998H17.6263C18.6586 17.9998 19.5004 17.158 19.5004 16.1257V10.5007H18.7502Z" fill="#C8D4D9"/>
<path d="M6.74963 10.876V13.1238C6.74963 13.1642 6.75672 13.2044 6.76905 13.2428C6.76905 13.2428 6.89392 13.6113 7.2341 13.9515C7.57429 14.2916 8.15647 14.6241 9.00023 14.6241C9.84398 14.6241 10.4262 14.2916 10.7663 13.9515C11.1065 13.6113 11.2314 13.2428 11.2314 13.2428C11.2442 13.2044 11.2508 13.1643 11.2508 13.1238V10.876H6.74963Z" fill="#FDCE97"/>
<path d="M9 0.749512C6.51916 0.749512 4.49927 2.77014 4.49927 5.25096C4.49927 5.84967 4.59579 6.48619 4.75636 7.12448H13.2436C13.4043 6.48616 13.5015 5.84966 13.5015 5.25096C13.5015 2.77013 11.4808 0.749512 9 0.749512Z" fill="#33658A"/>
<path d="M6 6.96177C5.19308 6.39597 4.12573 7.00288 4.12573 7.86814C4.12573 9.03159 5.06872 9.74935 5.99963 9.74935L6 6.96177Z" fill="#FDCE97"/>
<path d="M12.0009 6.96177C12.8078 6.39597 13.8751 7.00288 13.8751 7.86814C13.8751 9.03159 12.9321 9.74935 12.0012 9.74935L12.0009 6.96177Z" fill="#FDCE97"/>
<path d="M9.73095 4.87443C9.6553 4.87816 9.58254 4.90475 9.52227 4.95064C9.462 4.99653 9.41704 5.05959 9.39331 5.13152C9.39331 5.13152 9.12498 5.99797 8.24999 5.99797H5.99927C5.89982 5.99837 5.80459 6.03823 5.73454 6.10883C5.66449 6.17943 5.62535 6.275 5.62574 6.37445V8.62518C5.62574 10.4884 7.13673 11.9995 9 11.9995C10.8633 11.9995 12.3742 10.4884 12.3743 8.62518V6.37445C12.3746 6.275 12.3355 6.17943 12.2655 6.10883C12.1954 6.03823 12.1002 5.99837 12.0007 5.99797H11.2507C10.3757 5.99797 10.1045 5.13152 10.1045 5.13152C10.0788 5.05377 10.0284 4.98655 9.96097 4.94013C9.89353 4.89371 9.81274 4.87063 9.73095 4.87443Z" fill="#FDD5A6"/>
<path d="M11.2511 16.1257C10.4271 16.1257 9.75073 16.7993 9.75073 17.6233C9.75073 18.4473 10.4271 19.1237 11.2511 19.1237C12.0751 19.1237 12.7487 18.4473 12.7487 17.6233C12.7487 16.7993 12.0751 16.1257 11.2511 16.1257Z" fill="#DBE9EE"/>
<path d="M11.251 16.8733C11.6697 16.8733 12.0012 17.2048 12.0012 17.6235C12.0012 18.0421 11.6697 18.3737 11.251 18.3737C10.8324 18.3737 10.5009 18.0421 10.5009 17.6235C10.5009 17.2048 10.8324 16.8733 11.251 16.8733Z" fill="#C8D4D9"/>
<path d="M16.1259 2.99902C15.5092 2.99902 14.9993 3.50892 14.9993 4.12568V6.7499C14.9993 9.02867 16.8451 10.8746 19.1239 10.8746C21.4027 10.8746 23.2513 9.02867 23.2513 6.7499V4.12568C23.2513 3.50892 22.7414 2.99902 22.1246 2.99902H21.3745V3.74921H22.1246C22.3389 3.74921 22.5011 3.91147 22.5011 4.12568V6.7499C22.5011 8.62614 21.0001 10.1243 19.1239 10.1243C17.2477 10.1243 15.7495 8.62614 15.7495 6.7499V4.12568C15.7495 3.91147 15.9117 3.74921 16.1259 3.74921H16.8761V2.99902H16.1259Z" fill="#DBE9EE"/>
<path d="M16.8705 2.24319C16.821 2.24372 16.7721 2.25403 16.7266 2.27355C16.6811 2.29308 16.64 2.32143 16.6055 2.35694C16.571 2.39246 16.5439 2.43443 16.5257 2.48048C16.5075 2.52652 16.4987 2.57571 16.4996 2.6252V4.12557C16.4996 4.22505 16.5391 4.32046 16.6094 4.3908C16.6798 4.46114 16.7752 4.50066 16.8747 4.50066C16.9741 4.50066 17.0696 4.46114 17.1399 4.3908C17.2102 4.32046 17.2498 4.22505 17.2498 4.12557V2.6252C17.2507 2.57501 17.2415 2.52512 17.2229 2.47853C17.2042 2.43194 17.1763 2.38958 17.1409 2.35396C17.1056 2.31834 17.0634 2.29016 17.017 2.27113C16.9705 2.2521 16.9207 2.24262 16.8705 2.24319Z" fill="#C8D4D9"/>
<path d="M21.3688 2.24323C21.3196 2.24412 21.271 2.25469 21.2258 2.27437C21.1806 2.29406 21.1398 2.32246 21.1056 2.35794C21.0714 2.39341 21.0446 2.43526 21.0265 2.48112C21.0085 2.52699 20.9998 2.57598 21.0007 2.62524V4.12561C21.0007 4.17488 21.0103 4.22364 21.0292 4.26917C21.048 4.3147 21.0756 4.35608 21.1105 4.39093C21.1453 4.42578 21.1867 4.45343 21.2322 4.47229C21.2777 4.49115 21.3265 4.50088 21.3758 4.50088C21.425 4.50088 21.4738 4.49115 21.5194 4.47229C21.5649 4.45343 21.6062 4.42578 21.6411 4.39093C21.6759 4.35608 21.7035 4.3147 21.7224 4.26917C21.7412 4.22364 21.7509 4.17488 21.7509 4.12561V2.62524C21.7518 2.57482 21.7426 2.5247 21.7237 2.47792C21.7048 2.43115 21.6767 2.38867 21.6411 2.35301C21.6054 2.31734 21.5629 2.28921 21.5162 2.27035C21.4694 2.25149 21.4193 2.24228 21.3688 2.24323Z" fill="#C8D4D9"/>
</svg>
