<svg width="24" height="24" viewBox="0 0 24 24" fill="none" xmlns="http://www.w3.org/2000/svg">
<path d="M18.5625 22.875H11.0625V20.625H16.3125C17.5552 20.625 18.5625 21.6323 18.5625 22.875Z" fill="#F0915A"/>
<path d="M16.3125 20.625H7.3125C5.65566 20.625 4.3125 19.2818 4.3125 17.625V9.375C4.3125 4.81866 8.00616 1.125 12.5625 1.125H13.3125C17.8688 1.125 21.5625 4.81866 21.5625 9.375V13.9096C21.5625 15.5664 20.2193 16.9096 18.5625 16.9096V22.875C18.5625 21.6323 17.5552 20.625 16.3125 20.625Z" fill="#FAB991"/>
<path d="M3.43294 14.625H4.3125V10.125C3.27698 10.125 2.4375 10.9645 2.4375 12V13.6296C2.4375 14.1793 2.88319 14.625 3.43294 14.625Z" fill="#FAB991"/>
<path d="M7.3125 10.875C5.24142 10.875 3.5625 12.5539 3.5625 14.625H13.125C13.4356 14.625 13.6875 14.8769 13.6875 15.1875C13.6875 15.4981 13.4356 15.75 13.125 15.75H4.3125V17.625H10.6875C12.3443 17.625 13.6875 18.9682 13.6875 20.625V22.875H15.9375V16.125C15.9375 13.2255 13.587 10.875 10.6875 10.875H7.3125Z" fill="#F05A4B"/>
<path d="M14.8125 14.25C17.0907 14.25 18.9375 12.4032 18.9375 10.125C18.9375 7.84683 17.0907 6 14.8125 6C12.5343 6 10.6875 7.84683 10.6875 10.125C10.6875 12.4032 12.5343 14.25 14.8125 14.25Z" fill="#D73728"/>
<path d="M14.8125 6.375C16.8836 6.375 18.5625 8.05392 18.5625 10.125C18.5625 12.1961 16.8836 13.875 14.8125 13.875C12.7414 13.875 11.0625 12.1961 11.0625 10.125C11.0625 8.05392 12.7414 6.375 14.8125 6.375ZM14.8125 5.625C12.3312 5.625 10.3125 7.64367 10.3125 10.125C10.3125 12.6063 12.3312 14.625 14.8125 14.625C17.2938 14.625 19.3125 12.6063 19.3125 10.125C19.3125 7.64367 17.2938 5.625 14.8125 5.625Z" fill="#F05A4B"/>
<path d="M15.149 7.12532C13.9154 7.1459 12.9375 8.17818 12.9375 9.41202V11.625C12.9375 12.2463 13.4412 12.75 14.0625 12.75C14.6838 12.75 15.1875 12.2463 15.1875 11.625C16.4302 11.625 17.4375 10.6176 17.4375 9.37499C17.4375 8.11954 16.4093 7.10427 15.149 7.12532Z" fill="#FAB991"/>
<path d="M15.1875 7.875L15.1615 7.87519C14.3609 7.88855 13.7077 8.55792 13.6884 9.375H13.875C14.1856 9.375 14.4375 9.62686 14.4375 9.9375C14.4375 10.2481 14.1856 10.5 13.875 10.5H13.6875V11.6117C13.6875 11.8113 13.8377 11.9858 14.0368 11.9991C14.2552 12.0137 14.4375 11.8403 14.4375 11.625V11.5951C14.4375 11.1974 14.7599 10.875 15.1576 10.875C15.9644 10.875 16.6689 10.216 16.6871 9.40941C16.7061 8.56664 16.026 7.875 15.1875 7.875Z" fill="#F0915A"/>
</svg>
