<svg width="24" height="24" viewBox="0 0 24 24" fill="none" xmlns="http://www.w3.org/2000/svg">
<g clip-path="url(#clip0_1935_62102)">
<path d="M11.9998 9.95006C11.7498 9.95006 11.5498 9.75005 11.5498 9.50006V2.25005C11.5498 2.00006 11.7498 1.80005 11.9998 1.80005C12.2498 1.80005 12.4498 2.00006 12.4498 2.25005V9.50006C12.4498 9.75005 12.2498 9.95006 11.9998 9.95006Z" fill="#415A6B"/>
<path d="M15.1497 8.75006C14.8997 8.75006 14.6997 8.55005 14.6997 8.30006V4.00003C14.6997 3.90005 14.7497 3.75005 14.8497 3.70003L17.1997 1.35005C17.3497 1.20005 17.6497 1.20005 17.7997 1.35005C17.9997 1.50005 17.9997 1.80005 17.7997 1.95005L15.5997 4.15003V8.30002C15.5997 8.55005 15.3997 8.75006 15.1497 8.75006Z" fill="#415A6B"/>
<path d="M17.5999 11.35C17.3499 11.35 17.1499 11.15 17.1499 10.9V6.34998C17.1499 6.25 17.1999 6.1 17.2999 6.04998L22.0499 1.3C22.1999 1.15 22.4999 1.15 22.6499 1.3C22.7999 1.45 22.7999 1.75 22.6499 1.9L18.0499 6.49998V10.85C18.0499 11.15 17.8499 11.35 17.5999 11.35Z" fill="#415A6B"/>
<path d="M22.3502 3.3C23.2615 3.3 24.0002 2.56127 24.0002 1.65C24.0002 0.73873 23.2615 0 22.3502 0C21.4389 0 20.7002 0.73873 20.7002 1.65C20.7002 2.56127 21.4389 3.3 22.3502 3.3Z" fill="#F3705A"/>
<path d="M17.5001 3.3C18.4114 3.3 19.1501 2.56127 19.1501 1.65C19.1501 0.73873 18.4114 0 17.5001 0C16.5888 0 15.8501 0.73873 15.8501 1.65C15.8501 2.56127 16.5888 3.3 17.5001 3.3Z" fill="#FFD15C"/>
<path d="M12.0001 3.3C12.9114 3.3 13.6501 2.56127 13.6501 1.65C13.6501 0.73873 12.9114 0 12.0001 0C11.0888 0 10.3501 0.73873 10.3501 1.65C10.3501 2.56127 11.0888 3.3 12.0001 3.3Z" fill="#55C0EB"/>
<path d="M8.85029 8.75006C8.6003 8.75006 8.40029 8.55005 8.40029 8.30006V4.15003L6.2003 1.95005C6.00029 1.80005 6.00029 1.50005 6.2003 1.35005C6.3503 1.20005 6.6503 1.20005 6.8003 1.35005L9.15029 3.70003C9.25027 3.80002 9.30029 3.90005 9.30029 4.00003V8.35003C9.30029 8.55005 9.10027 8.75006 8.85029 8.75006Z" fill="#415A6B"/>
<path d="M6.40019 11.35C6.15021 11.35 5.95019 11.15 5.95019 10.9V6.55003L1.35021 1.95005C1.15019 1.80005 1.15019 1.50005 1.35021 1.35005C1.50021 1.20005 1.80021 1.20005 1.95021 1.35005L6.70019 6.10003C6.80018 6.20002 6.85019 6.30005 6.85019 6.40003V10.9501C6.80022 11.1501 6.60021 11.35 6.40019 11.35Z" fill="#415A6B"/>
<path d="M1.65 3.3C2.56127 3.3 3.3 2.56127 3.3 1.65C3.3 0.73873 2.56127 0 1.65 0C0.73873 0 0 0.73873 0 1.65C0 2.56127 0.73873 3.3 1.65 3.3Z" fill="#F3705A"/>
<path d="M6.5001 3.3C7.41137 3.3 8.1501 2.56127 8.1501 1.65C8.1501 0.73873 7.41137 0 6.5001 0C5.58883 0 4.8501 0.73873 4.8501 1.65C4.8501 2.56127 5.58883 3.3 6.5001 3.3Z" fill="#FFD15C"/>
<path d="M12.0001 9.15006V21.4501C12.0001 22.6501 11.0001 23.65 9.80013 23.65C8.60013 23.65 7.6001 22.6501 7.6001 21.4501C7.6001 21.1501 7.65011 20.8501 7.7501 20.6001C7.6001 20.6501 7.50011 20.6501 7.35011 20.6501C6.2501 20.6501 5.3501 19.7501 5.3501 18.6501C5.3501 18.2501 5.45008 17.9001 5.6501 17.6001C4.6001 17.4001 3.8501 16.5001 3.8501 15.4501C3.8501 14.4501 4.50011 13.6501 5.40011 13.3501C5.2001 13 5.10011 12.6001 5.10011 12.1501C5.10011 10.8001 6.20013 9.65007 7.6001 9.65007H7.65011C7.6001 9.50007 7.6001 9.35007 7.6001 9.15006C7.6001 7.95006 8.60008 6.95007 9.80008 6.95007C11.0001 6.95007 12.0001 7.95006 12.0001 9.15006Z" fill="#8AD7F8"/>
<path d="M9.8 24.0001C8.39998 24.0001 7.25 22.8501 7.25 21.4501C7.25 21.3001 7.25 21.1501 7.30002 21.0001C6.00003 20.95 5 19.9 5 18.6501C5 18.3501 5.05002 18.0501 5.15 17.8001C4.19998 17.4501 3.5 16.5001 3.5 15.4001C3.5 14.4001 4.04998 13.5501 4.90002 13.1001C4.80003 12.8001 4.7 12.4501 4.7 12.1001C4.7 10.6501 5.80002 9.4501 7.19998 9.3001C7.19998 9.25008 7.19998 9.20011 7.19998 9.1501C7.19998 7.75008 8.34997 6.6001 9.74998 6.6001C11.15 6.6001 12.3 7.75008 12.3 9.1501V21.4501C12.35 22.8501 11.2 24.0001 9.8 24.0001ZM7.74997 20.2501C7.84995 20.2501 7.94998 20.3001 7.99995 20.35C8.09994 20.45 8.09994 20.6 8.04997 20.7001C7.94998 20.95 7.89997 21.1501 7.89997 21.4C7.89997 22.45 8.74995 23.2501 9.74998 23.2501C10.8 23.2501 11.6 22.4001 11.6 21.4V9.15005C11.6 8.10005 10.75 7.30004 9.74998 7.30004C8.69998 7.30004 7.89997 8.15002 7.89997 9.15005C7.89997 9.30005 7.89997 9.45005 7.94998 9.55004C8 9.65002 7.94998 9.80002 7.85 9.85004C7.75002 9.95002 7.64998 9.95002 7.55 9.95002C6.40002 9.95002 5.39998 10.9 5.39998 12.1C5.39998 12.4501 5.49997 12.8 5.64997 13.1C5.69998 13.2 5.69998 13.3 5.64997 13.4C5.59995 13.5 5.54998 13.55 5.44995 13.6C4.69995 13.85 4.14997 14.5501 4.14997 15.35C4.14997 16.25 4.79998 17 5.64997 17.2C5.74995 17.2 5.84998 17.3 5.89995 17.4001C5.94997 17.5 5.94997 17.65 5.84994 17.7501C5.69994 18.0001 5.59995 18.3001 5.59995 18.6501C5.59995 19.5501 6.34995 20.3001 7.24995 20.3001C7.34994 20.3001 7.49994 20.3001 7.54995 20.2501C7.7 20.2501 7.7 20.2501 7.74997 20.2501Z" fill="#55C0EB"/>
<path d="M8.85 10.9C8.75001 10.9 8.60001 10.85 8.55 10.7C8.45001 10.55 8.49998 10.3 8.7 10.25C9.50001 9.80002 9.3 9.15 9.3 9.15C9.24998 8.94999 9.35001 8.75002 9.54998 8.7C9.75 8.64999 9.94997 8.75002 9.99998 8.94999C10.1 9.34997 10.1 10.3 9.09998 10.85C8.94998 10.9 8.90001 10.9 8.85 10.9Z" fill="#55C0EB"/>
<path d="M8.75007 18.45C8.65008 18.45 8.55005 18.4 8.45007 18.3C7.95005 17.55 7.00008 17.65 7.00008 17.65C6.80007 17.65 6.65007 17.55 6.6001 17.35C6.6001 17.15 6.70008 17 6.9001 16.95C6.95011 16.95 8.2501 16.8 9.0001 17.9C9.10008 18.05 9.05011 18.25 8.90011 18.4C8.85005 18.45 8.80004 18.45 8.75007 18.45Z" fill="#55C0EB"/>
<path d="M5.90008 17.95C5.8001 17.95 5.70007 17.95 5.6501 17.95C5.45008 17.9 5.3501 17.75 5.3501 17.55C5.40011 17.35 5.55011 17.25 5.75008 17.25C5.8001 17.25 6.80008 17.35 7.1501 16.6C7.25008 16.4 7.4501 16.35 7.6001 16.4C7.80011 16.5 7.85008 16.7 7.80011 16.85C7.35007 17.7 6.50008 17.95 5.90008 17.95Z" fill="#55C0EB"/>
<path d="M9.74991 17.4001C9.64993 17.4001 9.49993 17.3501 9.44991 17.2501C8.74993 16.1501 8.89993 15.4001 9.14991 14.9001C9.49993 14.2001 10.2499 13.9001 10.4999 13.8501C10.6999 13.8501 10.8499 14.0001 10.8499 14.2001C10.8499 14.4001 10.6999 14.5501 10.5499 14.5501C10.4499 14.5501 9.94993 14.8001 9.74991 15.2501C9.5499 15.7001 9.64993 16.2001 10.0499 16.8501C10.1499 17.0001 10.0999 17.2501 9.94993 17.3501C9.8499 17.4001 9.79993 17.4001 9.74991 17.4001Z" fill="#55C0EB"/>
<path d="M7.74999 20.9501C7.69998 20.9501 7.59999 20.9501 7.54998 20.9C7.39998 20.8001 7.34996 20.6 7.44999 20.4C7.74999 19.95 8.59998 19.2 9.79998 19.75C9.99999 19.85 10.05 20.05 9.94998 20.2C9.84999 20.4 9.64998 20.45 9.49998 20.35C8.54996 19.95 8.04999 20.65 7.99998 20.75C8.00002 20.9001 7.85002 20.9501 7.74999 20.9501Z" fill="#55C0EB"/>
<path d="M7.94988 20.7001C7.89987 20.7001 7.8499 20.7001 7.79988 20.6501C7.59986 20.5501 7.5499 20.3501 7.59986 20.2001C7.59986 20.1501 7.79988 19.6501 7.19988 19.2501C7.04988 19.1501 6.99986 18.9001 7.0999 18.7501C7.19988 18.6001 7.44991 18.55 7.59991 18.6501C8.4499 19.2501 8.34991 20.1001 8.19991 20.4501C8.19987 20.6501 8.04987 20.7001 7.94988 20.7001Z" fill="#55C0EB"/>
<path d="M9.49984 22.2C9.34984 22.2 9.19984 22.2 9.04984 22.15C8.84983 22.1 8.74984 21.9 8.79986 21.75C8.84987 21.55 9.04984 21.45 9.19984 21.5C10.0498 21.7001 10.2999 21.05 10.3498 21C10.3998 20.8 10.6498 20.75 10.7998 20.8C10.9998 20.85 11.0498 21.1 10.9998 21.25C10.7998 21.65 10.3498 22.2 9.49984 22.2Z" fill="#55C0EB"/>
<path d="M10.5999 11.9001C10.5499 11.9001 10.4499 11.9001 10.3999 11.8501C9.19991 11.0001 9.29989 9.50009 9.29989 9.45008C9.29989 9.25006 9.49991 9.10006 9.69988 9.15008C9.89989 9.15008 10.0499 9.35009 9.99988 9.55006C9.99988 9.60008 9.89989 10.7 10.7999 11.3C10.9499 11.4 10.9999 11.6501 10.8999 11.8001C10.7999 11.8501 10.7 11.9001 10.5999 11.9001Z" fill="#55C0EB"/>
<path d="M7.25005 14.1C7.15007 14.1 7.10005 14.1 7.05004 14.05C6.60004 13.7 6.00004 13.55 5.40004 13.7C5.20002 13.75 5.00005 13.65 5.00005 13.45C4.95004 13.25 5.05007 13.05 5.25004 13.05C6.05005 12.85 6.85002 13.05 7.50004 13.5501C7.65004 13.65 7.70005 13.9001 7.55005 14.0501C7.45002 14.05 7.35004 14.1 7.25005 14.1Z" fill="#55C0EB"/>
<path d="M6.30021 13.6501C6.1002 13.6501 5.9502 13.5001 5.9502 13.3001C5.9502 13.1 6.1002 12.95 6.30021 12.95C6.35023 12.95 7.1502 12.9 7.50021 11.6501C7.55023 11.45 7.7502 11.3501 7.9002 11.4001C8.10021 11.4501 8.2002 11.6501 8.15018 11.8001C7.70023 13.6001 6.4002 13.6501 6.30021 13.6501Z" fill="#55C0EB"/>
<path d="M9.29998 16.3001C9.2 16.3001 9.09997 16.25 9.05 16.2001C8.99998 16.1501 7.79998 14.9501 6.25001 15.7001C6.10001 15.8 5.85003 15.7001 5.80001 15.5501C5.70003 15.4001 5.80001 15.1501 5.95001 15.1001C7.55 14.3 9.00003 15.2 9.55001 15.7501C9.70001 15.9001 9.70001 16.1001 9.55001 16.2501C9.44998 16.2501 9.39996 16.3001 9.29998 16.3001Z" fill="#55C0EB"/>
<path d="M12 9.15006V21.4501C12 22.6501 13 23.65 14.2 23.65C15.4 23.65 16.4 22.6501 16.4 21.4501C16.4 21.1501 16.35 20.8501 16.25 20.6001C16.4 20.6501 16.5 20.6501 16.65 20.6501C17.75 20.6501 18.65 19.7501 18.65 18.6501C18.65 18.2501 18.55 17.9001 18.35 17.6001C19.4 17.4001 20.15 16.5001 20.15 15.4501C20.15 14.4501 19.5 13.6501 18.6 13.3501C18.8 13 18.9 12.6001 18.9 12.1501C18.9 10.8001 17.7999 9.65007 16.4 9.65007H16.35C16.4 9.50007 16.4 9.35007 16.4 9.15006C16.4 7.95006 15.4 6.95007 14.2 6.95007C13 6.95007 12 7.95006 12 9.15006Z" fill="#8AD7F8"/>
<path d="M14.1999 24C12.7999 24 11.6499 22.85 11.6499 21.45V9.14998C11.6499 7.74996 12.7999 6.59998 14.1999 6.59998C15.5999 6.59998 16.7499 7.74996 16.7499 9.14998C16.7499 9.19999 16.7499 9.24996 16.7499 9.29998C18.1499 9.44998 19.2499 10.65 19.2499 12.1C19.2499 12.45 19.1999 12.7999 19.0499 13.0999C19.8999 13.5499 20.4499 14.3999 20.4499 15.4C20.4499 16.5 19.7999 17.4499 18.7999 17.8C18.8999 18.0499 18.9499 18.3499 18.9499 18.6499C18.9499 19.9 17.9499 20.95 16.6999 20.9999C16.7499 21.1499 16.7499 21.2999 16.7499 21.4499C16.7499 22.85 15.5999 24 14.1999 24ZM14.1999 7.29996C13.1499 7.29996 12.3499 8.14994 12.3499 9.14998V21.45C12.3499 22.5 13.1999 23.3 14.1999 23.3C15.2499 23.3 16.0499 22.45 16.0499 21.45C16.0499 21.2 15.9999 20.95 15.8999 20.75C15.8499 20.65 15.8499 20.5 15.9499 20.4C16.0499 20.3 16.1499 20.25 16.2999 20.3C16.3999 20.3 16.5 20.35 16.5999 20.35C17.4999 20.35 18.2499 19.6 18.2499 18.7C18.2499 18.4 18.15 18.1 18 17.8C17.9499 17.7 17.9499 17.6 17.9499 17.45C18 17.35 18.0999 17.25 18.1999 17.25C19.0999 17.1 19.6999 16.3 19.6999 15.4C19.6999 14.5999 19.1999 13.9 18.3999 13.65C18.3 13.6 18.1999 13.55 18.1999 13.45C18.1499 13.35 18.1499 13.2499 18.1999 13.15C18.3499 12.85 18.4499 12.4999 18.4499 12.15C18.4499 10.95 17.4999 9.99996 16.2999 9.99996C16.1999 9.99996 16.0499 9.99996 15.9999 9.89998C15.8999 9.79999 15.8999 9.69996 15.8999 9.59998C15.9499 9.49999 15.9499 9.34999 15.9499 9.19999C16.0499 8.14999 15.2499 7.29996 14.1999 7.29996Z" fill="#55C0EB"/>
<path d="M15.1499 10.9C15.0999 10.9 15.0499 10.9 14.9999 10.85C13.9999 10.25 13.9499 9.34997 14.0999 8.94999C14.1499 8.74997 14.3499 8.64999 14.5499 8.70001C14.7499 8.75002 14.8499 8.94999 14.7999 9.15001C14.7999 9.20002 14.6499 9.80002 15.3999 10.25C15.5499 10.35 15.6499 10.55 15.5499 10.7C15.3999 10.85 15.2499 10.9 15.1499 10.9Z" fill="#55C0EB"/>
<path d="M15.25 18.45C15.2 18.45 15.1 18.45 15.05 18.4C14.9 18.3 14.85 18.05 14.95 17.9C15.7 16.85 17 16.9499 17.05 16.9499C17.25 16.9499 17.4 17.15 17.35 17.3499C17.35 17.5499 17.15 17.6499 16.95 17.6499C16.9 17.6499 16 17.5499 15.5 18.2999C15.5 18.4 15.4 18.45 15.25 18.45Z" fill="#55C0EB"/>
<path d="M18.0997 17.95C17.4997 17.95 16.6497 17.7499 16.2497 16.8499C16.1497 16.6499 16.2497 16.45 16.4497 16.3999C16.6497 16.3 16.8497 16.3999 16.8997 16.6C17.2497 17.4 18.2497 17.3 18.2997 17.25C18.4997 17.2 18.6497 17.35 18.6997 17.55C18.7497 17.75 18.5997 17.9 18.3997 17.95C18.2997 17.95 18.1997 17.95 18.0997 17.95Z" fill="#55C0EB"/>
<path d="M14.2498 17.4C14.1998 17.4 14.0998 17.4 14.0498 17.35C13.8998 17.25 13.8498 17.05 13.9498 16.85C14.3498 16.25 14.4499 15.7 14.2498 15.25C14.0498 14.8 13.5499 14.55 13.4498 14.55C13.2498 14.55 13.0998 14.4 13.1498 14.2C13.1498 14 13.3498 13.85 13.4998 13.85C13.7498 13.85 14.4998 14.2 14.8498 14.9C15.0998 15.35 15.1999 16.15 14.4998 17.25C14.4998 17.35 14.3498 17.4 14.2498 17.4Z" fill="#55C0EB"/>
<path d="M16.2497 20.9499C16.1497 20.9499 15.9997 20.8999 15.9497 20.7999C15.8997 20.6999 15.3997 19.9999 14.4497 20.3999C14.2497 20.4999 14.0497 20.3999 13.9997 20.2499C13.8997 20.0499 13.9997 19.85 14.1497 19.7999C15.3497 19.25 16.2497 20 16.4997 20.45C16.5997 20.6 16.5497 20.8499 16.3997 20.95C16.3997 20.9 16.2997 20.9499 16.2497 20.9499Z" fill="#55C0EB"/>
<path d="M16.05 20.7C15.9 20.7 15.8 20.6 15.75 20.5C15.6 20.1499 15.55 19.3 16.35 18.7C16.5 18.6 16.7 18.6 16.85 18.7999C16.95 18.9499 16.95 19.15 16.7501 19.3C16.1501 19.75 16.3501 20.25 16.3501 20.25C16.4501 20.45 16.3501 20.65 16.1501 20.7C16.15 20.7 16.1 20.7 16.05 20.7Z" fill="#55C0EB"/>
<path d="M14.5 22.2C13.65 22.2 13.15 21.6 13 21.25C12.95 21.05 13 20.85 13.2 20.8C13.4 20.75 13.6 20.8 13.65 21C13.7 21.0501 13.95 21.6501 14.8 21.5001C15 21.45 15.15 21.6 15.2 21.75C15.25 21.9501 15.1 22.1001 14.95 22.15C14.8 22.2 14.65 22.2 14.5 22.2Z" fill="#55C0EB"/>
<path d="M13.3999 11.9C13.2999 11.9 13.1998 11.8499 13.0999 11.75C12.9999 11.6 12.9999 11.3999 13.1998 11.2499C14.0998 10.5999 13.9999 9.54993 13.9999 9.49996C13.9999 9.29994 14.0998 9.14994 14.2999 9.09998C14.4999 9.09998 14.6499 9.19996 14.6998 9.39998C14.6998 9.44999 14.8498 10.9 13.5998 11.8C13.5499 11.9 13.4998 11.9 13.3999 11.9Z" fill="#55C0EB"/>
<path d="M16.7498 14.0999C16.6499 14.0999 16.5498 14.0499 16.4999 13.9499C16.3999 13.7999 16.3999 13.5999 16.5499 13.4499C17.1999 12.9499 17.9999 12.7999 18.7999 12.9499C18.9999 12.9999 19.0999 13.1999 19.0499 13.3499C18.9998 13.5499 18.7999 13.6499 18.6499 13.5999C18.0999 13.4499 17.4999 13.5999 16.9999 13.9499C16.8998 14.0999 16.7999 14.0999 16.7498 14.0999Z" fill="#55C0EB"/>
<path d="M17.6997 13.65C17.5997 13.65 16.2997 13.6 15.8497 11.85C15.7996 11.65 15.8997 11.45 16.0996 11.45C16.2997 11.4 16.4996 11.5 16.4996 11.7C16.8496 13 17.6996 13 17.6996 13C17.8996 13 18.0496 13.15 18.0496 13.35C18.0497 13.45 17.8997 13.65 17.6997 13.65Z" fill="#55C0EB"/>
<path d="M14.6999 16.3C14.5999 16.3 14.5499 16.25 14.4499 16.2C14.2999 16.05 14.2999 15.85 14.4499 15.7C14.9999 15.15 16.4499 14.25 18.0499 15.05C18.1999 15.15 18.2999 15.35 18.1999 15.5C18.0999 15.65 17.8999 15.75 17.7499 15.65C16.1999 14.9 14.9999 16.15 14.9499 16.15C14.8999 16.25 14.7999 16.3 14.6999 16.3Z" fill="#55C0EB"/>
</g>
<defs>
<clipPath id="clip0_1935_62102">
<rect width="24" height="24" fill="white"/>
</clipPath>
</defs>
</svg>
