<svg width="24" height="24" viewBox="0 0 24 24" fill="none" xmlns="http://www.w3.org/2000/svg">
<g clip-path="url(#clip0_1935_61908)">
<path d="M20.2587 14.9962C20.0507 13.7873 19.8543 12.6455 19.9213 11.7908C20.1409 8.98859 18.9159 7.46852 17.8495 6.68674C17.7739 6.63136 17.6792 6.60839 17.5868 6.62314C17.0457 6.70898 15.679 6.97194 14.6783 7.55811C14.5244 7.64828 14.4625 7.83956 14.5345 8.00277C14.6124 8.17941 14.6819 8.36126 14.7413 8.5431C14.8663 8.9264 14.9584 9.33808 15.0147 9.76654C15.0553 10.0752 14.9565 10.3839 14.7436 10.6133C14.5281 10.8455 14.2232 10.9683 13.9055 10.9508C13.3998 10.9225 12.9837 10.5337 12.916 10.0262C12.8692 9.67457 12.8025 9.37233 12.7179 9.12781C12.597 8.77843 12.4374 8.4758 12.2438 8.22817C12.2421 8.22608 12.2405 8.22389 12.2387 8.2218C12.2337 8.21566 12.2289 8.20934 12.2241 8.20311L12.2204 8.19829C12.2186 8.19605 12.2169 8.19381 12.215 8.19158C11.7681 7.6419 11.2395 7.47505 10.8807 7.39733C10.5865 7.33359 10.185 7.28128 9.68737 7.24176C9.53053 7.2295 9.38435 7.32288 9.33 7.47067C8.99336 8.38637 8.87925 9.19166 8.87784 9.20158C8.8086 9.72133 8.36131 10.1133 7.83733 10.1133C7.79047 10.1133 7.74292 10.1102 7.69611 10.1039C7.12099 10.0273 6.7156 9.49632 6.79229 8.92047C6.7954 8.8974 6.87034 8.34676 7.08167 7.59344C7.0826 7.59018 7.08347 7.58682 7.08425 7.58375C7.09126 7.55572 7.09427 7.52765 7.09442 7.49996C7.10989 7.4748 7.12333 7.44804 7.13223 7.4186V7.41855C7.13238 7.41811 7.13247 7.41777 7.13262 7.41733L7.13788 7.39977C7.1478 7.36638 7.15252 7.33261 7.15257 7.29948C7.15262 7.14814 7.05403 7.00839 6.90158 6.96294C6.73302 6.91272 6.55701 6.9952 6.48426 7.14945C6.46923 7.1495 6.45395 7.14955 6.43906 7.14965C6.34962 7.15009 6.26378 7.18464 6.19891 7.24619C4.91115 8.46948 4.14124 10.5055 4.18966 12.5596C4.19019 12.5806 4.19107 12.6017 4.19204 12.6229C4.19301 12.6445 4.19413 12.6661 4.19408 12.6878C4.19224 14.0665 4.64736 15.6185 5.51026 17.1762C6.33667 18.6679 7.47738 20.0672 8.80909 21.2227C9.91729 22.1843 11.1301 22.9405 12.3165 23.4098C13.3095 23.8026 14.2775 24 15.2052 24C15.5087 24 15.8078 23.9789 16.1022 23.9365C17.8328 23.6877 19.0411 23.0622 19.7959 22.0243C21.1478 20.1657 20.6754 17.4193 20.2587 14.9962Z" fill="#EF3A47"/>
<path d="M4.98832 8.92064C4.91163 9.49649 5.31707 10.0275 5.89214 10.1041C5.93896 10.1104 5.9865 10.1135 6.03336 10.1135C6.41106 10.1135 6.74804 9.90923 6.93315 9.60082C6.8148 9.40331 6.75957 9.16613 6.79232 8.92059C6.79539 8.89753 6.87037 8.34688 7.08171 7.59356C7.08263 7.5903 7.08351 7.58694 7.08429 7.58388C7.0913 7.55585 7.09431 7.52777 7.09446 7.50008C7.10993 7.47492 7.12336 7.44816 7.13227 7.41872V7.41867C7.13241 7.41823 7.13251 7.41789 7.13266 7.41746L7.13791 7.39989C7.14784 7.36651 7.15256 7.33274 7.15261 7.2996C7.15266 7.14826 7.05407 7.00851 6.90161 6.96306C6.73305 6.91284 6.55705 6.99532 6.4843 7.14958C6.46926 7.14963 6.45398 7.14967 6.43909 7.14977C6.34965 7.15021 6.26382 7.18476 6.19895 7.24631C5.71828 7.7029 5.30992 8.27277 4.98914 8.91451C4.98875 8.91733 4.98841 8.91967 4.98832 8.92064Z" fill="#CE3043"/>
<path d="M10.411 8.19173C10.4128 8.19392 10.4146 8.19616 10.4164 8.19845L10.4201 8.20326C10.4249 8.20949 10.4297 8.21582 10.4347 8.22195C10.4365 8.22404 10.4381 8.22618 10.4398 8.22832C10.6335 8.47591 10.793 8.77858 10.9139 9.12797C10.9985 9.37249 11.0652 9.67472 11.1121 10.0263C11.1797 10.5338 11.5958 10.9227 12.1015 10.951C12.4192 10.9684 12.7241 10.8457 12.9397 10.6134C12.9878 10.5616 13.0297 10.5055 13.0659 10.4465C12.9891 10.3216 12.9364 10.1795 12.9161 10.0263C12.8692 9.67472 12.8025 9.37249 12.7179 9.12797C12.597 8.77858 12.4375 8.47596 12.2439 8.22832C12.2422 8.22623 12.2405 8.22404 12.2387 8.22195C12.2337 8.21582 12.2289 8.20949 12.2241 8.20326L12.2204 8.19845C12.2186 8.19621 12.2169 8.19397 12.215 8.19173C11.7681 7.64206 11.2395 7.4752 10.8808 7.39749C10.5865 7.33374 10.185 7.28143 9.6874 7.24192C9.53295 7.22985 9.38926 7.32055 9.33301 7.4644C9.6622 7.56649 10.0614 7.76176 10.411 8.19173Z" fill="#CE3043"/>
<path d="M20.2587 14.9962C20.0508 13.7873 19.8544 12.6455 19.9214 11.7908C20.141 8.98859 18.9159 7.46852 17.8495 6.68674C17.774 6.63136 17.6793 6.60839 17.5869 6.62314C17.3183 6.66577 16.8461 6.75209 16.3163 6.89992C17.3073 7.73305 18.3186 9.22367 18.1174 11.7908C18.0504 12.6455 18.2468 13.7873 18.4547 14.9962C18.8715 17.4193 19.3439 20.1657 17.9921 22.0244C17.2372 23.0623 16.029 23.6877 14.2984 23.9366C14.296 23.937 14.2935 23.9372 14.291 23.9375C14.5997 23.979 14.9047 24 15.2055 24C15.5089 24 15.8081 23.9789 16.1025 23.9366C17.8331 23.6877 19.0413 23.0623 19.7962 22.0244C21.1479 20.1657 20.6755 17.4193 20.2587 14.9962Z" fill="#CE3043"/>
<path d="M12.1207 18.8316C11.105 18.139 10.3679 17.3558 9.83422 16.6046H10.7292C10.9231 16.6046 11.0803 16.4473 11.0803 16.2534C11.0803 16.0595 10.9231 15.9023 10.7292 15.9023H9.38503C9.15545 15.5019 8.98119 15.1234 8.8502 14.7882C8.36962 13.5589 8.34184 12.6239 8.34164 12.6146C8.33736 12.421 8.17727 12.2676 7.9834 12.2713C7.78954 12.2753 7.63552 12.4356 7.63951 12.6296C7.64029 12.6682 7.66268 13.5167 8.06666 14.6909C7.81299 15.4203 7.64934 16.728 7.64209 16.7866C7.6183 16.9792 7.75508 17.1544 7.94749 17.1782C7.96214 17.1801 7.97664 17.1809 7.99099 17.1809C8.16573 17.1809 8.31712 17.0506 8.33906 16.8728C8.36617 16.6535 8.43069 16.2083 8.51721 15.7684C8.61911 15.9735 8.73463 16.1865 8.86523 16.4045C8.87516 16.4252 8.88698 16.4448 8.90061 16.4631C9.20712 16.9664 9.59437 17.4947 10.0837 18.0145C10.0534 18.3549 10.0029 19.117 10.1062 19.575C10.143 19.7382 10.2878 19.849 10.4485 19.849C10.474 19.849 10.5 19.8462 10.526 19.8404C10.7152 19.7977 10.834 19.6098 10.7913 19.4206C10.7489 19.2324 10.7421 18.9397 10.7498 18.6565C11.0453 18.9158 11.369 19.1692 11.7251 19.412C11.7856 19.4533 11.8545 19.4731 11.9226 19.4731C12.0348 19.4731 12.1451 19.4194 12.2131 19.3197C12.3223 19.1593 12.281 18.9409 12.1207 18.8316Z" fill="#F2CA5A"/>
<path d="M18.9041 12.9442C18.7147 12.6791 18.184 12.3024 17.9242 12.1266C17.8007 11.5109 17.5945 10.9096 17.3081 10.3319C17.3013 10.315 17.2933 10.2987 17.284 10.2832C17.1108 9.9398 16.9093 9.60502 16.6798 9.28074C15.9061 8.18752 15.0944 7.60009 15.0603 7.57566C14.9026 7.46282 14.6832 7.49902 14.5703 7.65678C14.4574 7.81449 14.4937 8.03385 14.6514 8.1467C14.6701 8.16008 15.8325 9.01014 16.6282 10.5483C16.5739 10.9882 15.9625 11.6907 15.5176 12.0726C15.3704 12.1987 15.3532 12.4202 15.4793 12.5675C15.5487 12.6486 15.6472 12.6904 15.7462 12.6904C15.827 12.6904 15.9082 12.6626 15.9744 12.606C15.9882 12.5942 16.3149 12.3134 16.6416 11.927C16.7866 11.7555 16.9088 11.5901 17.0085 11.4309C17.2703 12.1834 17.4183 13.0545 17.338 14.0331C17.3221 14.2264 17.4659 14.396 17.6592 14.4118C17.669 14.4126 17.6787 14.413 17.6883 14.413C17.8693 14.413 18.0229 14.2741 18.038 14.0905C18.0656 13.7547 18.0688 13.4202 18.049 13.0883C18.1839 13.1966 18.2899 13.2925 18.3326 13.3523C18.4012 13.4483 18.5091 13.4994 18.6187 13.4994C18.6893 13.4994 18.7606 13.4781 18.8225 13.434C18.9802 13.3213 19.0168 13.102 18.9041 12.9442Z" fill="#F2CA5A"/>
<path d="M8.30302 4.54436C8.24414 4.42987 8.12736 4.35678 7.9986 4.35395C6.55537 4.3216 5.25461 4.35882 5.00844 4.36666C4.04159 4.39731 3.27985 5.20888 3.31046 6.17577C3.3253 6.64428 3.52146 7.07887 3.86281 7.39954C4.1904 7.70728 4.61423 7.87481 5.06177 7.87481C5.08099 7.87481 5.10026 7.87447 5.11953 7.87389C5.56823 7.85973 6.17523 7.85126 6.74329 7.85126C6.90071 7.85126 7.03886 7.7465 7.08144 7.59492C7.24256 7.02033 7.43876 6.48263 7.66474 5.99675C7.84902 5.6004 8.05636 5.23228 8.28093 4.90275C8.35344 4.79638 8.36195 4.65886 8.30302 4.54436Z" fill="#F77474"/>
<path d="M8.28079 4.90276C8.35325 4.79639 8.36181 4.65882 8.30288 4.54437C8.244 4.42987 8.12722 4.35678 7.99846 4.35396C7.45599 4.3418 6.93371 4.33946 6.47995 4.3417C5.96619 5.04899 5.35637 6.64219 5.26294 7.86976C5.69286 7.85813 6.23348 7.85132 6.74316 7.85132C6.90057 7.85132 7.03872 7.74655 7.0813 7.59497C7.24242 7.02039 7.43862 6.48268 7.6646 5.9968C7.84883 5.60041 8.05617 5.23234 8.28079 4.90276Z" fill="#E55555"/>
<path d="M16.5205 4.1555C16.231 3.80382 15.9072 3.49084 15.5553 3.22257L15.9729 1.83602C16.0682 1.51953 16.0346 1.18484 15.8782 0.893658C15.7217 0.602422 15.4613 0.389579 15.1448 0.294301C14.8283 0.198877 14.4936 0.232599 14.2024 0.388995C13.9112 0.545391 13.6983 0.805825 13.6031 1.12236L13.2804 2.19383C13.2689 2.19149 13.2575 2.18916 13.2459 2.18687V1.2375C13.246 0.555124 12.6909 0 12.0085 0C11.3262 0 10.771 0.555124 10.771 1.2375V2.22507C10.7632 2.22706 10.7555 2.22916 10.7477 2.2312L10.4139 1.12241C10.2171 0.469091 9.52542 0.0976624 8.8721 0.294301C8.55561 0.389628 8.29513 0.602471 8.13868 0.893658C7.98229 1.18489 7.94862 1.51958 8.04394 1.83602L8.54393 3.49634C7.95071 4.07078 7.44123 4.8112 7.02771 5.70058C6.31483 7.23374 6.10471 8.76315 6.09609 8.82762C5.96821 9.78751 6.64436 10.6724 7.60327 10.8001C7.68069 10.8105 7.75942 10.8157 7.83728 10.8157C8.71181 10.8157 9.45842 10.1617 9.57365 9.29681C9.57467 9.28946 9.68119 8.55191 9.9879 7.71655C9.98838 7.71533 9.98882 7.71407 9.98931 7.7128C10.0051 7.66979 10.0216 7.62648 10.0385 7.58307L10.0483 7.55792C10.0657 7.51368 10.0835 7.46921 10.1011 7.42692C10.1016 7.4257 10.1023 7.42419 10.1029 7.42264C10.1205 7.3804 10.1388 7.33807 10.1575 7.29563L10.1717 7.26361C10.1911 7.2204 10.2107 7.17719 10.2312 7.13413C10.9716 5.57586 11.752 5.57586 12.0084 5.57586C12.4547 5.57586 12.828 5.65849 13.1498 5.82846C13.2598 5.88651 13.3921 5.88208 13.4979 5.81693C14.2652 5.34448 15.2174 4.97577 16.3279 4.72094C16.4465 4.69373 16.5426 4.60707 16.5818 4.49189C16.6211 4.37676 16.5979 4.24951 16.5205 4.1555Z" fill="#9B3E2C"/>
<path d="M14.4202 4.95635C13.8049 4.4533 12.9924 4.09875 11.9231 4.09875C8.235 4.09875 7.6499 10.4522 7.6499 10.4522C7.6499 10.4522 7.64299 10.5998 7.63525 10.8034C7.70245 10.8111 7.77024 10.8158 7.83749 10.8158C8.71202 10.8158 9.45863 10.1618 9.57386 9.29686C9.57488 9.28951 9.6814 8.55196 9.98811 7.7166C9.98859 7.71538 9.98903 7.71411 9.98952 7.71285C10.0053 7.66983 10.0218 7.62652 10.0387 7.58312L10.0485 7.55796C10.0659 7.51373 10.0837 7.46925 10.1013 7.42697C10.1018 7.42575 10.1025 7.42424 10.1031 7.42268C10.1207 7.38045 10.139 7.33811 10.1577 7.29568L10.172 7.26366C10.1913 7.22045 10.211 7.17724 10.2315 7.13417C10.9718 5.57591 11.7523 5.57591 12.0087 5.57591C12.4549 5.57591 12.8282 5.65853 13.1501 5.8285C13.26 5.88656 13.3924 5.88213 13.4982 5.81697C13.8597 5.5944 14.2628 5.39513 14.7037 5.21961C14.6205 5.13353 14.5264 5.0456 14.4202 4.95635Z" fill="#7A232E"/>
<path d="M19.8259 5.36469C19.7501 4.40047 18.9041 3.67737 17.9393 3.75299C17.6397 3.77654 15.032 4.01425 13.052 5.26727C12.8144 5.12693 12.5608 5.00426 12.2956 4.90129C12.26 4.88742 12.2223 4.87954 12.1841 4.87783C12.1182 4.87487 12.0624 4.87355 12.0084 4.87355C11.012 4.87355 10.2232 5.51442 9.59678 6.83274C9.50209 7.03205 9.41231 7.24674 9.32993 7.47083C9.29202 7.57394 9.30452 7.68888 9.36379 7.78138C9.42306 7.87389 9.52218 7.93335 9.63177 7.94206C10.0982 7.97909 10.4684 8.02683 10.7321 8.08391C11.0082 8.14371 11.3639 8.26006 11.6675 8.63154L11.6682 8.63236C11.6762 8.64283 11.6843 8.65324 11.6927 8.66356C11.8375 8.84944 11.9591 9.08291 12.0542 9.35756C12.1234 9.5577 12.1792 9.8139 12.2198 10.1191C12.332 10.9603 13.0244 11.605 13.8677 11.6522C13.901 11.6541 13.9341 11.655 13.9673 11.655C14.4569 11.655 14.923 11.4527 15.2585 11.091C15.614 10.7078 15.779 10.1917 15.7111 9.67492C15.6491 9.20369 15.5474 8.74954 15.409 8.32522C15.3758 8.22351 15.3398 8.12186 15.3012 8.02094C16.2415 7.56007 17.5521 7.30582 18.2166 7.25107C19.1796 7.17419 19.9016 6.32793 19.8259 5.36469Z" fill="#F77474"/>
<path d="M19.474 5.36963C19.4738 5.36948 19.4737 5.36938 19.4735 5.36924C16.9329 5.6103 15.1466 6.33306 14.1938 6.81923C13.7323 7.05475 13.5009 7.58389 13.64 8.08305C13.8591 8.8698 14.2255 10.5418 14.4165 11.5969C14.7357 11.5128 15.0279 11.3395 15.2585 11.091C15.6141 10.7077 15.779 10.1916 15.7111 9.6749C15.6491 9.20367 15.5475 8.74951 15.409 8.32519C15.3759 8.22349 15.3398 8.12184 15.3012 8.02091C16.2415 7.56005 17.5521 7.30579 18.2166 7.25105C19.1797 7.17412 19.9017 6.3279 19.826 5.36466V5.36461C19.8257 5.36135 19.8252 5.35814 19.8249 5.35493C19.7158 5.35332 19.5993 5.3578 19.474 5.36963Z" fill="#E55555"/>
<path d="M10.8817 8.12112C11.2711 7.15082 12.4119 5.59445 13.0523 5.26725C12.8146 5.12691 12.5611 5.00424 12.2959 4.90127C12.2602 4.8874 12.2225 4.87952 12.1843 4.87782C12.1185 4.87485 12.0626 4.87354 12.0087 4.87354C11.0123 4.87354 10.2234 5.5144 9.59703 6.83272C9.50233 7.03204 9.41255 7.24673 9.33017 7.47081C9.29226 7.57392 9.30477 7.68886 9.36404 7.78136C9.42331 7.87387 9.52243 7.93333 9.63201 7.94204C10.0984 7.97907 10.4686 8.02681 10.7323 8.08389C10.7798 8.09425 10.83 8.10642 10.8817 8.12112Z" fill="#E55555"/>
</g>
<defs>
<clipPath id="clip0_1935_61908">
<rect width="24" height="24" fill="white"/>
</clipPath>
</defs>
</svg>
