<svg width="24" height="24" viewBox="0 0 24 24" fill="none" xmlns="http://www.w3.org/2000/svg">
<g clip-path="url(#clip0_1935_61995)">
<path fill-rule="evenodd" clip-rule="evenodd" d="M16.5748 15.9361C14.4148 15.8854 12.2398 16.5972 10.0562 17.747C7.79234 15.9212 3.83647 15.5064 2.30469 16.4292L6.0935 11.4408C6.59427 10.7807 7.11678 9.48028 7.15686 8.32326C7.15878 8.27788 7.15977 8.23298 7.15977 8.18854L7.16122 7.5989L7.16412 6.39215L7.16558 5.66779L7.16848 4.46053L7.17041 3.73617L7.17523 1.68384H12.0795L12.0945 8.18845C12.0974 9.37781 12.6406 10.755 13.1622 11.4408L16.5748 15.9361Z" fill="#F9F7F8"/>
<path fill-rule="evenodd" clip-rule="evenodd" d="M0.724121 19.3008C5.71481 19.9852 8.23617 18.1236 10.0567 16.3783C7.79264 14.5522 3.83676 15.5063 2.30507 16.4289L1.68914 17.2393C1.2607 17.8046 0.92259 18.5329 0.724121 19.3008Z" fill="#A1D4FF"/>
<path fill-rule="evenodd" clip-rule="evenodd" d="M3.41634 24H9.62799H15.8383C16.8895 24 17.615 23.6222 18.0776 23.0336C19.133 21.3609 18.387 18.4151 17.6081 17.2967L16.5747 15.9361C14.0574 14.4892 12.2397 15.2284 10.0564 16.3782C7.76227 17.5869 5.06433 19.2487 0.723844 19.3007C0.154453 21.4882 0.702 24 3.41634 24Z" fill="#22A6FE"/>
<path fill-rule="evenodd" clip-rule="evenodd" d="M22.3746 3.43298V12.5211C21.7159 12.9606 20.6482 12.9606 19.9915 12.5211C19.3328 12.0817 18.2666 12.0817 17.6084 12.5211V3.43298H22.3746Z" fill="#F9F7F8"/>
<path fill-rule="evenodd" clip-rule="evenodd" d="M17.6081 3.91628H22.3743H22.4729C23.0258 3.91628 23.4789 3.42897 23.4789 2.83351C23.4789 2.2367 23.0258 1.74939 22.4729 1.74939H17.5095C16.9551 1.74939 16.5034 2.2367 16.5034 2.83351C16.5034 3.42897 16.9551 3.91628 17.5095 3.91628H17.6081Z" fill="#A1D4FF"/>
<path fill-rule="evenodd" clip-rule="evenodd" d="M7.17509 2.16689H12.0795H12.2999C12.8967 2.16689 13.384 1.67958 13.384 1.08277C13.384 0.487313 12.8953 0 12.2999 0H6.95468C6.35923 0 5.87061 0.487313 5.87061 1.08277C5.87061 1.67958 6.35792 2.16689 6.95468 2.16689H7.17509Z" fill="#A1D4FF"/>
<path fill-rule="evenodd" clip-rule="evenodd" d="M8.67139 12.1348C8.67139 12.6632 9.09982 13.0916 9.62684 13.0916C10.1552 13.0916 10.5837 12.6632 10.5837 12.1348C10.5837 11.6064 10.1552 11.1793 9.62684 11.1793C9.09982 11.1793 8.67139 11.6064 8.67139 12.1348Z" fill="#A1D4FF"/>
<path fill-rule="evenodd" clip-rule="evenodd" d="M11.918 20.4547C11.918 21.265 12.575 21.9221 13.384 21.9221C14.1943 21.9221 14.8514 21.265 14.8514 20.4547C14.8514 19.6443 14.1943 18.9886 13.384 18.9886C12.575 18.9886 11.918 19.6443 11.918 20.4547Z" fill="#A1D4FF"/>
<path fill-rule="evenodd" clip-rule="evenodd" d="M5.11755 22.1685C5.6103 22.1685 6.01 21.7688 6.01 21.276C6.01 20.7846 5.6103 20.3849 5.11755 20.3849C4.6248 20.3849 4.2251 20.7846 4.2251 21.276C4.2251 21.7688 4.6248 22.1685 5.11755 22.1685Z" fill="#A1D4FF"/>
<path fill-rule="evenodd" clip-rule="evenodd" d="M12.0944 8.18843L12.0794 2.16687H10.5654L10.5805 8.18843C10.5832 9.37798 11.1266 10.755 11.6481 11.4408L14.4857 15.1791C15.1386 15.2695 15.8257 15.5063 16.5745 15.9361L13.162 11.4408C12.6405 10.755 12.0971 9.37793 12.0944 8.18843Z" fill="#DDDAEC"/>
<path fill-rule="evenodd" clip-rule="evenodd" d="M17.5656 17.2393L16.5745 15.9362C15.8258 15.5064 15.1386 15.2696 14.4857 15.1792L15.062 15.9362C16.5404 17.8854 16.9058 24 13.6357 24H15.8382C16.8894 24 17.6149 23.6222 18.0775 23.0336C17.7832 22.6366 17.608 22.1466 17.608 21.6169V17.2968L17.5656 17.2393Z" fill="#0593FC"/>
<path fill-rule="evenodd" clip-rule="evenodd" d="M13.3841 1.08277C13.3841 0.487313 12.8955 0 12.3 0H10.7902C11.3843 0.00135938 11.8702 0.488672 11.8702 1.08277C11.8702 1.67958 11.3829 2.16689 10.7861 2.16689H12.0796H12.3C12.8968 2.16689 13.3841 1.67958 13.3841 1.08277Z" fill="#80B4FB"/>
<path fill-rule="evenodd" clip-rule="evenodd" d="M22.3746 12.0376V3.91626H21.1509V12.0376V12.3662C21.5916 12.3716 22.0365 12.2621 22.3746 12.0376Z" fill="#DDDAEC"/>
<path fill-rule="evenodd" clip-rule="evenodd" d="M23.4788 2.83351C23.4788 2.2367 23.0257 1.74939 22.4727 1.74939H21.2517C21.8034 1.75075 22.2551 2.23806 22.2551 2.83351C22.2551 3.42897 21.802 3.91628 21.249 3.91628H22.3742H22.4727C23.0257 3.91628 23.4788 3.42897 23.4788 2.83351Z" fill="#80B4FB"/>
<path fill-rule="evenodd" clip-rule="evenodd" d="M17.6084 17.2968V21.6169C17.6084 22.1466 17.7836 22.6367 18.0779 23.0336C18.5036 23.6058 19.1798 23.9836 19.9409 24H20.0421C21.3288 23.9727 22.3746 22.9104 22.3746 21.6169V12.0377C21.7162 12.4771 20.6485 12.4771 19.9915 12.0377C19.3331 11.5983 18.2668 11.5983 17.6084 12.0377V17.2968H17.6084Z" fill="#EB5468"/>
<path fill-rule="evenodd" clip-rule="evenodd" d="M19.9914 16.3687C20.4622 16.3687 20.8441 15.9868 20.8441 15.5159C20.8441 15.0436 20.4622 14.6617 19.9914 14.6617C19.5191 14.6617 19.1372 15.0436 19.1372 15.5159C19.1373 15.9868 19.5191 16.3687 19.9914 16.3687Z" fill="#A1D4FF"/>
<path fill-rule="evenodd" clip-rule="evenodd" d="M22.3743 21.6168V12.0376C22.0362 12.2621 21.5914 12.3716 21.1506 12.3661V21.6168C21.1506 22.716 20.395 23.6482 19.3794 23.9206C19.5587 23.9685 19.7462 23.9959 19.9406 24H20.0419C21.3286 23.9726 22.3743 22.9103 22.3743 21.6168Z" fill="#E5384F"/>
<path d="M7.7909 19.9216C7.69785 19.9216 7.60485 19.886 7.53407 19.8148C7.39302 19.6729 7.39368 19.4436 7.53552 19.3026L7.53965 19.2985C7.68149 19.1574 7.91085 19.1581 8.05185 19.2999C8.1929 19.4418 8.19224 19.6711 8.0504 19.8121L8.04627 19.8162C7.97563 19.8865 7.88324 19.9216 7.7909 19.9216Z" fill="#A1D4FF"/>
<path d="M10.7479 18.7623C10.6553 18.7623 10.5625 18.7269 10.4918 18.6562C10.3504 18.5148 10.3504 18.2855 10.4918 18.144L10.496 18.1399C10.6374 17.9985 10.8667 17.9985 11.0082 18.1399C11.1496 18.2813 11.1496 18.5106 11.0082 18.6521L11.004 18.6562C10.9333 18.7269 10.8406 18.7623 10.7479 18.7623Z" fill="#A1D4FF"/>
<path d="M19.4315 18.958C19.3388 18.958 19.2461 18.9226 19.1754 18.8519C19.034 18.7105 19.034 18.4812 19.1754 18.3397L19.1796 18.3356C19.321 18.1941 19.5503 18.1941 19.6918 18.3356C19.8332 18.477 19.8332 18.7063 19.6918 18.8478L19.6876 18.8519C19.6169 18.9226 19.5242 18.958 19.4315 18.958Z" fill="#A1D4FF"/>
<path d="M20.2035 21.7243C20.1104 21.7243 20.0174 21.6887 19.9467 21.6175C19.8056 21.4757 19.8063 21.2464 19.9481 21.1053L19.9522 21.1012C20.0941 20.9601 20.3234 20.9608 20.4644 21.1026C20.6055 21.2445 20.6048 21.4738 20.463 21.6148L20.4589 21.619C20.3882 21.6892 20.2958 21.7243 20.2035 21.7243Z" fill="#A1D4FF"/>
<path d="M9.11114 4.09829C9.11114 4.29821 8.94938 4.46044 8.74899 4.46044H7.16846L7.17038 3.73608H8.74899C8.94938 3.73613 9.11114 3.89837 9.11114 4.09829Z" fill="#2B4D66"/>
<path d="M9.11111 6.02993C9.11111 6.22985 8.94934 6.39208 8.74895 6.39208H7.16406L7.16552 5.66772H8.74895C8.94934 5.66772 9.11111 5.82949 9.11111 6.02993Z" fill="#2B4D66"/>
<path d="M9.11105 7.96108C9.11105 8.16147 8.94929 8.32324 8.74889 8.32324H7.15674C7.15866 8.27786 7.15965 8.23296 7.15965 8.18852L7.1611 7.59888H8.74885C8.94929 7.59888 9.11105 7.76116 9.11105 7.96108Z" fill="#2B4D66"/>
<path d="M19.5448 5.84792C19.5448 6.04784 19.3826 6.21008 19.1826 6.21008H17.6084V5.48572H19.1826C19.3825 5.48576 19.5448 5.64753 19.5448 5.84792Z" fill="#2B4D66"/>
<path d="M19.5448 7.77895C19.5448 7.97934 19.3826 8.14111 19.1826 8.14111H17.6084V7.41675H19.1826C19.3825 7.41679 19.5448 7.57903 19.5448 7.77895Z" fill="#2B4D66"/>
<path d="M19.5448 9.71206C19.5448 9.91198 19.3826 10.0742 19.1826 10.0742H17.6084V9.34985H19.1826C19.3825 9.3499 19.5448 9.51213 19.5448 9.71206Z" fill="#2B4D66"/>
</g>
<defs>
<clipPath id="clip0_1935_61995">
<rect width="24" height="24" fill="white"/>
</clipPath>
</defs>
</svg>
