<svg width="16" height="16" viewBox="0 0 16 16" fill="none" xmlns="http://www.w3.org/2000/svg">
<g clip-path="url(#clip0_1434_79843)">
<path d="M7.67461 3.31418L5.35843 4.44236C5.15032 4.5468 4.98499 4.72085 4.89096 4.93425L2.00144 12.1779C1.70275 12.8544 2.0074 13.6452 2.68197 13.944L5.55604 15.2175H7.69046L7.67461 3.31418Z" fill="#FAA515"/>
<path d="M14.1136 13.1774V14.5728C14.1136 15.3497 13.4637 16 12.6865 16H6.81927C6.04207 16 5.42383 15.3497 5.42383 14.5728V6.35877C5.42383 6.11374 5.49328 5.88143 5.64929 5.69244L7.41335 3.55507C7.61381 3.31214 7.89966 3.15559 8.21471 3.15559H11.291C11.6061 3.15559 11.8919 3.31214 12.0924 3.55507L13.8565 5.69244C14.0125 5.88143 14.1137 6.11377 14.1137 6.35877V12.0674V13.1774H14.1136Z" fill="#FAD207"/>
<path fill-rule="evenodd" clip-rule="evenodd" d="M9.27497 8.72192L9.275 8.72157L9.26682 8.71339C9.2625 8.70898 9.25813 8.7046 9.25372 8.70029L8.9256 8.37198L8.87904 8.46468C8.77048 8.42574 8.65365 8.40436 8.53186 8.40436H8.50015C7.93179 8.40436 7.46943 8.86676 7.46943 9.43508C7.46943 9.55281 7.48953 9.66584 7.52604 9.77132L7.42969 9.82073L7.76948 10.1613C7.7709 10.1627 7.77233 10.1642 7.77376 10.1656L7.77833 10.1702L7.77848 10.1701C7.96452 10.3528 8.21935 10.4658 8.50015 10.4658H8.53186C9.10022 10.4658 9.56259 10.0034 9.56259 9.43508C9.56259 9.1585 9.45289 8.90723 9.27497 8.72192ZM8.53186 9.99009H8.50015C8.19414 9.99009 7.94514 9.7411 7.94514 9.43508C7.94514 9.12907 8.19414 8.88008 8.50015 8.88008H8.53186C8.83788 8.88008 9.08687 9.12907 9.08687 9.43508C9.08687 9.7411 8.83788 9.99009 8.53186 9.99009Z" fill="#F8C201"/>
<path fill-rule="evenodd" clip-rule="evenodd" d="M12.2521 8.50574L11.935 8.1886L7.53906 12.5844L7.85621 12.9016C7.90267 12.948 7.96356 12.9713 8.02442 12.9713C8.08528 12.9713 8.14617 12.948 8.19264 12.9016L12.2521 8.84211C12.345 8.74925 12.345 8.5986 12.2521 8.50574Z" fill="#F8C201"/>
<path fill-rule="evenodd" clip-rule="evenodd" d="M12.3137 11.1622L12.3139 11.1621L12.0516 10.8961L12.0686 11.0039C11.9377 10.9437 11.7923 10.9098 11.6391 10.9098H11.6073C11.039 10.9098 10.5766 11.3722 10.5766 11.9405C10.5766 12.0874 10.6077 12.2271 10.6633 12.3537L10.5469 12.3367L10.8625 12.6519C10.8738 12.6637 10.8853 12.6752 10.8971 12.6865L10.9044 12.6937L10.9044 12.6934C11.0887 12.8655 11.3358 12.9713 11.6073 12.9713H11.6391C12.2074 12.9713 12.6698 12.5089 12.6698 11.9405C12.6698 11.63 12.5316 11.3514 12.3137 11.1622ZM11.6391 12.4955H11.6073C11.3013 12.4955 11.0523 12.2465 11.0523 11.9405C11.0523 11.6345 11.3013 11.3855 11.6073 11.3855H11.6391C11.9451 11.3855 12.1941 11.6345 12.1941 11.9405C12.1941 12.2465 11.9451 12.4955 11.6391 12.4955Z" fill="#F8C201"/>
<path d="M7.70468 12.6541C7.64382 12.6541 7.58293 12.6309 7.53647 12.5844C7.44357 12.4915 7.44357 12.3409 7.53647 12.2481L11.5959 8.18861C11.6889 8.09572 11.8394 8.09572 11.9323 8.18861C12.0252 8.2815 12.0252 8.43212 11.9323 8.52498L7.87286 12.5844C7.82643 12.6309 7.76554 12.6541 7.70468 12.6541Z" fill="#F5F5F5"/>
<path d="M8.21283 10.1487H8.18111C7.61276 10.1487 7.15039 9.68627 7.15039 9.11794C7.15039 8.54962 7.61276 8.08722 8.18111 8.08722H8.21283C8.78119 8.08722 9.24355 8.54962 9.24355 9.11794C9.24355 9.68627 8.78119 10.1487 8.21283 10.1487ZM8.18111 8.56294C7.8751 8.56294 7.62611 8.81193 7.62611 9.11794C7.62611 9.42396 7.8751 9.67295 8.18111 9.67295H8.21283C8.51884 9.67295 8.76783 9.42396 8.76783 9.11794C8.76783 8.81193 8.51884 8.56294 8.21283 8.56294H8.18111Z" fill="#F5F5F5"/>
<path d="M11.3203 12.6541H11.2885C10.7202 12.6541 10.2578 12.1917 10.2578 11.6234C10.2578 11.0551 10.7202 10.5927 11.2885 10.5927H11.3203C11.8886 10.5927 12.351 11.0551 12.351 11.6234C12.351 12.1917 11.8886 12.6541 11.3203 12.6541ZM11.2885 11.0684C10.9825 11.0684 10.7335 11.3174 10.7335 11.6234C10.7335 11.9294 10.9825 12.1784 11.2885 12.1784H11.3203C11.6263 12.1784 11.8753 11.9294 11.8753 11.6234C11.8753 11.3174 11.6263 11.0684 11.3203 11.0684H11.2885Z" fill="#F5F5F5"/>
<path d="M10.2691 5.08997C10.1658 5.08997 10.0708 5.02226 10.0407 4.91814C10.0042 4.79195 10.0769 4.66005 10.2031 4.62354C10.2301 4.61574 10.2572 4.60718 10.2838 4.59811C11.0091 4.35051 11.4964 3.66884 11.4964 2.90185V0.237829C11.4964 0.106467 11.6029 -3.05176e-05 11.7343 -3.05176e-05C11.8656 -3.05176e-05 11.9721 0.106467 11.9721 0.237829V2.90185C11.9721 3.87238 11.3554 4.73495 10.4375 5.0483C10.4038 5.05978 10.3694 5.07062 10.3352 5.08052C10.3132 5.08692 10.2909 5.08997 10.2691 5.08997Z" fill="#E0A446"/>
<path d="M9.76873 5.67691C9.35777 5.67691 9.02344 5.34257 9.02344 4.93162C9.02344 4.52066 9.35777 4.18633 9.76873 4.18633C10.1797 4.18633 10.514 4.52066 10.514 4.93162C10.514 5.34257 10.1797 5.67691 9.76873 5.67691Z" fill="#F5F5F5"/>
</g>
<defs>
<clipPath id="clip0_1434_79843">
<rect width="16" height="16" fill="white"/>
</clipPath>
</defs>
</svg>
