<svg width="29" height="29" viewBox="0 0 29 29" fill="none" xmlns="http://www.w3.org/2000/svg">
<g clip-path="url(#clip0_828_51186)">
<path d="M25.1068 25.8005C20.6418 26.3307 11.3478 27.1308 7.04978 25.2634C6.59794 25.067 6.25178 24.6875 6.10066 24.2186C5.26089 21.6139 2.58948 12.0497 6.06289 5.03603C6.16829 4.82321 6.19832 4.58137 6.14605 4.34975C6.04793 3.91513 5.93464 3.15879 6.16134 2.60398C6.66834 1.36323 10.4233 -1.52083 13.2645 1.50013C14.052 2.33747 14.0471 3.7399 13.8869 4.82185C13.7711 5.60342 12.9248 6.04245 12.2204 5.68455L11.6291 5.38411C11.2402 5.18653 10.7699 5.25021 10.4479 5.54449C10.0926 5.8692 9.56899 6.23839 8.97659 6.30241C8.03701 7.99658 10.5868 14.8355 10.6368 18.293C10.6421 18.6585 11.0711 18.8493 11.3441 18.6064C12.2328 17.8156 13.7954 16.8463 15.9357 17.1192C17.2429 17.2857 18.1367 18.0745 18.6957 18.799C19.1123 19.339 19.9235 19.3481 20.359 18.8233C21.4692 17.4859 23.548 15.6254 26.3291 15.9766C26.7952 16.0355 27.1514 16.422 27.1747 16.8913L27.4778 22.9963C27.548 24.4086 26.512 25.6336 25.1068 25.8005Z" fill="#F4D7D1"/>
<path d="M27.4327 22.0875C27.2159 23.2125 26.2308 24.6156 25.0448 24.7564C24.5135 24.8196 23.5136 24.4237 22.862 24.4894C17.7093 25.0097 9.77736 25.4139 6.33104 23.3446C6.33104 23.3446 4.49761 18.3965 4.33819 12.6829C4.19124 17.7379 5.54603 22.4982 6.10083 24.2191C6.25195 24.688 6.598 25.0671 7.04978 25.2634C11.3478 27.1309 20.6418 26.3307 25.1068 25.8005C26.512 25.6336 27.548 24.4086 27.4779 22.9962L27.4327 22.0875Z" fill="#FFAEA7"/>
<path d="M7.18933 5.90245C7.29473 5.68962 7.32476 5.44784 7.27248 5.21616C7.17437 4.78154 7.06107 4.0252 7.28778 3.4704C7.72788 2.39336 10.6153 0.0789539 13.228 1.4627C10.3913 -1.49548 6.66619 1.36848 6.16135 2.60398C5.93464 3.15878 6.04794 3.91512 6.14605 4.34974C6.19832 4.58142 6.16829 4.8232 6.06289 5.03603C2.58965 12.0495 5.26083 21.6136 6.10066 24.2186C6.24981 24.6812 6.58716 25.0608 7.03251 25.2555C7.12684 25.2967 7.22354 25.3366 7.3225 25.3753C6.62239 23.2875 3.57016 13.2105 7.18933 5.90245Z" fill="#FFAEA7"/>
<path d="M18.5108 28.1666H3.78299C2.71662 28.1666 1.85217 27.3027 1.85217 26.2371V12.5566C1.85217 11.4909 2.71662 10.6271 3.78299 10.6271H18.5108C19.5771 10.6271 20.4416 11.4909 20.4416 12.5566V26.2371C20.4416 27.3027 19.5771 28.1666 18.5108 28.1666Z" fill="#4AC9FF"/>
<path d="M20.4416 18.7254C20.4137 18.7582 20.3858 18.7911 20.3591 18.8233C19.9239 19.3476 19.1144 19.3426 18.6987 18.8028C18.1398 18.0773 17.2452 17.286 15.9358 17.1192C13.7951 16.8463 12.2324 17.8159 11.3437 18.6068C11.0714 18.8492 10.642 18.6599 10.6368 18.2954C10.6089 16.3154 9.75997 13.2248 9.21634 10.6271H4.48547C3.81115 16.3982 5.47128 22.2663 6.10083 24.2191C6.25128 24.6858 6.59444 25.0651 7.04397 25.2608C10.1368 26.6078 15.8244 26.5698 20.4343 26.2449C20.4456 26.2326 20.4416 26.5895 20.4416 18.7254Z" fill="#E6795F"/>
<path d="M7.88758 24.2025C7.43811 24.0068 7.09494 23.6275 6.9445 23.1609C6.3534 21.3275 4.85393 16.0426 5.23097 10.6271H4.48547C3.81115 16.3982 5.47128 22.2663 6.10083 24.2191C6.25128 24.6858 6.59444 25.0651 7.04397 25.2608C10.1368 26.6078 15.8244 26.5698 20.4343 26.2449C20.4452 26.233 20.4416 26.3134 20.4416 25.2414C15.9982 25.511 10.7959 25.4691 7.88758 24.2025Z" fill="#CB5D5F"/>
<path d="M20.4416 21.7878H12.33C12.3168 21.1455 11.7927 20.6287 11.1468 20.6287C10.0631 20.6287 9.55036 21.9691 10.3568 22.6926C9.55082 23.4157 10.0623 24.7564 11.1468 24.7564C11.7927 24.7564 12.3168 24.2396 12.33 23.5973H20.4416V21.7878Z" fill="#D4DEFF"/>
<path d="M7.18448 21.7375C7.41311 22.113 8.18949 22.4698 8.58713 21.5124C8.85319 20.8718 9.22938 20.2218 8.59786 19.3968C7.06531 17.3948 7.78569 10.627 7.78569 10.627H5.82089C5.82089 10.627 5.67948 19.2652 7.18448 21.7375Z" fill="#D4DEFF"/>
<path d="M8.32083 3.84122C8.40498 3.54469 8.32296 3.26166 8.13764 3.20907C7.95232 3.15648 7.73386 3.35423 7.64971 3.65077C7.56556 3.94731 7.64757 4.23033 7.8329 4.28292C8.01822 4.33552 8.23668 4.13776 8.32083 3.84122Z" fill="#FFAEA7"/>
<path d="M25.0833 24.1773C25.4446 24.1773 25.7375 23.9648 25.7375 23.7027C25.7375 23.4405 25.4446 23.228 25.0833 23.228C24.722 23.228 24.4291 23.4405 24.4291 23.7027C24.4291 23.9648 24.722 24.1773 25.0833 24.1773Z" fill="#FFAEA7"/>
</g>
<defs>
<clipPath id="clip0_828_51186">
<rect width="28" height="28" fill="white" transform="translate(0.666687 0.166626)"/>
</clipPath>
</defs>
</svg>
