<svg width="25" height="24" viewBox="0 0 25 24" fill="none" xmlns="http://www.w3.org/2000/svg">
<g clip-path="url(#clip0_727_53726)">
<path d="M24.75 12C24.75 5.37258 19.3774 0 12.75 0C6.12258 0 0.75 5.37258 0.75 12C0.75 17.9895 5.1382 22.954 10.875 23.8542V15.4688H7.82812V12H10.875V9.35625C10.875 6.34875 12.6666 4.6875 15.4076 4.6875C16.7201 4.6875 18.0938 4.92188 18.0938 4.92188V7.875H16.5806C15.09 7.875 14.625 8.80008 14.625 9.75V12H17.9531L17.4211 15.4688H14.625V23.8542C20.3618 22.954 24.75 17.9895 24.75 12Z" fill="white"/>
</g>
<defs>
<clipPath id="clip0_727_53726">
<rect width="24" height="24" fill="white" transform="translate(0.75)"/>
</clipPath>
</defs>
</svg>
