<svg width="28" height="29" viewBox="0 0 28 29" fill="none" xmlns="http://www.w3.org/2000/svg">
<g clip-path="url(#clip0_828_51149)">
<path d="M24.7636 25.3623H13.6301C12.7445 25.3623 12.0027 24.6916 11.9139 23.8104L10.4025 8.81233C10.3001 7.79645 11.0977 6.91451 12.1187 6.91451H26.2749C27.2959 6.91451 28.0935 7.79645 27.9911 8.81233L26.4797 23.8104C26.3909 24.6916 25.6492 25.3623 24.7636 25.3623Z" fill="#FF6E80"/>
<path d="M20.3482 23.6374V8.63936C20.3482 7.6867 21.1205 6.91446 22.0731 6.91446H12.1187C11.0977 6.91446 10.3002 7.79646 10.4025 8.81228L11.914 23.8104C12.0028 24.6916 12.7445 25.3623 13.6302 25.3623H22.0732C21.1205 25.3623 20.3482 24.5901 20.3482 23.6374Z" fill="#F8475E"/>
<path d="M25.1793 16.3052H13.2144V15.6617C13.2144 12.3577 15.8928 9.67928 19.1968 9.67928C22.5008 9.67928 25.1792 12.3577 25.1792 15.6617V16.3052H25.1793Z" fill="#EEECFF"/>
<path d="M20.3482 9.79036C19.9756 9.71774 19.5907 9.67924 19.1968 9.67924C15.8928 9.67924 13.2144 12.3577 13.2144 15.6617V16.3052H18.6809L19.2317 16.216L19.72 16.3052H20.3482V9.79036Z" fill="#D3D3FF"/>
<path d="M19.72 16.3052L21.9518 13.4347C22.0909 13.2558 22.0586 12.9982 21.8798 12.8592C21.7009 12.72 21.4433 12.7523 21.3042 12.9312L18.681 16.3053H19.72V16.3052Z" fill="#3B4456"/>
<path d="M4.50852 21.9471L5.20229 15.7073H13.9166L14.6104 21.9471C14.9395 24.9073 12.6228 27.4966 9.64439 27.4971C9.58779 27.4971 9.53119 27.4971 9.47459 27.4971C6.49609 27.4966 4.17941 24.9073 4.50852 21.9471Z" fill="#49BDFC"/>
<path d="M11.4827 21.5325L4.96959 17.7722L4.50666 21.936C4.29125 23.8734 5.20365 25.6581 6.6987 26.656L11.4827 23.8909C12.3904 23.3668 12.3904 22.0566 11.4827 21.5325Z" fill="#7ACEFA"/>
<path d="M9.52145 5.19815C9.29488 5.19815 9.1113 5.01456 9.1113 4.78799C9.1113 3.38772 8.45171 2.00232 7.9756 1.5407C7.81296 1.38298 7.80897 1.12333 7.96663 0.96074C8.12435 0.798099 8.38401 0.794162 8.54659 0.951771C9.21269 1.59763 9.93155 3.24793 9.93155 4.78799C9.93161 5.01451 9.74802 5.19815 9.52145 5.19815Z" fill="#D2996F"/>
<path d="M10.5926 5.34651C10.366 5.34651 10.1824 5.16293 10.1824 4.93636C10.1824 3.75276 10.9064 2.62226 11.9038 2.24819C12.1162 2.16873 12.3523 2.27614 12.4319 2.48822C12.5114 2.70035 12.4039 2.93676 12.1918 3.01628C11.525 3.26631 11.0027 4.1097 11.0027 4.93636C11.0027 5.16287 10.8191 5.34651 10.5926 5.34651Z" fill="#D2996F"/>
<path d="M8.45182 5.41591C8.28858 5.41591 8.1342 5.31775 8.07038 5.15675C7.69654 4.21322 7.1408 3.64978 6.4186 3.48216C6.19799 3.43092 6.06061 3.21053 6.11186 2.98986C6.16304 2.76926 6.38316 2.63188 6.60415 2.68312C7.59011 2.91204 8.36088 3.6629 8.83305 4.8546C8.91645 5.0652 8.81342 5.30358 8.60282 5.38698C8.55322 5.40661 8.50208 5.41591 8.45182 5.41591Z" fill="#D2996F"/>
<path d="M17.2487 14.3383C18.2794 14.3383 19.115 13.5027 19.115 12.472C19.115 11.4412 18.2794 10.6056 17.2487 10.6056C16.2179 10.6056 15.3824 11.4412 15.3824 12.472C15.3824 13.5027 16.2179 14.3383 17.2487 14.3383Z" fill="#FFDDCF"/>
<path d="M1.86635 14.3383C2.89709 14.3383 3.73267 13.5027 3.73267 12.472C3.73267 11.4412 2.89709 10.6056 1.86635 10.6056C0.835611 10.6056 3.05176e-05 11.4412 3.05176e-05 12.472C3.05176e-05 13.5027 0.835611 14.3383 1.86635 14.3383Z" fill="#FFCBBE"/>
<path d="M9.55753 20.2012C13.8235 20.2012 17.2818 16.7429 17.2818 12.4769C17.2818 8.21094 13.8235 4.75266 9.55753 4.75266C5.29153 4.75266 1.83325 8.21094 1.83325 12.4769C1.83325 16.7429 5.29153 20.2012 9.55753 20.2012Z" fill="#FFDDCF"/>
<path d="M4.89386 12.4769C4.89386 8.7349 7.5555 5.61448 11.0884 4.90437C10.5937 4.80494 10.0815 4.75266 9.5575 4.75266C5.29149 4.75266 1.83322 8.21094 1.83322 12.4769C1.83322 16.743 5.29149 20.2012 9.5575 20.2012C10.0815 20.2012 10.5938 20.1489 11.0884 20.0495C7.55556 19.3394 4.89386 16.219 4.89386 12.4769Z" fill="#FFCBBE"/>
<path d="M5.33692 15.2582C6.22353 15.2582 6.94227 14.6859 6.94227 13.9798C6.94227 13.2738 6.22353 12.7014 5.33692 12.7014C4.45031 12.7014 3.73157 13.2738 3.73157 13.9798C3.73157 14.6859 4.45031 15.2582 5.33692 15.2582Z" fill="#FFA1AC"/>
<path d="M14.0384 15.2582C14.925 15.2582 15.6437 14.6859 15.6437 13.9798C15.6437 13.2738 14.925 12.7014 14.0384 12.7014C13.1518 12.7014 12.433 13.2738 12.433 13.9798C12.433 14.6859 13.1518 15.2582 14.0384 15.2582Z" fill="#FFA1AC"/>
<path d="M6.27252 13.1593C6.04595 13.1593 5.86237 12.9757 5.86237 12.7491V12.0929C5.86237 11.8663 6.04595 11.6827 6.27252 11.6827C6.49909 11.6827 6.68268 11.8663 6.68268 12.0929V12.7491C6.68268 12.9757 6.49909 13.1593 6.27252 13.1593Z" fill="#3B4456"/>
<path d="M13.1029 13.1593C12.8763 13.1593 12.6927 12.9757 12.6927 12.7491V12.0929C12.6927 11.8663 12.8763 11.6827 13.1029 11.6827C13.3294 11.6827 13.513 11.8663 13.513 12.0929V12.7491C13.513 12.9757 13.3294 13.1593 13.1029 13.1593Z" fill="#3B4456"/>
<path d="M9.68771 13.55C9.22407 13.55 8.78324 13.3492 8.47814 12.9992C8.32933 12.8284 8.3471 12.5693 8.51789 12.4204C8.68863 12.2716 8.94768 12.2894 9.0966 12.4602C9.24584 12.6315 9.46131 12.7297 9.68777 12.7297C9.91423 12.7297 10.1297 12.6315 10.279 12.4602C10.4279 12.2894 10.6869 12.2716 10.8578 12.4205C11.0285 12.5694 11.0462 12.8285 10.8974 12.9992C10.5921 13.3492 10.1512 13.55 9.68771 13.55Z" fill="#3B4456"/>
<path d="M11.0333 23.1587C11.2598 23.1587 11.4435 22.9751 11.4435 22.7486C11.4435 22.522 11.2598 22.3384 11.0333 22.3384C10.8068 22.3384 10.6231 22.522 10.6231 22.7486C10.6231 22.9751 10.8068 23.1587 11.0333 23.1587Z" fill="#EEECFF"/>
</g>
<defs>
<clipPath id="clip0_828_51149">
<rect width="28" height="28" fill="white" transform="translate(3.05176e-05 0.166626)"/>
</clipPath>
</defs>
</svg>
