<svg width="24" height="25" viewBox="0 0 24 25" fill="none" xmlns="http://www.w3.org/2000/svg">
<path d="M19.4401 13.7629C19.2201 13.7629 18.9901 13.6929 18.7701 13.6429C18.3246 13.5448 17.8868 13.4144 17.4601 13.2529C16.9962 13.0842 16.4862 13.0929 16.0284 13.2775C15.5706 13.4621 15.1972 13.8096 14.9801 14.2529L14.7601 14.7029C13.7861 14.1611 12.8911 13.4882 12.1001 12.7029C11.3149 11.9119 10.6419 11.0169 10.1001 10.0429L10.5201 9.76293C10.9635 9.54585 11.3109 9.17246 11.4955 8.71462C11.6801 8.25678 11.6889 7.74684 11.5201 7.28293C11.3613 6.85535 11.231 6.41773 11.1301 5.97293C11.0801 5.75293 11.0401 5.52293 11.0101 5.29293C10.8887 4.58855 10.5197 3.95067 9.96972 3.49417C9.41972 3.03767 8.7248 2.79254 8.0101 2.80293H5.0101C4.57913 2.79888 4.15235 2.88774 3.75881 3.06346C3.36527 3.23918 3.01421 3.49763 2.72953 3.82121C2.44485 4.1448 2.23324 4.52592 2.10909 4.93864C1.98494 5.35136 1.95118 5.78599 2.0101 6.21293C2.54284 10.4023 4.45613 14.2948 7.44775 17.2756C10.4394 20.2563 14.3388 22.1554 18.5301 22.6729H18.9101C19.6475 22.674 20.3595 22.4035 20.9101 21.9129C21.2265 21.63 21.4792 21.2831 21.6516 20.8952C21.8239 20.5074 21.9121 20.0874 21.9101 19.6629V16.6629C21.8979 15.9683 21.6449 15.2995 21.1944 14.7706C20.744 14.2417 20.1239 13.8856 19.4401 13.7629ZM19.9401 19.7629C19.9399 19.9049 19.9095 20.0452 19.8509 20.1746C19.7923 20.3039 19.7068 20.4192 19.6001 20.5129C19.4884 20.6094 19.3577 20.6815 19.2165 20.7245C19.0753 20.7676 18.9267 20.7807 18.7801 20.7629C15.035 20.2827 11.5563 18.5694 8.89282 15.8932C6.2293 13.217 4.53251 9.73027 4.0701 5.98293C4.05419 5.83645 4.06813 5.68826 4.1111 5.54732C4.15407 5.40638 4.22517 5.27562 4.3201 5.16293C4.41381 5.05626 4.52916 4.97077 4.65848 4.91215C4.7878 4.85352 4.92812 4.82311 5.0701 4.82293H8.0701C8.30265 4.81776 8.52972 4.89381 8.71224 5.038C8.89476 5.18219 9.02131 5.3855 9.0701 5.61293C9.1101 5.88626 9.1601 6.15626 9.2201 6.42293C9.33562 6.95007 9.48936 7.46811 9.6801 7.97293L8.2801 8.62293C8.1604 8.67785 8.05272 8.75588 7.96326 8.85253C7.87379 8.94917 7.8043 9.06254 7.75877 9.18612C7.71324 9.3097 7.69257 9.44106 7.69795 9.57265C7.70332 9.70424 7.73464 9.83347 7.7901 9.95293C9.2293 13.0357 11.7073 15.5137 14.7901 16.9529C15.0336 17.0529 15.3066 17.0529 15.5501 16.9529C15.6748 16.9083 15.7894 16.8394 15.8873 16.7501C15.9851 16.6608 16.0643 16.553 16.1201 16.4329L16.7401 15.0329C17.2571 15.2178 17.7847 15.3714 18.3201 15.4929C18.5868 15.5529 18.8568 15.6029 19.1301 15.6429C19.3575 15.6917 19.5608 15.8183 19.705 16.0008C19.8492 16.1833 19.9253 16.4104 19.9201 16.6429L19.9401 19.7629Z" fill="#101828"/>
</svg>
