<svg width="29" height="29" viewBox="0 0 29 29" fill="none" xmlns="http://www.w3.org/2000/svg">
<path d="M26.5641 5.43413C18.579 3.08808 10.0877 3.08808 2.10254 5.43413C1.99708 5.4645 1.9069 5.53342 1.84991 5.62722C1.79292 5.72101 1.7733 5.83281 1.79494 5.9404L5.31077 23.4404C5.32238 23.4985 5.34566 23.5536 5.37921 23.6024C5.41276 23.6512 5.45587 23.6926 5.50594 23.7243C5.556 23.7559 5.61197 23.777 5.67044 23.7863C5.72892 23.7957 5.78868 23.793 5.8461 23.7785C11.4161 22.3656 17.2506 22.3656 22.8206 23.7785C22.8554 23.7873 22.8911 23.7918 22.927 23.7917C23.0281 23.7917 23.126 23.7567 23.2042 23.6927C23.2824 23.6286 23.3359 23.5394 23.3557 23.4403L26.8716 5.94027C26.8932 5.83272 26.8736 5.72097 26.8166 5.62721C26.7597 5.53345 26.6695 5.46453 26.5641 5.43413Z" fill="#314E6A"/>
<path d="M21.5215 11.484C21.4688 11.443 21.4075 11.4146 21.3421 11.4011C21.2768 11.3875 21.2092 11.3891 21.1446 11.4058L16.8948 12.4995L15.3302 12.7804L14.5727 10.5079C14.4895 10.2582 14.3135 10.0501 14.0812 9.92638C13.8489 9.80267 13.578 9.77287 13.3243 9.84312C13.0707 9.91337 12.8537 10.0783 12.7182 10.3039C12.5826 10.5295 12.5388 10.7985 12.5959 11.0554L13.1893 13.7274C13.205 13.7976 13.2377 13.8628 13.2846 13.9173L13.9301 14.6706L12.7975 15.4255C12.3899 14.157 11.6557 12.1628 10.9762 11.823C10.519 11.5944 9.25567 11.099 8.27598 10.7237C7.93247 10.592 7.55093 10.601 7.21401 10.7487C6.87709 10.8964 6.61193 11.1709 6.47599 11.5127C6.34005 11.8545 6.34427 12.2362 6.48774 12.5749C6.6312 12.9137 6.90237 13.1822 7.24247 13.3224C7.82915 13.5367 8.39316 13.8085 8.92623 14.134C8.94076 14.9688 9.09843 17.6872 10.4899 18.9232C11.2646 19.6107 12.7103 19.989 14.2527 19.989C15.9185 19.9887 17.6967 19.5474 18.8606 18.5773C21.2975 16.5462 21.6912 14.9246 21.6912 11.8296C21.6913 11.7629 21.676 11.697 21.6466 11.637C21.6171 11.5771 21.5743 11.5247 21.5215 11.484Z" fill="url(#paint0_linear_828_51201)"/>
<path d="M18.5802 6.45889C17.8625 6.45886 17.161 6.67164 16.5643 7.07031C15.9676 7.46899 15.5025 8.03565 15.2279 8.69865C14.9533 9.36164 14.8814 10.0912 15.0214 10.795C15.1614 11.4989 15.507 12.1454 16.0144 12.6528C16.5218 13.1602 17.1684 13.5058 17.8722 13.6458C18.576 13.7858 19.3056 13.7139 19.9686 13.4393C20.6316 13.1647 21.1982 12.6996 21.5969 12.1029C21.9956 11.5062 22.2084 10.8047 22.2083 10.0871C22.2072 9.12517 21.8246 8.20299 21.1444 7.52282C20.4642 6.84265 19.5421 6.46003 18.5802 6.45889Z" fill="url(#paint1_linear_828_51201)"/>
<defs>
<linearGradient id="paint0_linear_828_51201" x1="14.2493" y1="11.5635" x2="12.9329" y2="18.4974" gradientUnits="userSpaceOnUse">
<stop stop-color="#F5A997"/>
<stop offset="1" stop-color="#E57E70"/>
</linearGradient>
<linearGradient id="paint1_linear_828_51201" x1="17.174" y1="7.45669" x2="19.8953" y2="12.5479" gradientUnits="userSpaceOnUse">
<stop stop-color="#F4B7A4"/>
<stop offset="1" stop-color="#F7907F"/>
</linearGradient>
</defs>
</svg>
