<svg width="56" height="56" viewBox="0 0 56 56" fill="none" xmlns="http://www.w3.org/2000/svg">
<rect width="56" height="56" rx="28" fill="#EEF2F6"/>
<path d="M21.875 30.1875L20.125 32.375V34.0079C20.125 34.155 20.1834 34.296 20.2875 34.4C20.3915 34.5041 20.5325 34.5625 20.6796 34.5625H21.875L23.1875 32.8125L28.875 32.375V30.1875H21.875Z" fill="#FEB784"/>
<path d="M27.6102 24.5C27.2494 24.5 26.9035 24.6433 26.6484 24.8984C26.3933 25.1535 26.25 25.4994 26.25 25.8602V28H30.625V24.5H27.6102Z" fill="#FEB784"/>
<path d="M32.3499 24.5255C32.2512 23.5412 31.8807 21.6654 31.542 20.0681C31.5109 19.9199 31.4797 19.7739 31.4491 19.6317C31.1658 18.311 30.9268 17.278 30.9268 17.278C30.8063 16.9097 30.6121 16.5699 30.356 16.2793C30.0998 15.9886 29.7871 15.7532 29.437 15.5873C29.0868 15.4215 28.7066 15.3288 28.3194 15.3148C27.9322 15.3009 27.5463 15.3659 27.1851 15.5061C26.6496 15.7141 26.1944 16.0875 25.8857 16.5719C25.8315 16.6559 25.7817 16.7426 25.7364 16.8317C25.365 17.5682 25.3005 18.4218 25.557 19.2057L25.773 19.8122L25.4613 21.1936L26.4151 21.8263L26.8373 23.1169L28.8755 22.75V24.9375L26.7536 26.6875H30.188L32.3499 24.5255Z" fill="#FEC9A3"/>
<path d="M32.375 24.9375V40.6875H24.9375C22.668 40.6875 20.8879 39.0037 20.603 36.8173C20.5759 36.6118 20.5624 36.4048 20.5625 36.1976C20.5625 35.1309 20.9423 34.0991 21.6338 33.2869C22.3253 32.4747 23.2834 31.9353 24.3365 31.7652L26.1663 31.4699L25.7939 31.2216C25.4891 31.0184 25.2386 30.7436 25.0642 30.4214C24.8899 30.0991 24.7971 29.7391 24.7938 29.3727C24.7905 29.0064 24.8769 28.6447 25.0454 28.3194C25.2139 27.9941 25.4594 27.7149 25.7605 27.5062L26.7531 26.6875H30.1875L32.3493 24.5257C32.3657 24.6892 32.375 24.8287 32.375 24.9375Z" fill="#F59898"/>
<path d="M32.3755 25.9891V40.6875H24.938C22.6685 40.6875 20.8884 39.0037 20.6035 36.8173C25.2241 35.6759 29.6756 32.5445 32.3755 25.9891Z" fill="#ED9191"/>
<path d="M29.0585 26.7656L29.7506 33.6875L26.6881 35.4375L24.9381 34.125L24.0631 34.5625L24.9381 35.875L22.9512 36.7682L24.0631 38.5L27.1256 37.625L31.568 35.774C31.8071 35.6744 32.0115 35.5061 32.1552 35.2905C32.2989 35.0749 32.3756 34.8216 32.3756 34.5625V26.6C32.3756 26.1591 32.2005 25.7362 31.8887 25.4244C31.5769 25.1127 31.1541 24.9375 30.7131 24.9375C30.4808 24.9374 30.251 24.9861 30.0387 25.0803C29.8263 25.1745 29.636 25.3121 29.4801 25.4844C29.3242 25.6566 29.2061 25.8596 29.1335 26.0803C29.0609 26.301 29.0353 26.5345 29.0585 26.7656Z" fill="#FEC9A3"/>
<path d="M28.6172 15.2961C29.2357 15.3011 29.8435 15.4575 30.3877 15.7516C30.9318 16.0456 31.3956 16.4684 31.7387 16.9831C32.1536 17.6054 32.375 18.3366 32.375 19.0846C32.375 19.5417 32.4841 19.9922 32.6933 20.3987C32.9025 20.8052 33.2056 21.1558 33.5776 21.4215L34.1069 21.7996C34.5185 22.0936 34.8539 22.4815 35.0853 22.9312C35.3168 23.381 35.4375 23.8794 35.4375 24.3852V24.5C35.4375 25.3122 35.1148 26.0912 34.5405 26.6655C33.9662 27.2399 33.1872 27.5625 32.375 27.5625C31.4467 27.5625 30.5565 27.1938 29.9001 26.5374C29.2437 25.881 28.875 24.9908 28.875 24.0625V19.25C27.5026 18.9755 26.3586 18.0131 25.7871 16.7356C25.7871 16.7356 26.4232 15.1758 28.6172 15.2961Z" fill="#92563A"/>
<path d="M21.875 31.9375V33.6875H22.75L23.625 31.5" fill="#FEB784"/>
</svg>
