<svg width="24" height="24" viewBox="0 0 24 24" fill="none" xmlns="http://www.w3.org/2000/svg">
<g clip-path="url(#clip0_1942_73770)">
<path d="M20.4853 3.51473C18.2188 1.24823 15.2053 0 12 0C8.79469 0 5.78123 1.24823 3.51469 3.51473C1.24823 5.78123 0 8.79469 0 12C0 15.2053 1.24823 18.2188 3.51469 20.4853C5.78123 22.7518 8.79469 24 12 24C15.2053 24 18.2188 22.7518 20.4853 20.4853C22.7518 18.2188 24 15.2053 24 12C24 8.79469 22.7518 5.78123 20.4853 3.51473Z" fill="#F4EDE7"/>
<path d="M20.4853 3.51473C18.2188 1.24823 15.2053 0 12 0V24C15.2053 24 18.2188 22.7518 20.4853 20.4853C22.7518 18.2188 24 15.2053 24 12C24 8.79469 22.7518 5.78123 20.4853 3.51473Z" fill="#E7DEDB"/>
<path d="M18.6634 9.14512H14.8549V5.33662C14.8549 5.10759 14.6693 4.92188 14.4402 4.92188H9.55987C9.33084 4.92188 9.14512 5.10755 9.14512 5.33662V9.14512H5.33662C5.10759 9.14512 4.92188 9.3308 4.92188 9.55988V14.4402C4.92188 14.6692 5.10755 14.8549 5.33662 14.8549H9.14512V18.6634C9.14512 18.8925 9.3308 19.0782 9.55987 19.0782H14.4402C14.6692 19.0782 14.8549 18.8925 14.8549 18.6634V14.8549H18.6634C18.8925 14.8549 19.0782 14.6693 19.0782 14.4402V9.55983C19.0782 9.3308 18.8925 9.14512 18.6634 9.14512Z" fill="#E85260"/>
<path d="M18.6634 9.14512H14.8549V5.33662C14.8549 5.10759 14.6692 4.92188 14.4401 4.92188H12V19.0781H14.4402C14.6692 19.0781 14.8549 18.8925 14.8549 18.6634V14.8549H18.6634C18.8925 14.8549 19.0782 14.6692 19.0782 14.4401V9.55983C19.0781 9.3308 18.8925 9.14512 18.6634 9.14512Z" fill="#BF2954"/>
</g>
<defs>
<clipPath id="clip0_1942_73770">
<rect width="24" height="24" fill="white"/>
</clipPath>
</defs>
</svg>
