<svg width="56" height="56" viewBox="0 0 56 56" fill="none" xmlns="http://www.w3.org/2000/svg">
<rect width="56" height="56" rx="28" fill="#EEF2F6"/>
<path d="M37.188 27.125C37.072 27.125 36.9607 27.0789 36.8786 26.9969C36.7966 26.9148 36.7505 26.8035 36.7505 26.6875V25.6187C36.7474 24.5127 36.9637 23.417 37.387 22.3951C37.8102 21.3733 38.432 20.4455 39.2162 19.6656C39.5012 19.3807 39.6952 19.0177 39.7738 18.6224C39.8525 18.2272 39.8121 17.8176 39.6579 17.4453C39.5037 17.073 39.2425 16.7548 38.9075 16.5309C38.5724 16.307 38.1785 16.1875 37.7755 16.1875C37.3691 16.1864 36.9665 16.2658 36.591 16.4214C36.2155 16.5769 35.8746 16.8054 35.588 17.0936L33.9973 18.6843C33.9148 18.764 33.8043 18.8081 33.6896 18.8071C33.5748 18.8061 33.4651 18.7601 33.384 18.679C33.3029 18.5979 33.2569 18.4882 33.2559 18.3734C33.2549 18.2587 33.299 18.1482 33.3787 18.0657L34.9694 16.475C35.337 16.1052 35.7743 15.8121 36.256 15.6126C36.7377 15.4131 37.2542 15.3111 37.7755 15.3125C38.3515 15.3126 38.9146 15.4834 39.3935 15.8034C39.8724 16.1234 40.2457 16.5783 40.4661 17.1104C40.6865 17.6426 40.7442 18.2282 40.6318 18.7931C40.5195 19.358 40.2421 19.877 39.8349 20.2843C39.1322 20.9832 38.5751 21.8145 38.1958 22.7302C37.8166 23.6458 37.6227 24.6276 37.6255 25.6187V26.6875C37.6255 26.8035 37.5794 26.9148 37.4973 26.9969C37.4153 27.0789 37.304 27.125 37.188 27.125Z" fill="#FEB784"/>
<path d="M18.8123 26.6875C18.6963 26.6875 18.585 26.6414 18.503 26.5594C18.4209 26.4773 18.3748 26.366 18.3748 26.25V25.6187C18.3776 24.6276 18.1837 23.6458 17.8045 22.7302C17.4252 21.8145 16.8681 20.9832 16.1654 20.2843C15.7582 19.877 15.4808 19.358 15.3685 18.7931C15.2561 18.2282 15.3138 17.6426 15.5342 17.1104C15.7546 16.5783 16.1279 16.1234 16.6068 15.8034C17.0857 15.4834 17.6488 15.3126 18.2248 15.3125C18.7461 15.3111 19.2626 15.4131 19.7443 15.6126C20.226 15.8121 20.6633 16.1052 21.0309 16.475L22.6216 18.0657C22.7013 18.1482 22.7454 18.2587 22.7444 18.3734C22.7434 18.4882 22.6974 18.5979 22.6163 18.679C22.5352 18.7601 22.4255 18.8061 22.3107 18.8071C22.196 18.8081 22.0855 18.764 22.003 18.6843L20.4123 17.0936C20.1257 16.8054 19.7848 16.5769 19.4093 16.4214C19.0338 16.2658 18.6312 16.1864 18.2248 16.1875C17.8218 16.1875 17.4279 16.307 17.0928 16.5309C16.7578 16.7548 16.4966 17.073 16.3424 17.4453C16.1882 17.8176 16.1478 18.2272 16.2265 18.6224C16.3051 19.0177 16.4991 19.3807 16.7841 19.6656C17.5683 20.4455 18.1901 21.3733 18.6133 22.3951C19.0366 23.417 19.2529 24.5127 19.2498 25.6187V26.25C19.2498 26.366 19.2037 26.4773 19.1217 26.5594C19.0396 26.6414 18.9283 26.6875 18.8123 26.6875Z" fill="#FD8A8C"/>
<path d="M22.3125 18.375V22.3125C22.3119 23.2047 22.5219 24.0845 22.9253 24.8802C23.3288 25.676 23.9143 26.3654 24.6343 26.8923C24.7362 26.9621 24.8221 27.0526 24.8864 27.158C24.9508 27.2634 24.9921 27.3811 25.0077 27.5036C25.0233 27.6261 25.0127 27.7505 24.9768 27.8686C24.9409 27.9868 24.8804 28.0959 24.7993 28.189C24.3359 28.6667 24.0724 29.3033 24.0625 29.9688C24.0818 30.4521 24.2237 30.9225 24.475 31.3358C24.7263 31.7491 25.0786 32.0917 25.4988 32.3313C25.8713 32.5816 26.1753 32.9212 26.3829 33.3191C26.5905 33.717 26.6952 34.1606 26.6875 34.6093V38.9375C26.6875 39.2856 26.8258 39.6194 27.0719 39.8656C27.3181 40.1117 27.6519 40.25 28 40.25C28.3481 40.25 28.6819 40.1117 28.9281 39.8656C29.1742 39.6194 29.3125 39.2856 29.3125 38.9375V34.6093C29.3048 34.1606 29.4095 33.717 29.6171 33.3191C29.8247 32.9212 30.1287 32.5816 30.5012 32.3313C30.9214 32.0917 31.2737 31.7491 31.525 31.3358C31.7763 30.9225 31.9182 30.4521 31.9375 29.9688C31.9276 29.3033 31.6641 28.6667 31.2008 28.189C31.1196 28.0959 31.0591 27.9868 31.0232 27.8686C30.9873 27.7505 30.9767 27.6261 30.9923 27.5036C31.0079 27.3811 31.0492 27.2634 31.1136 27.158C31.1779 27.0526 31.2638 26.9621 31.3657 26.8923C32.0857 26.3654 32.6712 25.676 33.0747 24.8802C33.4781 24.0845 33.6881 23.2047 33.6875 22.3125V18.375C32.0165 17.218 30.0324 16.5982 28 16.5982C25.9676 16.5982 23.9835 17.218 22.3125 18.375Z" fill="#F9645A"/>
<path d="M28 40.6875C27.5359 40.6875 27.0908 40.5031 26.7626 40.1749C26.4344 39.8467 26.25 39.4016 26.25 38.9375V34.6093C26.2569 34.234 26.1703 33.8629 25.998 33.5295C25.8257 33.196 25.5731 32.9107 25.263 32.6992C24.7802 32.4211 24.3763 32.0244 24.0896 31.5465C23.803 31.0687 23.6431 30.5256 23.625 29.9687C23.6334 29.1929 23.9385 28.4498 24.4777 27.8919C24.515 27.8521 24.5432 27.8046 24.5604 27.7528C24.5776 27.701 24.5834 27.6461 24.5774 27.5918C24.5699 27.5229 24.548 27.4564 24.5131 27.3965C24.4782 27.3367 24.4311 27.2849 24.3749 27.2444C23.6018 26.6749 22.9729 25.9321 22.5388 25.0756C22.1046 24.2191 21.8773 23.2727 21.875 22.3125V18.375C21.875 18.3043 21.8922 18.2346 21.925 18.172C21.9579 18.1093 22.0054 18.0556 22.0636 18.0154C23.8105 16.8149 25.8804 16.1723 28 16.1723C30.1196 16.1723 32.1895 16.8149 33.9364 18.0154C33.9946 18.0556 34.0421 18.1093 34.075 18.172C34.1078 18.2346 34.125 18.3043 34.125 18.375V22.3125C34.1227 23.2728 33.8954 24.2192 33.4611 25.0757C33.0269 25.9322 32.3979 26.675 31.6247 27.2444C31.5686 27.2849 31.5216 27.3368 31.4867 27.3966C31.4519 27.4565 31.4301 27.523 31.4226 27.5918C31.4165 27.646 31.4223 27.7009 31.4396 27.7526C31.4568 27.8043 31.485 27.8517 31.5223 27.8915C32.0615 28.4496 32.3666 29.1928 32.375 29.9687C32.3569 30.5256 32.197 31.0687 31.9104 31.5465C31.6237 32.0244 31.2198 32.4211 30.737 32.6992C30.4269 32.9107 30.1743 33.196 30.002 33.5295C29.8297 33.8629 29.7431 34.234 29.75 34.6093V38.9375C29.75 39.4016 29.5656 39.8467 29.2374 40.1749C28.9092 40.5031 28.4641 40.6875 28 40.6875ZM22.75 18.6073V22.3125C22.7522 23.1356 22.9473 23.9467 23.3196 24.6808C23.6919 25.4149 24.231 26.0515 24.8937 26.5396C25.0493 26.6531 25.1792 26.7981 25.275 26.9651C25.3707 27.1322 25.4301 27.3175 25.4494 27.5091C25.4674 27.6859 25.4475 27.8646 25.3909 28.0331C25.3343 28.2015 25.2424 28.356 25.1213 28.4861C24.7323 28.8827 24.51 29.4133 24.5 29.9687C24.5199 30.3784 24.6436 30.7763 24.8596 31.125C25.0756 31.4737 25.3767 31.7617 25.7346 31.962C26.1679 32.2532 26.5219 32.6476 26.7646 33.1098C27.0074 33.572 27.1312 34.0873 27.125 34.6093V38.9375C27.125 39.1696 27.2172 39.3921 27.3813 39.5562C27.5454 39.7203 27.7679 39.8125 28 39.8125C28.2321 39.8125 28.4546 39.7203 28.6187 39.5562C28.7828 39.3921 28.875 39.1696 28.875 38.9375V34.6093C28.8688 34.0873 28.9926 33.572 29.2354 33.1098C29.4781 32.6476 29.8321 32.2532 30.2654 31.962C30.6233 31.7617 30.9244 31.4737 31.1404 31.125C31.3564 30.7763 31.4801 30.3784 31.5 29.9687C31.4901 29.4133 31.2682 28.8827 30.8796 28.4856C30.7585 28.3557 30.6665 28.2013 30.6099 28.0329C30.5533 27.8644 30.5334 27.6859 30.5515 27.5091C30.5707 27.3176 30.63 27.1323 30.7256 26.9653C30.8212 26.7982 30.9509 26.6532 31.1062 26.5396C31.769 26.0516 32.3082 25.4149 32.6805 24.6808C33.0528 23.9467 33.2478 23.1356 33.25 22.3125V18.6073C31.6887 17.5881 29.8645 17.0454 28 17.0454C26.1355 17.0454 24.3113 17.5881 22.75 18.6073Z" fill="#FD8A8C"/>
<path d="M28 31.7625C27.6481 31.2543 27.1987 30.8211 26.6779 30.4881C26.422 30.3244 26.25 30.1158 26.25 29.9688C26.268 29.8559 26.3226 29.7522 26.4053 29.6734C26.6925 29.3621 26.9108 28.9937 27.0461 28.5923C27.1813 28.1908 27.2304 27.7654 27.1902 27.3438C27.1477 26.907 27.0135 26.484 26.7965 26.1026C26.5794 25.7211 26.2844 25.3897 25.9306 25.13C25.4859 24.8074 25.1242 24.3837 24.8755 23.8938C24.6267 23.4039 24.498 22.8619 24.5 22.3125V19.614C25.5864 19.0694 26.7848 18.7858 28 18.7858C29.2152 18.7858 30.4137 19.0694 31.5 19.614V22.3125C31.5021 22.8617 31.3735 23.4036 31.1249 23.8933C30.8763 24.383 30.5148 24.8066 30.0703 25.1291C29.7163 25.3889 29.4211 25.7204 29.2039 26.102C28.9867 26.4836 28.8524 26.9068 28.8098 27.3438C28.7694 27.7658 28.8184 28.1916 28.9536 28.5934C29.0889 28.9952 29.3073 29.364 29.5947 29.6756C29.6772 29.7537 29.7318 29.8567 29.75 29.9688C29.75 30.1158 29.5781 30.3244 29.3217 30.4881C28.8013 30.8214 28.352 31.2545 28 31.7625Z" fill="#FD8A8C"/>
<path d="M37.1875 30.1875C37.9124 30.1875 38.5 29.2081 38.5 28C38.5 26.7919 37.9124 25.8125 37.1875 25.8125C36.4626 25.8125 35.875 26.7919 35.875 28C35.875 29.2081 36.4626 30.1875 37.1875 30.1875Z" fill="#F9645A"/>
<path d="M18.8125 30.1875C19.5374 30.1875 20.125 29.2081 20.125 28C20.125 26.7919 19.5374 25.8125 18.8125 25.8125C18.0876 25.8125 17.5 26.7919 17.5 28C17.5 29.2081 18.0876 30.1875 18.8125 30.1875Z" fill="#F9645A"/>
</svg>
