<svg width="18" height="18" viewBox="0 0 18 18" fill="none" xmlns="http://www.w3.org/2000/svg">
<path d="M16.5584 13.025L14.8334 11.2583C14.4623 10.9056 13.9943 10.6719 13.4894 10.5872C12.9845 10.5026 12.4658 10.5709 12 10.7833L11.25 10.0333C12.1338 8.85238 12.5375 7.38052 12.3797 5.91398C12.2219 4.44745 11.5143 3.09514 10.3996 2.12928C9.28477 1.16343 7.84548 0.655749 6.37142 0.708438C4.89736 0.761128 3.49799 1.37028 2.45501 2.41326C1.41202 3.45624 0.802876 4.85561 0.750186 6.32967C0.697497 7.80373 1.20518 9.24302 2.17103 10.3578C3.13689 11.4726 4.4892 12.1801 5.95573 12.3379C7.42226 12.4957 8.89413 12.0921 10.075 11.2083L10.8167 11.95C10.5793 12.4163 10.4942 12.9454 10.5734 13.4627C10.6527 13.98 10.8922 14.4594 11.2584 14.8333L13.025 16.6C13.4938 17.0681 14.1292 17.3311 14.7917 17.3311C15.4542 17.3311 16.0896 17.0681 16.5584 16.6C16.7965 16.3671 16.9857 16.0891 17.1148 15.7821C17.244 15.4752 17.3106 15.1455 17.3106 14.8125C17.3106 14.4794 17.244 14.1498 17.1148 13.8428C16.9857 13.5358 16.7965 13.2578 16.5584 13.025ZM9.4917 9.49162C8.90856 10.0733 8.16612 10.4691 7.35815 10.629C6.55018 10.7889 5.71295 10.7058 4.9522 10.3901C4.19146 10.0744 3.54133 9.54038 3.08396 8.8554C2.62659 8.17042 2.38248 7.36526 2.38248 6.54162C2.38248 5.71798 2.62659 4.91281 3.08396 4.22784C3.54133 3.54286 4.19146 3.0088 4.9522 2.69313C5.71295 2.37745 6.55018 2.29433 7.35815 2.45424C8.16612 2.61416 8.90856 3.00995 9.4917 3.59162C9.87973 3.97867 10.1876 4.43846 10.3976 4.94467C10.6077 5.45088 10.7158 5.99356 10.7158 6.54162C10.7158 7.08968 10.6077 7.63236 10.3976 8.13857C10.1876 8.64477 9.87973 9.10457 9.4917 9.49162ZM15.3834 15.3833C15.3059 15.4614 15.2137 15.5234 15.1122 15.5657C15.0106 15.608 14.9017 15.6298 14.7917 15.6298C14.6817 15.6298 14.5728 15.608 14.4712 15.5657C14.3697 15.5234 14.2775 15.4614 14.2 15.3833L12.4334 13.6166C12.3553 13.5391 12.2933 13.447 12.251 13.3454C12.2086 13.2439 12.1869 13.135 12.1869 13.025C12.1869 12.9149 12.2086 12.806 12.251 12.7045C12.2933 12.6029 12.3553 12.5108 12.4334 12.4333C12.5108 12.3552 12.603 12.2932 12.7046 12.2509C12.8061 12.2086 12.915 12.1868 13.025 12.1868C13.135 12.1868 13.244 12.2086 13.3455 12.2509C13.4471 12.2932 13.5392 12.3552 13.6167 12.4333L15.3834 14.2C15.4615 14.2774 15.5235 14.3696 15.5658 14.4711C15.6081 14.5727 15.6299 14.6816 15.6299 14.7916C15.6299 14.9016 15.6081 15.0105 15.5658 15.1121C15.5235 15.2136 15.4615 15.3058 15.3834 15.3833Z" fill="white"/>
</svg>
