<svg width="20" height="21" viewBox="0 0 20 21" fill="none" xmlns="http://www.w3.org/2000/svg">
<path d="M17.0833 12.4296C16.8623 12.4296 16.6504 12.5174 16.4941 12.6736C16.3378 12.8299 16.25 13.0419 16.25 13.2629V16.5962C16.25 16.8172 16.1622 17.0292 16.0059 17.1855C15.8496 17.3418 15.6377 17.4296 15.4167 17.4296H3.75C3.52899 17.4296 3.31702 17.3418 3.16074 17.1855C3.00446 17.0292 2.91667 16.8172 2.91667 16.5962V8.60456L7.81667 13.5129C8.28542 13.9811 8.92083 14.244 9.58333 14.244C10.2458 14.244 10.8812 13.9811 11.35 13.5129L12.7167 12.1462C12.8736 11.9893 12.9617 11.7765 12.9617 11.5546C12.9617 11.3326 12.8736 11.1198 12.7167 10.9629C12.5597 10.806 12.3469 10.7178 12.125 10.7178C11.9031 10.7178 11.6903 10.806 11.5333 10.9629L10.1667 12.3296C10.0109 12.4822 9.80146 12.5678 9.58333 12.5678C9.36521 12.5678 9.15577 12.4822 9 12.3296L4.09167 7.42956H9.58333C9.80435 7.42956 10.0163 7.34176 10.1726 7.18548C10.3289 7.0292 10.4167 6.81724 10.4167 6.59623C10.4167 6.37521 10.3289 6.16325 10.1726 6.00697C10.0163 5.85069 9.80435 5.76289 9.58333 5.76289H3.75C3.08696 5.76289 2.45107 6.02629 1.98223 6.49513C1.51339 6.96397 1.25 7.59985 1.25 8.26289V16.5962C1.25 17.2593 1.51339 17.8952 1.98223 18.364C2.45107 18.8328 3.08696 19.0962 3.75 19.0962H15.4167C16.0797 19.0962 16.7156 18.8328 17.1844 18.364C17.6533 17.8952 17.9167 17.2593 17.9167 16.5962V13.2629C17.9167 13.0419 17.8289 12.8299 17.6726 12.6736C17.5163 12.5174 17.3043 12.4296 17.0833 12.4296ZM18.5083 5.17123L16.0083 2.67123C15.9291 2.59536 15.8356 2.53589 15.7333 2.49623C15.5304 2.41288 15.3029 2.41288 15.1 2.49623C14.9977 2.53589 14.9043 2.59536 14.825 2.67123L12.325 5.17123C12.1681 5.32815 12.0799 5.54098 12.0799 5.76289C12.0799 5.98481 12.1681 6.19764 12.325 6.35456C12.4819 6.51148 12.6947 6.59964 12.9167 6.59964C13.1386 6.59964 13.3514 6.51148 13.5083 6.35456L14.5833 5.27123V9.92956C14.5833 10.1506 14.6711 10.3625 14.8274 10.5188C14.9837 10.6751 15.1957 10.7629 15.4167 10.7629C15.6377 10.7629 15.8496 10.6751 16.0059 10.5188C16.1622 10.3625 16.25 10.1506 16.25 9.92956V5.27123L17.325 6.35456C17.4025 6.43267 17.4946 6.49466 17.5962 6.53697C17.6977 6.57928 17.8067 6.60106 17.9167 6.60106C18.0267 6.60106 18.1356 6.57928 18.2371 6.53697C18.3387 6.49466 18.4309 6.43267 18.5083 6.35456C18.5864 6.27709 18.6484 6.18492 18.6907 6.08337C18.733 5.98183 18.7548 5.8729 18.7548 5.76289C18.7548 5.65288 18.733 5.54396 18.6907 5.44241C18.6484 5.34086 18.5864 5.2487 18.5083 5.17123Z" fill="white"/>
</svg>
