<svg width="34" height="22" viewBox="0 0 34 22" fill="none" xmlns="http://www.w3.org/2000/svg">
<path d="M27.9025 2.04478C27.288 1.43393 26.5585 0.949358 25.7555 0.618752C24.9525 0.288145 24.0918 0.117981 23.2226 0.117981C22.3534 0.117981 21.4927 0.288145 20.6898 0.618752C19.8868 0.949358 19.1572 1.43393 18.5427 2.04478L17.2675 3.31192L15.9922 2.04478C14.7511 0.811481 13.0677 0.11862 11.3124 0.11862C9.55706 0.11862 7.87366 0.811481 6.63247 2.04478C5.39129 3.27808 4.694 4.95079 4.694 6.69494C4.694 8.43909 5.39129 10.1118 6.63247 11.3451L7.90771 12.6122L17.2675 21.9126L26.6273 12.6122L27.9025 11.3451C28.5173 10.7345 29.0049 10.0096 29.3376 9.21172C29.6704 8.41383 29.8416 7.55862 29.8416 6.69494C29.8416 5.83127 29.6704 4.97606 29.3376 4.17817C29.0049 3.38028 28.5173 2.65535 27.9025 2.04478Z" fill="url(#paint0_linear_763_43617)"/>
<g filter="url(#filter0_b_763_43617)">
<path d="M14.1243 16.0448C13.8855 16.0446 13.6509 15.9815 13.444 15.862C13.2372 15.7424 13.0655 15.5706 12.9461 15.3638L10.6236 11.1888L9.13882 13.4159C9.01105 13.6002 8.83976 13.75 8.64015 13.8522C8.44055 13.9544 8.21881 14.0057 7.99461 14.0016H1.86488C1.50361 14.0016 1.15714 13.8581 0.901684 13.6027C0.646229 13.3472 0.502716 13.0007 0.502716 12.6395C0.502716 12.2782 0.646229 11.9318 0.901684 11.6763C1.15714 11.4209 1.50361 11.2774 1.86488 11.2774H7.26585L9.58834 7.79711C9.71809 7.6032 9.89548 7.44587 10.1035 7.3402C10.3115 7.23453 10.5432 7.18406 10.7763 7.19363C11.0094 7.2032 11.2362 7.27249 11.4349 7.39486C11.6335 7.51722 11.7974 7.68857 11.9108 7.89246L14.1243 11.9584L17.6864 5.82883C17.8081 5.61792 17.9841 5.44349 18.1962 5.32371C18.4082 5.20393 18.6484 5.14317 18.8919 5.14776C19.1296 5.1492 19.3628 5.21282 19.5683 5.3323C19.7738 5.45178 19.9445 5.62296 20.0634 5.82883L23.3257 11.2774L24.6879 10.2013C24.9294 10.0139 25.2268 9.91313 25.5324 9.91523H31.8324C32.1937 9.91523 32.5402 10.0587 32.7956 10.3142C33.0511 10.5696 33.1946 10.9161 33.1946 11.2774C33.1946 11.6386 33.0511 11.9851 32.7956 12.2405C32.5402 12.496 32.1937 12.6395 31.8324 12.6395H26.0092L23.7957 14.3898C23.6432 14.5153 23.4652 14.6061 23.2741 14.6559C23.083 14.7058 22.8834 14.7135 22.689 14.6785C22.4946 14.6435 22.3102 14.5667 22.1485 14.4533C21.9868 14.34 21.8516 14.1928 21.7524 14.0221L18.8919 9.1933L15.3026 15.3638C15.1832 15.5706 15.0114 15.7424 14.8046 15.862C14.5978 15.9815 14.3632 16.0446 14.1243 16.0448Z" fill="white" fill-opacity="0.2"/>
</g>
<defs>
<filter id="filter0_b_763_43617" x="-24.4973" y="-19.8525" width="82.6919" height="60.8973" filterUnits="userSpaceOnUse" color-interpolation-filters="sRGB">
<feFlood flood-opacity="0" result="BackgroundImageFix"/>
<feGaussianBlur in="BackgroundImage" stdDeviation="12.5"/>
<feComposite in2="SourceAlpha" operator="in" result="effect1_backgroundBlur_763_43617"/>
<feBlend mode="normal" in="SourceGraphic" in2="effect1_backgroundBlur_763_43617" result="shape"/>
</filter>
<linearGradient id="paint0_linear_763_43617" x1="4.694" y1="10.2888" x2="29.2387" y2="10.4152" gradientUnits="userSpaceOnUse">
<stop stop-color="#FF7070"/>
<stop offset="1" stop-color="#FF7070" stop-opacity="0.65"/>
</linearGradient>
</defs>
</svg>
