<svg width="28" height="29" viewBox="0 0 28 29" fill="none" xmlns="http://www.w3.org/2000/svg">
<path d="M21.6563 26.8541H12.9063V24.2291H19.0313C20.481 24.2291 21.6563 25.4044 21.6563 26.8541Z" fill="#537DA5"/>
<path d="M19.0313 24.2291H8.53128C6.5983 24.2291 5.03128 22.6621 5.03128 20.7291V11.1041C5.03128 5.78839 9.34055 1.47913 14.6563 1.47913H15.5313C20.847 1.47913 25.1563 5.78839 25.1563 11.1041V16.3945C25.1563 18.3275 23.5893 19.8945 21.6563 19.8945V26.8541C21.6563 25.4044 20.481 24.2291 19.0313 24.2291Z" fill="#FAB991"/>
<path d="M4.00512 17.2291H5.03128V11.9791C3.82318 11.9791 2.84378 12.9585 2.84378 14.1666V16.0678C2.84378 16.7092 3.36375 17.2291 4.00512 17.2291Z" fill="#FAB991"/>
<path d="M8.53128 12.8541C6.11502 12.8541 4.15628 14.8129 4.15628 17.2291H15.3125C15.6749 17.2291 15.9688 17.523 15.9688 17.8854C15.9688 18.2478 15.6749 18.5416 15.3125 18.5416H5.03128V20.7291H12.4688C14.4018 20.7291 15.9688 22.2961 15.9688 24.2291V26.8541H18.5938V18.9791C18.5938 15.5964 15.8515 12.8541 12.4688 12.8541H8.53128Z" fill="#F05A4B"/>
<path d="M17.2813 16.7916C19.9392 16.7916 22.0938 14.637 22.0938 11.9791C22.0938 9.32126 19.9392 7.16663 17.2813 7.16663C14.6234 7.16663 12.4688 9.32126 12.4688 11.9791C12.4688 14.637 14.6234 16.7916 17.2813 16.7916Z" fill="#D73728"/>
<path d="M17.2813 7.60413C19.6975 7.60413 21.6563 9.56287 21.6563 11.9791C21.6563 14.3954 19.6975 16.3541 17.2813 16.3541C14.865 16.3541 12.9063 14.3954 12.9063 11.9791C12.9063 9.56287 14.865 7.60413 17.2813 7.60413ZM17.2813 6.72913C14.3864 6.72913 12.0313 9.08424 12.0313 11.9791C12.0313 14.874 14.3864 17.2291 17.2813 17.2291C20.1762 17.2291 22.5313 14.874 22.5313 11.9791C22.5313 9.08424 20.1761 6.72913 17.2813 6.72913Z" fill="#F05A4B"/>
<path d="M17.6739 8.47951C16.2346 8.50352 15.0938 9.70784 15.0938 11.1473V13.7291C15.0938 14.454 15.6814 15.0416 16.4063 15.0416C17.1312 15.0416 17.7188 14.454 17.7188 13.7291C19.1685 13.7291 20.3438 12.5539 20.3438 11.1041C20.3438 9.63943 19.1442 8.45495 17.6739 8.47951Z" fill="#FAB991"/>
<path d="M17.7187 9.35413L17.6885 9.35434C16.7544 9.36993 15.9924 10.1509 15.9698 11.1041H16.1875C16.5499 11.1041 16.8438 11.398 16.8438 11.7604C16.8438 12.1228 16.5499 12.4166 16.1875 12.4166H15.9688V13.7136C15.9688 13.9465 16.1441 14.1501 16.3763 14.1656C16.631 14.1826 16.8438 13.9803 16.8438 13.7291V13.6942C16.8438 13.2303 17.2199 12.8541 17.6839 12.8541C18.6252 12.8541 19.4471 12.0853 19.4683 11.1443C19.4905 10.161 18.6971 9.35413 17.7187 9.35413Z" fill="#F0915A"/>
</svg>
