<svg width="29" height="29" viewBox="0 0 29 29" fill="none" xmlns="http://www.w3.org/2000/svg">
<g clip-path="url(#clip0_828_51105)">
<path d="M14.3333 11.775C14.0416 11.775 13.8083 11.5416 13.8083 11.25V2.79162C13.8083 2.49998 14.0416 2.26662 14.3333 2.26662C14.6249 2.26662 14.8583 2.49998 14.8583 2.79162V11.25C14.8583 11.5416 14.6249 11.775 14.3333 11.775Z" fill="#415A6B"/>
<path d="M18.0083 10.375C17.7166 10.375 17.4833 10.1416 17.4833 9.84998V4.83327C17.4833 4.71662 17.5416 4.54162 17.6583 4.48327L20.3999 1.74162C20.5749 1.56662 20.9249 1.56662 21.0999 1.74162C21.3333 1.91662 21.3333 2.26662 21.0999 2.44162L18.5333 5.00827V9.84992C18.5333 10.1416 18.2999 10.375 18.0083 10.375Z" fill="#415A6B"/>
<path d="M20.8666 13.4083C20.575 13.4083 20.3416 13.1749 20.3416 12.8833V7.57492C20.3416 7.45828 20.4 7.28328 20.5166 7.22492L26.0583 1.68327C26.2333 1.50827 26.5833 1.50827 26.7583 1.68327C26.9333 1.85827 26.9333 2.20827 26.7583 2.38327L21.3916 7.74992V12.8249C21.3916 13.175 21.1583 13.4083 20.8666 13.4083Z" fill="#415A6B"/>
<path d="M26.4083 4.01663C27.4715 4.01663 28.3333 3.15477 28.3333 2.09163C28.3333 1.02848 27.4715 0.166626 26.4083 0.166626C25.3452 0.166626 24.4833 1.02848 24.4833 2.09163C24.4833 3.15477 25.3452 4.01663 26.4083 4.01663Z" fill="#537DA5"/>
<path d="M20.75 4.01663C21.8131 4.01663 22.675 3.15477 22.675 2.09163C22.675 1.02848 21.8131 0.166626 20.75 0.166626C19.6868 0.166626 18.825 1.02848 18.825 2.09163C18.825 3.15477 19.6868 4.01663 20.75 4.01663Z" fill="#FFD15C"/>
<path d="M14.3333 4.01663C15.3965 4.01663 16.2583 3.15477 16.2583 2.09163C16.2583 1.02848 15.3965 0.166626 14.3333 0.166626C13.2702 0.166626 12.4083 1.02848 12.4083 2.09163C12.4083 3.15477 13.2702 4.01663 14.3333 4.01663Z" fill="#55C0EB"/>
<path d="M10.6583 10.375C10.3666 10.375 10.1333 10.1416 10.1333 9.84998V5.00827L7.56662 2.44162C7.33326 2.26662 7.33326 1.91662 7.56662 1.74162C7.74162 1.56662 8.09162 1.56662 8.26662 1.74162L11.0083 4.48327C11.1249 4.59992 11.1833 4.71662 11.1833 4.83327V9.90827C11.1833 10.1416 10.9499 10.375 10.6583 10.375Z" fill="#415A6B"/>
<path d="M7.79994 13.4083C7.50829 13.4083 7.27494 13.1749 7.27494 12.8833V7.80827L1.90829 2.44162C1.67494 2.26662 1.67494 1.91662 1.90829 1.74162C2.08329 1.56662 2.43329 1.56662 2.60829 1.74162L8.14994 7.28327C8.26659 7.39992 8.32494 7.51662 8.32494 7.63327V12.9416C8.26664 13.175 8.03329 13.4083 7.79994 13.4083Z" fill="#415A6B"/>
<path d="M2.25831 4.01663C3.32146 4.01663 4.18331 3.15477 4.18331 2.09163C4.18331 1.02848 3.32146 0.166626 2.25831 0.166626C1.19516 0.166626 0.333313 1.02848 0.333313 2.09163C0.333313 3.15477 1.19516 4.01663 2.25831 4.01663Z" fill="#F3705A"/>
<path d="M7.91664 4.01663C8.97979 4.01663 9.84164 3.15477 9.84164 2.09163C9.84164 1.02848 8.97979 0.166626 7.91664 0.166626C6.85349 0.166626 5.99164 1.02848 5.99164 2.09163C5.99164 3.15477 6.85349 4.01663 7.91664 4.01663Z" fill="#FFD15C"/>
<path d="M14.3333 10.8416V25.1916C14.3333 26.5916 13.1667 27.7583 11.7667 27.7583C10.3667 27.7583 9.19995 26.5916 9.19995 25.1916C9.19995 24.8416 9.2583 24.4916 9.37495 24.2C9.19995 24.2583 9.0833 24.2583 8.9083 24.2583C7.62495 24.2583 6.57495 23.2083 6.57495 21.925C6.57495 21.4583 6.6916 21.05 6.92495 20.7C5.69995 20.4666 4.82495 19.4166 4.82495 18.1916C4.82495 17.025 5.5833 16.0916 6.6333 15.7416C6.39995 15.3333 6.2833 14.8666 6.2833 14.3416C6.2833 12.7666 7.56665 11.425 9.19995 11.425H9.2583C9.19995 11.25 9.19995 11.075 9.19995 10.8416C9.19995 9.44163 10.3666 8.27498 11.7666 8.27498C13.1667 8.27498 14.3333 9.44163 14.3333 10.8416Z" fill="#8AD7F8"/>
<path d="M11.7667 28.1666C10.1333 28.1666 8.79169 26.825 8.79169 25.1916C8.79169 25.0166 8.79169 24.8416 8.85004 24.6666C7.33339 24.6083 6.16669 23.3833 6.16669 21.925C6.16669 21.575 6.22504 21.225 6.34169 20.9333C5.23334 20.525 4.41669 19.4167 4.41669 18.1333C4.41669 16.9667 5.05834 15.975 6.05004 15.45C5.93339 15.1 5.81669 14.6916 5.81669 14.2833C5.81669 12.5917 7.10004 11.1917 8.73334 11.0167C8.73334 10.9583 8.73334 10.9 8.73334 10.8417C8.73334 9.20833 10.075 7.86668 11.7083 7.86668C13.3417 7.86668 14.6833 9.20833 14.6833 10.8417V25.1917C14.7417 26.825 13.4 28.1666 11.7667 28.1666ZM9.37498 23.7916C9.49163 23.7916 9.60834 23.85 9.66663 23.9083C9.78328 24.0249 9.78328 24.1999 9.72498 24.3166C9.60834 24.6083 9.54998 24.8416 9.54998 25.1333C9.54998 26.3583 10.5416 27.2916 11.7083 27.2916C12.9333 27.2916 13.8667 26.3 13.8667 25.1333V10.8416C13.8667 9.61662 12.875 8.68327 11.7083 8.68327C10.4833 8.68327 9.54998 9.67492 9.54998 10.8416C9.54998 11.0166 9.54998 11.1916 9.60834 11.3083C9.66669 11.4249 9.60834 11.5999 9.49169 11.6583C9.37504 11.7749 9.25834 11.7749 9.14169 11.7749C7.80004 11.7749 6.63334 12.8833 6.63334 14.2833C6.63334 14.6916 6.74998 15.0999 6.92498 15.4499C6.98334 15.5666 6.98334 15.6833 6.92498 15.7999C6.86663 15.9166 6.80834 15.9749 6.69163 16.0333C5.81663 16.3249 5.17498 17.1416 5.17498 18.0749C5.17498 19.1249 5.93334 19.9999 6.92498 20.2333C7.04163 20.2333 7.15834 20.3499 7.21663 20.4666C7.27498 20.5833 7.27498 20.7583 7.15828 20.875C6.98328 21.1666 6.86663 21.5166 6.86663 21.925C6.86663 22.975 7.74163 23.85 8.79163 23.85C8.90828 23.85 9.08328 23.85 9.14163 23.7916C9.31669 23.7916 9.31669 23.7916 9.37498 23.7916Z" fill="#55C0EB"/>
<path d="M10.6583 12.8833C10.5417 12.8833 10.3667 12.8249 10.3083 12.6499C10.1917 12.4749 10.25 12.1833 10.4833 12.1249C11.4167 11.5999 11.1833 10.8416 11.1833 10.8416C11.125 10.6082 11.2417 10.3749 11.475 10.3166C11.7083 10.2582 11.9416 10.3749 12 10.6082C12.1166 11.0749 12.1166 12.1832 10.95 12.8249C10.775 12.8833 10.7167 12.8833 10.6583 12.8833Z" fill="#55C0EB"/>
<path d="M10.5417 21.6916C10.425 21.6916 10.3083 21.6333 10.1917 21.5166C9.60833 20.6416 8.50003 20.7583 8.50003 20.7583C8.26668 20.7583 8.09168 20.6416 8.03339 20.4083C8.03339 20.1749 8.15004 19.9999 8.38339 19.9416C8.44174 19.9416 9.95839 19.7666 10.8334 21.05C10.95 21.225 10.8917 21.4583 10.7167 21.6333C10.6583 21.6916 10.6 21.6916 10.5417 21.6916Z" fill="#55C0EB"/>
<path d="M7.21666 21.1083C7.10001 21.1083 6.98331 21.1083 6.92501 21.1083C6.69166 21.0499 6.57501 20.8749 6.57501 20.6416C6.63336 20.4083 6.80836 20.2916 7.04166 20.2916C7.10001 20.2916 8.26666 20.4083 8.67501 19.5333C8.79166 19.2999 9.02501 19.2416 9.20001 19.2999C9.43336 19.4166 9.49166 19.6499 9.43336 19.8249C8.90831 20.8166 7.91666 21.1083 7.21666 21.1083Z" fill="#55C0EB"/>
<path d="M11.7083 20.4666C11.5917 20.4666 11.4167 20.4083 11.3583 20.2916C10.5417 19.0083 10.7167 18.1333 11.0083 17.55C11.4167 16.7333 12.2917 16.3833 12.5833 16.325C12.8167 16.325 12.9917 16.5 12.9917 16.7333C12.9917 16.9667 12.8167 17.1417 12.6417 17.1417C12.525 17.1417 11.9417 17.4333 11.7083 17.9583C11.475 18.4833 11.5917 19.0667 12.0583 19.825C12.175 20 12.1167 20.2916 11.9417 20.4083C11.825 20.4666 11.7667 20.4666 11.7083 20.4666Z" fill="#55C0EB"/>
<path d="M9.37501 24.6083C9.31666 24.6083 9.20001 24.6083 9.14166 24.5499C8.96666 24.4333 8.90831 24.1999 9.02501 23.9666C9.37501 23.4416 10.3667 22.5666 11.7667 23.2082C12 23.3249 12.0583 23.5582 11.9417 23.7332C11.825 23.9666 11.5917 24.0249 11.4167 23.9082C10.3083 23.4416 9.72501 24.2582 9.66666 24.3749C9.66672 24.55 9.49172 24.6083 9.37501 24.6083Z" fill="#55C0EB"/>
<path d="M9.60834 24.3166C9.54998 24.3166 9.49169 24.3166 9.43334 24.2583C9.19998 24.1416 9.14169 23.9083 9.19998 23.7333C9.19998 23.6749 9.43334 23.0916 8.73334 22.6249C8.55834 22.5083 8.49998 22.2166 8.61669 22.0416C8.73334 21.8666 9.02504 21.8082 9.20004 21.9249C10.1917 22.6249 10.075 23.6166 9.90004 24.0249C9.89998 24.2583 9.72499 24.3166 9.60834 24.3166Z" fill="#55C0EB"/>
<path d="M11.4167 26.0666C11.2417 26.0666 11.0667 26.0666 10.8917 26.0083C10.6583 25.9499 10.5417 25.7166 10.6 25.5416C10.6584 25.3083 10.8917 25.1916 11.0667 25.25C12.0583 25.4833 12.35 24.725 12.4083 24.6666C12.4667 24.4333 12.7583 24.375 12.9333 24.4333C13.1667 24.4916 13.225 24.7833 13.1667 24.9583C12.9333 25.425 12.4083 26.0666 11.4167 26.0666Z" fill="#55C0EB"/>
<path d="M12.7 14.05C12.6416 14.05 12.525 14.05 12.4666 13.9916C11.0666 13 11.1833 11.25 11.1833 11.1916C11.1833 10.9583 11.4166 10.7833 11.6499 10.8416C11.8833 10.8416 12.0583 11.075 11.9999 11.3083C11.9999 11.3666 11.8833 12.6499 12.9333 13.3499C13.1083 13.4666 13.1666 13.7583 13.0499 13.9333C12.9333 13.9916 12.8167 14.05 12.7 14.05Z" fill="#55C0EB"/>
<path d="M8.79167 16.6166C8.67502 16.6166 8.61666 16.6166 8.55831 16.5583C8.03331 16.1499 7.33331 15.9749 6.63331 16.1499C6.39996 16.2083 6.16666 16.0916 6.16666 15.8583C6.10831 15.6249 6.22502 15.3916 6.45831 15.3916C7.39166 15.1583 8.32496 15.3916 9.08331 15.975C9.25831 16.0916 9.31667 16.3833 9.14166 16.5583C9.02496 16.5583 8.90831 16.6166 8.79167 16.6166Z" fill="#55C0EB"/>
<path d="M7.68331 16.0916C7.44996 16.0916 7.27496 15.9166 7.27496 15.6833C7.27496 15.4499 7.44996 15.2749 7.68331 15.2749C7.74167 15.2749 8.67496 15.2166 9.08332 13.7583C9.14167 13.5249 9.37496 13.4083 9.54996 13.4666C9.78332 13.525 9.89996 13.7583 9.84161 13.9333C9.31667 16.0333 7.79996 16.0916 7.68331 16.0916Z" fill="#55C0EB"/>
<path d="M11.1834 19.1833C11.0667 19.1833 10.95 19.1249 10.8917 19.0666C10.8334 19.0083 9.43335 17.6083 7.62505 18.4833C7.45005 18.5999 7.15841 18.4833 7.10005 18.3083C6.98341 18.1333 7.10005 17.8416 7.27505 17.7833C9.1417 16.8499 10.8334 17.8999 11.4751 18.5416C11.6501 18.7166 11.6501 18.95 11.4751 19.125C11.3584 19.125 11.3 19.1833 11.1834 19.1833Z" fill="#55C0EB"/>
<path d="M14.3333 10.8416V25.1916C14.3333 26.5916 15.5 27.7583 16.9 27.7583C18.3 27.7583 19.4666 26.5916 19.4666 25.1916C19.4666 24.8416 19.4083 24.4916 19.2916 24.2C19.4666 24.2583 19.5833 24.2583 19.7583 24.2583C21.0416 24.2583 22.0916 23.2083 22.0916 21.925C22.0916 21.4583 21.975 21.05 21.7416 20.7C22.9666 20.4666 23.8416 19.4166 23.8416 18.1916C23.8416 17.025 23.0833 16.0916 22.0333 15.7416C22.2666 15.3333 22.3833 14.8666 22.3833 14.3416C22.3833 12.7666 21.0999 11.425 19.4666 11.425H19.4083C19.4667 11.25 19.4667 11.075 19.4667 10.8416C19.4667 9.44163 18.3 8.27498 16.9 8.27498C15.5 8.27498 14.3333 9.44163 14.3333 10.8416Z" fill="#8AD7F8"/>
<path d="M16.9 28.1666C15.2666 28.1666 13.925 26.825 13.925 25.1916V10.8416C13.925 9.20827 15.2666 7.86662 16.9 7.86662C18.5333 7.86662 19.875 9.20827 19.875 10.8416C19.875 10.9 19.875 10.9583 19.875 11.0166C21.5083 11.1916 22.7916 12.5916 22.7916 14.2833C22.7916 14.6916 22.7333 15.0999 22.5583 15.4499C23.5499 15.9749 24.1916 16.9666 24.1916 18.1333C24.1916 19.4166 23.4333 20.5249 22.2666 20.9333C22.3833 21.2249 22.4416 21.5749 22.4416 21.9249C22.4416 23.3833 21.275 24.6083 19.8166 24.6666C19.875 24.8416 19.875 25.0166 19.875 25.1916C19.875 26.825 18.5333 28.1666 16.9 28.1666ZM16.9 8.68327C15.675 8.68327 14.7416 9.67492 14.7416 10.8416V25.1916C14.7416 26.4166 15.7333 27.35 16.9 27.35C18.125 27.35 19.0583 26.3583 19.0583 25.1916C19.0583 24.9 19 24.6083 18.8833 24.375C18.825 24.2583 18.825 24.0833 18.9417 23.9666C19.0583 23.85 19.175 23.7916 19.35 23.85C19.4667 23.85 19.5834 23.9083 19.7 23.9083C20.75 23.9083 21.625 23.0333 21.625 21.9833C21.625 21.6333 21.5084 21.2833 21.3334 20.9333C21.275 20.8167 21.275 20.7 21.275 20.525C21.3334 20.4083 21.45 20.2916 21.5667 20.2916C22.6167 20.1166 23.3167 19.1833 23.3167 18.1333C23.3167 17.1999 22.7333 16.3833 21.8 16.0916C21.6834 16.0333 21.5667 15.975 21.5667 15.8583C21.5083 15.7416 21.5083 15.6249 21.5667 15.5083C21.7417 15.1583 21.8583 14.7499 21.8583 14.3416C21.8583 12.9416 20.75 11.8333 19.35 11.8333C19.2333 11.8333 19.0583 11.8333 19 11.7166C18.8833 11.6 18.8833 11.4833 18.8833 11.3666C18.9417 11.25 18.9417 11.075 18.9417 10.9C19.0583 9.67497 18.125 8.68327 16.9 8.68327Z" fill="#55C0EB"/>
<path d="M18.0083 12.8833C17.95 12.8833 17.8917 12.8833 17.8333 12.8249C16.6667 12.1249 16.6083 11.0749 16.7833 10.6083C16.8417 10.3749 17.075 10.2583 17.3083 10.3166C17.5417 10.375 17.6583 10.6083 17.6 10.8416C17.6 10.9 17.425 11.6 18.3 12.125C18.475 12.2416 18.5916 12.475 18.475 12.65C18.3 12.825 18.125 12.8833 18.0083 12.8833Z" fill="#55C0EB"/>
<path d="M18.125 21.6916C18.0667 21.6916 17.95 21.6916 17.8917 21.6333C17.7167 21.5166 17.6583 21.2249 17.775 21.0499C18.65 19.8249 20.1667 19.9416 20.225 19.9416C20.4584 19.9416 20.6334 20.1749 20.575 20.4082C20.575 20.6416 20.3417 20.7582 20.1084 20.7582C20.05 20.7582 19 20.6416 18.4167 21.5166C18.4167 21.6333 18.3 21.6916 18.125 21.6916Z" fill="#55C0EB"/>
<path d="M21.45 21.1083C20.75 21.1083 19.7583 20.8749 19.2916 19.8249C19.175 19.5916 19.2916 19.3583 19.525 19.2999C19.7583 19.1833 19.9916 19.2999 20.05 19.5333C20.4583 20.4666 21.625 20.35 21.6833 20.2916C21.9167 20.2333 22.0917 20.4083 22.15 20.6416C22.2083 20.875 22.0333 21.05 21.8 21.1083C21.6833 21.1083 21.5667 21.1083 21.45 21.1083Z" fill="#55C0EB"/>
<path d="M16.9584 20.4666C16.9 20.4666 16.7834 20.4666 16.725 20.4083C16.55 20.2916 16.4917 20.0583 16.6084 19.8249C17.075 19.1249 17.1917 18.4833 16.9584 17.9583C16.725 17.4333 16.1417 17.1416 16.025 17.1416C15.7917 17.1416 15.6167 16.9666 15.675 16.7333C15.675 16.4999 15.9084 16.3249 16.0834 16.3249C16.375 16.3249 17.25 16.7333 17.6584 17.5499C17.95 18.0749 18.0667 19.0083 17.25 20.2916C17.25 20.4083 17.075 20.4666 16.9584 20.4666Z" fill="#55C0EB"/>
<path d="M19.2917 24.6083C19.1751 24.6083 19.0001 24.5499 18.9417 24.4333C18.8834 24.3166 18.3001 23.4999 17.1917 23.9666C16.9584 24.0833 16.7251 23.9666 16.6667 23.7916C16.5501 23.5583 16.6667 23.325 16.8417 23.2666C18.2417 22.625 19.2917 23.5 19.5834 24.025C19.7 24.2 19.6417 24.4916 19.4667 24.6083C19.4667 24.55 19.35 24.6083 19.2917 24.6083Z" fill="#55C0EB"/>
<path d="M19.0583 24.3166C18.8833 24.3166 18.7667 24.2 18.7083 24.0833C18.5333 23.6749 18.475 22.6833 19.4083 21.9833C19.5833 21.8666 19.8167 21.8666 19.9917 22.0999C20.1083 22.2749 20.1083 22.5083 19.875 22.6833C19.175 23.2083 19.4084 23.7916 19.4084 23.7916C19.525 24.025 19.4084 24.2583 19.175 24.3166C19.175 24.3166 19.1167 24.3166 19.0583 24.3166Z" fill="#55C0EB"/>
<path d="M17.25 26.0666C16.2583 26.0666 15.675 25.3666 15.5 24.9583C15.4416 24.7249 15.5 24.4916 15.7333 24.4333C15.9667 24.3749 16.2 24.4333 16.2583 24.6666C16.3167 24.725 16.6083 25.425 17.6 25.25C17.8333 25.1916 18.0083 25.3666 18.0667 25.5416C18.125 25.775 17.95 25.95 17.775 26.0083C17.6 26.0666 17.425 26.0666 17.25 26.0666Z" fill="#55C0EB"/>
<path d="M15.9667 14.05C15.8501 14.05 15.7334 13.9916 15.6167 13.875C15.5001 13.7 15.5001 13.4666 15.7334 13.2916C16.7834 12.5333 16.6667 11.3083 16.6667 11.25C16.6667 11.0166 16.7834 10.8416 17.0167 10.7833C17.2501 10.7833 17.4251 10.9 17.4834 11.1333C17.4834 11.1917 17.6584 12.8833 16.2 13.9333C16.1417 14.05 16.0834 14.05 15.9667 14.05Z" fill="#55C0EB"/>
<path d="M19.875 16.6166C19.7583 16.6166 19.6416 16.5583 19.5833 16.4416C19.4667 16.2666 19.4667 16.0333 19.6417 15.8583C20.4 15.2749 21.3333 15.0999 22.2667 15.2749C22.5 15.3333 22.6167 15.5666 22.5583 15.7416C22.5 15.9749 22.2667 16.0916 22.0917 16.0332C21.45 15.8582 20.75 16.0332 20.1667 16.4416C20.05 16.6166 19.9333 16.6166 19.875 16.6166Z" fill="#55C0EB"/>
<path d="M20.9833 16.0916C20.8667 16.0916 19.35 16.0333 18.825 13.9916C18.7666 13.7583 18.8833 13.525 19.1166 13.525C19.35 13.4666 19.5833 13.5833 19.5833 13.8166C19.9916 15.3333 20.9833 15.3333 20.9833 15.3333C21.2166 15.3333 21.3916 15.5083 21.3916 15.7416C21.3917 15.8583 21.2167 16.0916 20.9833 16.0916Z" fill="#55C0EB"/>
<path d="M17.4833 19.1833C17.3667 19.1833 17.3083 19.1249 17.1917 19.0666C17.0167 18.8916 17.0167 18.6583 17.1917 18.4833C17.8333 17.8416 19.525 16.7916 21.3917 17.725C21.5667 17.8416 21.6833 18.075 21.5667 18.25C21.45 18.425 21.2167 18.5416 21.0417 18.425C19.2333 17.55 17.8333 19.0083 17.775 19.0083C17.7167 19.125 17.6 19.1833 17.4833 19.1833Z" fill="#55C0EB"/>
</g>
<defs>
<clipPath id="clip0_828_51105">
<rect width="28" height="28" fill="white" transform="translate(0.333313 0.166626)"/>
</clipPath>
</defs>
</svg>
