<svg width="29" height="29" viewBox="0 0 29 29" fill="none" xmlns="http://www.w3.org/2000/svg">
<g clip-path="url(#clip0_828_51230)">
<path d="M24.3018 17.6622C24.0592 16.2518 23.8301 14.9197 23.9082 13.9225C24.1645 10.6533 22.7352 8.87991 21.4911 7.96783C21.4029 7.90322 21.2925 7.87642 21.1847 7.89363C20.5534 7.99377 18.9589 8.30056 17.7914 8.98443C17.6118 9.08962 17.5396 9.31279 17.6236 9.5032C17.7145 9.70928 17.7956 9.92143 17.8649 10.1336C18.0108 10.5808 18.1181 11.0611 18.1839 11.5609C18.2312 11.9211 18.116 12.2812 17.8676 12.5488C17.6162 12.8198 17.2604 12.9629 16.8898 12.9426C16.2998 12.9096 15.8143 12.4559 15.7354 11.8639C15.6807 11.4536 15.6029 11.101 15.5042 10.8157C15.3632 10.4081 15.1771 10.0551 14.9512 9.76616C14.9492 9.76372 14.9472 9.76117 14.9452 9.75873C14.9394 9.75157 14.9337 9.74419 14.9281 9.73693L14.9238 9.7313C14.9218 9.72869 14.9197 9.72608 14.9176 9.72347C14.3962 9.08218 13.7794 8.88752 13.3609 8.79685C13.0176 8.72248 12.5492 8.66145 11.9686 8.61536C11.7857 8.60105 11.6151 8.70999 11.5517 8.88241C11.159 9.95072 11.0258 10.8902 11.0242 10.9018C10.9434 11.5082 10.4216 11.9655 9.81026 11.9655C9.75558 11.9655 9.70012 11.9618 9.64551 11.9545C8.97453 11.8652 8.50157 11.2457 8.59104 10.5738C8.59467 10.5469 8.6821 9.90451 8.92866 9.02564C8.92974 9.02184 8.93076 9.01792 8.93167 9.01434C8.93984 8.98164 8.94336 8.94889 8.94353 8.91658C8.96158 8.88723 8.97725 8.85601 8.98764 8.82166V8.82161C8.98781 8.82109 8.98793 8.8207 8.9881 8.82019L8.99423 8.79969C9.00581 8.76075 9.01132 8.72135 9.01137 8.68269C9.01143 8.50613 8.89641 8.34308 8.71855 8.29006C8.52189 8.23147 8.31655 8.3277 8.23168 8.50766C8.21414 8.50772 8.19631 8.50777 8.17894 8.50789C8.07459 8.5084 7.97445 8.54871 7.89877 8.62052C6.39638 10.0477 5.49815 12.4231 5.55464 14.8195C5.55526 14.8441 5.55629 14.8686 5.55742 14.8933C5.55856 14.9185 5.55986 14.9437 5.55981 14.9691C5.55765 16.5776 6.08863 18.3883 7.09535 20.2056C8.05949 21.9459 9.39032 23.5784 10.944 24.9264C12.2369 26.0483 13.6518 26.9306 15.0359 27.4781C16.1944 27.9363 17.3237 28.1666 18.4061 28.1666C18.7602 28.1666 19.1092 28.142 19.4526 28.0926C21.4717 27.8023 22.8813 27.0725 23.7619 25.8617C25.3392 23.6933 24.7881 20.4891 24.3018 17.6622Z" fill="#EF3A47"/>
<path d="M6.48642 10.574C6.39695 11.2458 6.86997 11.8653 7.54089 11.9547C7.5955 11.962 7.65096 11.9656 7.70564 11.9656C8.14629 11.9656 8.53943 11.7274 8.75539 11.3676C8.61732 11.1371 8.55289 10.8604 8.59109 10.574C8.59467 10.547 8.68215 9.90463 8.92871 9.02575C8.92979 9.02195 8.93081 9.01803 8.93172 9.01446C8.9399 8.98176 8.94342 8.949 8.94359 8.9167C8.96164 8.88734 8.97731 8.85612 8.9877 8.82177V8.82172C8.98787 8.82121 8.98798 8.82081 8.98815 8.8203L8.99428 8.7998C9.00586 8.76086 9.01137 8.72146 9.01143 8.6828C9.01148 8.50624 8.89646 8.34319 8.7186 8.29017C8.52195 8.23158 8.31661 8.32781 8.23173 8.50777C8.21419 8.50783 8.19636 8.50789 8.17899 8.508C8.07465 8.50851 7.9745 8.54882 7.89883 8.62063C7.33804 9.15332 6.86162 9.81816 6.48739 10.5669C6.48693 10.5702 6.48653 10.5729 6.48642 10.574Z" fill="#CE3043"/>
<path d="M12.8129 9.72364C12.815 9.72619 12.8171 9.72881 12.8191 9.73147L12.8234 9.73709C12.8291 9.74436 12.8347 9.75174 12.8405 9.75889C12.8426 9.76134 12.8445 9.76383 12.8465 9.76633C13.0724 10.0552 13.2585 10.4083 13.3996 10.8159C13.4983 11.1012 13.5761 11.4538 13.6307 11.864C13.7096 12.4561 14.1951 12.9097 14.7851 12.9428C15.1558 12.9631 15.5115 12.8199 15.7629 12.549C15.8191 12.4885 15.868 12.423 15.9102 12.3542C15.8206 12.2085 15.7592 12.0427 15.7354 11.864C15.6807 11.4538 15.603 11.1012 15.5042 10.8159C15.3632 10.4083 15.1771 10.0552 14.9512 9.76633C14.9492 9.76389 14.9472 9.76134 14.9452 9.75889C14.9394 9.75174 14.9337 9.74436 14.9281 9.73709L14.9238 9.73147C14.9218 9.72886 14.9197 9.72625 14.9176 9.72364C14.3962 9.08235 13.7794 8.88768 13.3609 8.79702C13.0176 8.72265 12.5492 8.66162 11.9686 8.61552C11.7884 8.60145 11.6208 8.70727 11.5552 8.87508C11.9392 8.99419 12.405 9.22201 12.8129 9.72364Z" fill="#CE3043"/>
<path d="M24.3018 17.6622C24.0592 16.2518 23.8301 14.9197 23.9082 13.9225C24.1645 10.6533 22.7352 8.87991 21.4911 7.96783C21.4029 7.90322 21.2925 7.87642 21.1847 7.89363C20.8713 7.94336 20.3204 8.04407 19.7023 8.21654C20.8585 9.18852 22.0383 10.9276 21.8036 13.9225C21.7254 14.9197 21.9546 16.2519 22.1972 17.6622C22.6834 20.4891 23.2345 23.6933 21.6574 25.8617C20.7767 27.0726 19.3671 27.8023 17.3481 28.0927C17.3453 28.0931 17.3424 28.0933 17.3395 28.0937C17.6996 28.1421 18.0554 28.1667 18.4064 28.1667C18.7604 28.1667 19.1094 28.142 19.4528 28.0927C21.4719 27.8023 22.8815 27.0726 23.7622 25.8617C25.3392 23.6933 24.7881 20.4891 24.3018 17.6622Z" fill="#CE3043"/>
<path d="M14.8077 22.1369C13.6227 21.3288 12.7627 20.4151 12.1401 19.5386H13.1842C13.4104 19.5386 13.5939 19.3552 13.5939 19.129C13.5939 18.9027 13.4104 18.7193 13.1842 18.7193H11.616C11.3482 18.2522 11.1449 17.8106 10.9921 17.4196C10.4314 15.9854 10.399 14.8945 10.3987 14.8837C10.3937 14.6578 10.207 14.4788 9.9808 14.4832C9.75462 14.4878 9.57494 14.6749 9.5796 14.9012C9.5805 14.9462 9.60662 15.9361 10.0779 17.306C9.78198 18.157 9.59106 19.6826 9.5826 19.7511C9.55484 19.9756 9.71443 20.1801 9.9389 20.2079C9.95599 20.2101 9.97291 20.2111 9.98965 20.2111C10.1935 20.2111 10.3701 20.059 10.3957 19.8516C10.4274 19.5957 10.5026 19.0763 10.6036 18.5631C10.7225 18.8024 10.8572 19.0509 11.0096 19.3052C11.0212 19.3294 11.035 19.3522 11.0509 19.3736C11.4085 19.9608 11.8603 20.5771 12.4311 21.1836C12.3958 21.5807 12.3369 22.4698 12.4574 23.0041C12.5003 23.1945 12.6693 23.3238 12.8567 23.3238C12.8865 23.3238 12.9168 23.3205 12.9471 23.3137C13.1679 23.2639 13.3064 23.0447 13.2567 22.824C13.2072 22.6044 13.1993 22.263 13.2082 21.9325C13.553 22.235 13.9307 22.5307 14.3462 22.814C14.4167 22.8622 14.4971 22.8852 14.5766 22.8852C14.7074 22.8852 14.8361 22.8226 14.9154 22.7063C15.0428 22.5192 14.9947 22.2643 14.8077 22.1369Z" fill="#F2CA5A"/>
<path d="M22.7215 15.2681C22.5006 14.9588 21.8815 14.5194 21.5783 14.3143C21.4343 13.5959 21.1937 12.8944 20.8596 12.2205C20.8516 12.2007 20.8423 12.1817 20.8315 12.1636C20.6294 11.763 20.3943 11.3724 20.1266 10.9941C19.2239 9.7187 18.2769 9.03336 18.2371 9.00486C18.0531 8.87321 17.7972 8.91545 17.6655 9.0995C17.5337 9.28349 17.5761 9.53942 17.7601 9.67107C17.7819 9.68668 19.138 10.6784 20.0664 12.4729C20.0031 12.9861 19.2897 13.8057 18.7706 14.2512C18.5989 14.3984 18.5789 14.6569 18.7259 14.8287C18.807 14.9233 18.9218 14.972 19.0374 14.972C19.1316 14.972 19.2263 14.9397 19.3036 14.8736C19.3197 14.8598 19.7008 14.5322 20.082 14.0814C20.2512 13.8814 20.3938 13.6884 20.5101 13.5026C20.8155 14.3806 20.9882 15.3969 20.8944 16.5386C20.8759 16.764 21.0437 16.9619 21.2692 16.9803C21.2806 16.9813 21.2919 16.9818 21.3032 16.9818C21.5143 16.9818 21.6935 16.8197 21.7111 16.6055C21.7433 16.2138 21.7471 15.8235 21.7239 15.4362C21.8814 15.5627 22.005 15.6746 22.0549 15.7443C22.1349 15.8563 22.2608 15.9159 22.3886 15.9159C22.471 15.9159 22.5542 15.8911 22.6263 15.8396C22.8104 15.7081 22.853 15.4522 22.7215 15.2681Z" fill="#F2CA5A"/>
<path d="M10.3535 5.46836C10.2848 5.33478 10.1485 5.24951 9.9983 5.24621C8.31453 5.20846 6.79698 5.25189 6.50978 5.26103C5.3818 5.2968 4.4931 6.24363 4.52881 7.37167C4.54613 7.91826 4.77497 8.42528 5.17322 8.7994C5.5554 9.15842 6.04988 9.35389 6.572 9.35389C6.59443 9.35389 6.61691 9.35349 6.63939 9.35281C7.16287 9.33629 7.87104 9.32641 8.53378 9.32641C8.71744 9.32641 8.87861 9.20418 8.92828 9.02734C9.11625 8.35699 9.34515 7.72966 9.6088 7.16281C9.82379 6.70041 10.0657 6.27093 10.3277 5.88648C10.4123 5.76238 10.4222 5.60194 10.3535 5.46836Z" fill="#F77474"/>
<path d="M10.3277 5.88648C10.4123 5.76238 10.4223 5.60189 10.3535 5.46836C10.2848 5.33478 10.1486 5.24951 9.99836 5.24622C9.36547 5.23202 8.75615 5.2293 8.22676 5.23191C7.62737 6.05708 6.91592 7.91582 6.80692 9.34798C7.30849 9.33441 7.93921 9.32647 8.53383 9.32647C8.71749 9.32647 8.87866 9.20424 8.92834 9.0274C9.11631 8.35704 9.34521 7.72972 9.60885 7.16286C9.82379 6.70041 10.0657 6.27099 10.3277 5.88648Z" fill="#E55555"/>
<path d="M19.9407 5.0147C19.603 4.60442 19.2251 4.23927 18.8147 3.92629L19.3018 2.30865C19.413 1.93942 19.3738 1.54894 19.1913 1.20923C19.0088 0.869452 18.705 0.621135 18.3358 0.509977C17.9665 0.398649 17.576 0.437992 17.2362 0.620454C16.8965 0.802916 16.6482 1.10675 16.537 1.47605L16.1606 2.72609C16.1472 2.72337 16.1338 2.72064 16.1204 2.71797V1.61037C16.1204 0.81427 15.4728 0.166626 14.6767 0.166626C13.8806 0.166626 13.2329 0.81427 13.2329 1.61037V2.76254C13.2239 2.76487 13.2148 2.76731 13.2058 2.76969L12.8163 1.47611C12.5867 0.713899 11.7798 0.280566 11.0176 0.509977C10.6483 0.621192 10.3444 0.869508 10.1619 1.20923C9.97945 1.549 9.94016 1.93947 10.0514 2.30865L10.6347 4.24568C9.9426 4.91587 9.34821 5.77969 8.86577 6.8173C8.03407 8.60598 7.78894 10.3903 7.77889 10.4655C7.62969 11.5854 8.41853 12.6178 9.53726 12.7668C9.62758 12.7789 9.71944 12.785 9.81027 12.785C10.8306 12.785 11.7016 12.022 11.836 11.0129C11.8372 11.0043 11.9615 10.1439 12.3193 9.16927C12.3199 9.16785 12.3204 9.16637 12.321 9.1649C12.3394 9.11471 12.3587 9.06418 12.3784 9.01355L12.3898 8.98419C12.4101 8.93259 12.4309 8.8807 12.4514 8.83137C12.452 8.82995 12.4527 8.82819 12.4535 8.82637C12.474 8.77709 12.4954 8.7277 12.5172 8.6782L12.5338 8.64084C12.5563 8.59043 12.5793 8.54002 12.6032 8.48977C13.467 6.67179 14.3774 6.67179 14.6766 6.67179C15.1972 6.67179 15.6328 6.76819 16.0083 6.96649C16.1365 7.03422 16.2909 7.02906 16.4143 6.95304C17.3095 6.40185 18.4204 5.97169 19.716 5.67438C19.8544 5.64265 19.9664 5.54154 20.0122 5.40716C20.058 5.27284 20.031 5.12439 19.9407 5.0147Z" fill="#9B3E2C"/>
<path d="M17.4902 5.94904C16.7724 5.36214 15.8245 4.94851 14.5769 4.94851C10.2741 4.94851 9.59152 12.3608 9.59152 12.3608C9.59152 12.3608 9.58346 12.5331 9.57443 12.7706C9.65283 12.7796 9.73191 12.7851 9.81037 12.7851C10.8307 12.7851 11.7017 12.0221 11.8361 11.013C11.8373 11.0044 11.9616 10.1439 12.3194 9.16932C12.32 9.1679 12.3205 9.16643 12.3211 9.16495C12.3395 9.11477 12.3588 9.06424 12.3785 9.0136L12.3899 8.98425C12.4102 8.93265 12.431 8.88076 12.4515 8.83142C12.4521 8.83 12.4528 8.82824 12.4536 8.82643C12.4741 8.77715 12.4955 8.72776 12.5173 8.67825L12.534 8.6409C12.5565 8.59049 12.5794 8.54007 12.6033 8.48983C13.4671 6.67185 14.3776 6.67185 14.6768 6.67185C15.1974 6.67185 15.6329 6.76825 16.0084 6.96655C16.1367 7.03428 16.2911 7.02911 16.4145 6.9531C16.8363 6.69342 17.3066 6.46095 17.8209 6.25617C17.7239 6.15575 17.6141 6.05316 17.4902 5.94904Z" fill="#7A232E"/>
<path d="M23.797 6.42541C23.7086 5.30049 22.7215 4.45687 21.5959 4.54509C21.2464 4.57257 18.2041 4.8499 15.8942 6.31175C15.6169 6.14802 15.3211 6.0049 15.0117 5.88478C14.9701 5.8686 14.9261 5.8594 14.8816 5.85741C14.8048 5.85395 14.7396 5.85242 14.6766 5.85242C13.5142 5.85242 12.5939 6.60009 11.8631 8.13813C11.7526 8.37067 11.6478 8.62114 11.5517 8.88257C11.5075 9.00287 11.5221 9.13696 11.5912 9.24488C11.6604 9.35281 11.776 9.42218 11.9039 9.43234C12.448 9.47555 12.8799 9.53124 13.1876 9.59783C13.5098 9.6676 13.9246 9.80334 14.2789 10.2367L14.2797 10.2377C14.2891 10.2499 14.2985 10.2621 14.3082 10.2741C14.4772 10.491 14.6191 10.7633 14.73 11.0838C14.8108 11.3173 14.8758 11.6162 14.9233 11.9722C15.0541 12.9536 15.862 13.7058 16.8458 13.7609C16.8846 13.763 16.9233 13.7641 16.962 13.7641C17.5332 13.7641 18.0769 13.528 18.4684 13.1061C18.8832 12.659 19.0756 12.0569 18.9964 11.454C18.9241 10.9042 18.8055 10.3744 18.644 9.87936C18.6053 9.76071 18.5632 9.64211 18.5182 9.52437C19.6152 8.98669 21.1442 8.69006 21.9195 8.62619C23.043 8.53649 23.8853 7.54919 23.797 6.42541Z" fill="#F77474"/>
<path d="M23.3863 6.43125C23.3861 6.43108 23.386 6.43097 23.3858 6.4308C20.4217 6.71204 18.3378 7.55527 17.2261 8.12247C16.6877 8.39724 16.4178 9.01456 16.58 9.59692C16.8357 10.5148 17.2632 12.4655 17.486 13.6964C17.8584 13.5983 18.1993 13.3961 18.4683 13.1062C18.8831 12.659 19.0756 12.0569 18.9963 11.4541C18.924 10.9043 18.8054 10.3745 18.6439 9.87942C18.6052 9.76076 18.5632 9.64217 18.5181 9.52443C19.6151 8.98675 21.1441 8.69012 21.9194 8.62625C23.043 8.5365 23.8853 7.54925 23.797 6.42546V6.42541C23.7967 6.4216 23.7962 6.41786 23.7958 6.41411C23.6685 6.41224 23.5325 6.41746 23.3863 6.43125Z" fill="#E55555"/>
<path d="M13.3619 9.64126C13.8162 8.50925 15.1472 6.69348 15.8943 6.31175C15.617 6.14802 15.3212 6.0049 15.0118 5.88478C14.9702 5.8686 14.9262 5.8594 14.8816 5.85741C14.8048 5.85395 14.7396 5.85242 14.6767 5.85242C13.5142 5.85242 12.5939 6.60009 11.8631 8.13813C11.7526 8.37067 11.6479 8.62114 11.5518 8.88257C11.5076 9.00287 11.5221 9.13696 11.5913 9.24489C11.6604 9.35281 11.7761 9.42218 11.9039 9.43234C12.4481 9.47555 12.88 9.53124 13.1876 9.59783C13.243 9.60992 13.3016 9.62412 13.3619 9.64126Z" fill="#E55555"/>
</g>
<defs>
<clipPath id="clip0_828_51230">
<rect width="28" height="28" fill="white" transform="translate(0.666718 0.166626)"/>
</clipPath>
</defs>
</svg>
